<svg id="Layer_1" data-name="Layer 1" xmlns="http://www.w3.org/2000/svg" viewBox="0 0 147.34 169.18"><title>Burnley FC logo - Brandlogos.net</title><path d="M254.71,340.39a94.21,94.21,0,0,1-50.83-27.8C190.18,298,182.43,280,182.33,262.16V171.41H329.67v90.74c-.2,18-7.84,35.84-21.54,50.44a93.87,93.87,0,0,1-50.83,27.8l-1.29.2Z" transform="translate(-182.33 -171.41)" style="fill:#5f0041"/><path d="M186.9,176v86.18c.2,16.78,7.45,33.56,20.35,47.36A89.88,89.88,0,0,0,255.6,336l.4.1.4-.1a89.26,89.26,0,0,0,48.35-26.51c12.91-13.8,20.16-30.58,20.35-47.46V176Zm133.64,86.08c-.3,32.07-28.69,62.45-64.54,69.4-35.94-6.85-64.24-37.33-64.54-69.3V180.55H320.63v81.51Z" transform="translate(-182.33 -171.41)" style="fill:#fff"/><path d="M215.59,290.55c.5-.1.79-.2,1-.7s.2-1.39-1.09-1.89l-2.78-1.09-2,5.06,2.88,1.09a1.7,1.7,0,0,0,2.38-.79A1.35,1.35,0,0,0,215.59,290.55Zm-1.09.79a.48.48,0,0,1-.79.2l-.89-.4.4-.89,1,.4C214.5,290.85,214.6,291,214.5,291.34Zm.5-1.89c-.1.3-.4.3-.69.2l-.79-.3.3-.79.79.3c.4.2.5.4.4.6Z" transform="translate(-182.33 -171.41)" style="fill:#fff"/><path d="M219.36,289.46l-1.49-.69-1.39,3c-.6,1.39-.2,2.38,1.29,3.08s2.58.4,3.18-1l1.39-3-1.49-.7-1.29,2.68c-.2.5-.5,1.09-1.29.79s-.4-1-.2-1.49Z" transform="translate(-182.33 -171.41)" style="fill:#fff"/><path d="M221.75,296.81l1-1.69.79.4c.6.3.3.79.1,1.29-.1.3-.2.5-.3.79l1.49.79a3.55,3.55,0,0,1,.4-1.09,1.51,1.51,0,0,0,0-1.59,1.41,1.41,0,0,0,1.39-.79,1.5,1.5,0,0,0-.79-2.18L223,291.15l-2.68,4.67Zm2.08-3.57.69.4c.6.3.6.6.4.89s-.6.3-.89.1l-.79-.4Z" transform="translate(-182.33 -171.41)" style="fill:#fff"/><path d="M226.12,299.59,228,297.3l-.6,3.28,1.29,1.09,3.38-4.27-1.19-1L229,298.69l.6-3.28-1.29-1.09-3.47,4.27Z" transform="translate(-182.33 -171.41)" style="fill:#fff"/><path d="M232.37,304.55l.89-1.09-1.89-1.39,2.48-3.28-1.39-1-3.28,4.27Z" transform="translate(-182.33 -171.41)" style="fill:#fff"/><path d="M236.64,307.53l.79-1.19L235,304.75l.4-.6,2.18,1.39.69-1-2.08-1.49.3-.5,2.38,1.49.5-.6v3.28l-1,1.69,1.39.89,1-1.79,3.38-2.08-1.59-.89-1.79,1.29.2-2.18-1.29-.69-3.77-2.48-3,4.47Z" transform="translate(-182.33 -171.41)" style="fill:#fff"/><path d="M245.38,311.8l.69-2,2.08.7.4-1.19-2.08-.7.3-.69,2.38.89.4-1.29-3.87-1.39-1.89,5.06Z" transform="translate(-182.33 -171.41)" style="fill:#fff"/><path d="M248.85,310.11a2.63,2.63,0,0,0,2.18,3.28,2.73,2.73,0,0,0,3.28-2.28,2.63,2.63,0,0,0-2.18-3.28,2.71,2.71,0,0,0-3.28,2.28Zm1.59.4c.2-1.19.89-1.29,1.39-1.29s1,.5.79,1.69-.89,1.29-1.39,1.29S250.24,311.7,250.44,310.51Z" transform="translate(-182.33 -171.41)" style="fill:#fff"/><path d="M257.19,314.18A2.61,2.61,0,0,0,260,311.4a2.66,2.66,0,0,0-2.68-2.88,2.61,2.61,0,0,0-2.78,2.78A2.66,2.66,0,0,0,257.19,314.18Zm.1-4.37c.4,0,1.09.3,1.09,1.49s-.69,1.49-1.09,1.49-1.09-.3-1.09-1.49S256.8,309.81,257.29,309.81Z" transform="translate(-182.33 -171.41)" style="fill:#fff"/><path d="M261.46,309.71l.7,4.07,1.59-.3-.6-4,1.49-.3-.2-1.39-4.67.79L260,310Z" transform="translate(-182.33 -171.41)" style="fill:#fff"/><path d="M269.3,311.9a1.68,1.68,0,0,0,1.19-2.18,1.33,1.33,0,0,0-1.39-1,1,1,0,0,0,.3-1.19c-.2-.5-.7-1.19-2.09-.69l-2.78,1,1.79,5.06Zm-.4-1.79a.52.52,0,0,1-.4.69l-.89.3-.3-1,1-.4a.62.62,0,0,1,.6.4Zm-1.49-2c.3-.1.6-.1.69.2s-.1.5-.4.6l-.79.3-.3-.79Z" transform="translate(-182.33 -171.41)" style="fill:#fff"/><path d="M272.58,310.51l-.1-.79,1.49-.79.6.6,1.49-.79-4.27-3.87-1.49.79.79,5.76Zm-.69-3.77,1.19,1.29-.89.5Z" transform="translate(-182.33 -171.41)" style="fill:#fff"/><path d="M279.63,306.14l-.69-1.09-2.09,1.29L274.67,303l-1.39.89,3,4.57Z" transform="translate(-182.33 -171.41)" style="fill:#fff"/><path d="M283.3,303.46l-.79-1.19-1.89,1.49-2.48-3.28-1.29,1,3.28,4.37Z" transform="translate(-182.33 -171.41)" style="fill:#fff"/><path d="M287.37,300.38a2.32,2.32,0,0,0,.5-3.28l-1.29,1c.2.5.3.89-.1,1.29-.6.5-1.29,0-1.69-.5s-.69-1.29-.1-1.79a.87.87,0,0,1,1.19.1l1.29-1a2.25,2.25,0,0,0-3.28-.2,2.65,2.65,0,0,0-.4,4,2.7,2.7,0,0,0,3.87.4Z" transform="translate(-182.33 -171.41)" style="fill:#fff"/><path d="M292.74,296l-.89-1.09L290,296.41l-2.38-3.28-1.39,1,3.28,4.37Z" transform="translate(-182.33 -171.41)" style="fill:#fff"/><path d="M295,294.72c1.39-.89,1.79-1.89,1-3.18l-1.69-2.88-1.39.89,1.49,2.58c.3.5.6,1.09,0,1.49s-1.09-.2-1.29-.69l-1.49-2.58-1.39.89,1.69,2.88c.6,1.19,1.69,1.39,3.08.6Z" transform="translate(-182.33 -171.41)" style="fill:#fff"/><path d="M300.18,292.24a1.68,1.68,0,0,0,1.19-2.18,1.33,1.33,0,0,0-1.39-1,1,1,0,0,0,.3-1.19c-.2-.5-.79-1.19-2.08-.69l-2.78,1,1.79,5.06Zm-.4-1.79a.53.53,0,0,1-.4.69l-.89.3-.3-1,1-.4a.54.54,0,0,1,.6.4Zm-1.49-2c.3-.1.6-.1.7.2s-.1.5-.4.6l-.79.3-.3-.79Z" transform="translate(-182.33 -171.41)" style="fill:#fff"/><path d="M308.42,280.22l-.3-.3H308a16.64,16.64,0,0,0,2.08-10.33,3.8,3.8,0,0,0-1.19-2.08c-1.09-1-2.88-1.39-5.26-1.09-2.58.3-4.47,1.19-5.16,2.58l-.1.1a4.24,4.24,0,0,0-.4,2.28,24.18,24.18,0,0,0,.6,2.58,18.26,18.26,0,0,0-4.17.89c-1.29.5-2,1.09-2.18,1.89a.85.85,0,0,0,0,.69,49.2,49.2,0,0,0,.2,8.24,37.84,37.84,0,0,0-9.83,6.16c-13.7,12.71-24.62,13.11-25.91,13.11h-.1c-.1,0-11.52.2-25.91-13.11a42.55,42.55,0,0,0-9.43-5.66,44.85,44.85,0,0,0,.2-9.53,2.88,2.88,0,0,0-2.18-1.89,18.27,18.27,0,0,0-4.17-.89,12.14,12.14,0,0,0,.6-2.58,3.63,3.63,0,0,0-.4-2.28c0-.1-.1-.1-.1-.2-.79-1.39-2.58-2.38-5.16-2.58-2.38-.2-4.17.1-5.26,1.09a3.8,3.8,0,0,0-1.19,2.08,14.82,14.82,0,0,0,2.48,10,.31.31,0,0,0-.2.1.35.35,0,0,1-.2.1.78.78,0,0,0-.4.4,5.49,5.49,0,0,0-1,1.59c-.69,1.59-1.09,5,2,12l.1.2.2.1a55.46,55.46,0,0,1,17.77,9.53c6.45,5.06,14.2,10.52,22.44,12.91l.69.2a19.59,19.59,0,0,0,3.47.69l.79.1a1.08,1.08,0,0,1,.5.1h.4c1.29.1,2.58.2,3.87.2a13.32,13.32,0,0,0,2-.1,33.32,33.32,0,0,0,5.26-.7,16.39,16.39,0,0,0,2.58-.69c7.55-2.18,15.49-6.85,22.34-12.91,9-8,17.57-9.43,17.67-9.43h.3l.1-.3c2.48-6.65,2.78-10,2.48-11.72.1-.5-.5-1.19-.79-1.59Zm-9-10.92c.69-1.09,2.18-1.79,4.37-2,.4,0,.79-.1,1.19-.1a4.47,4.47,0,0,1,3.28,1,3.09,3.09,0,0,1,.89,1.49v.5c-.3,1.79-1.69,2.58-4.07,3l-.69-3.18-.5.1c-3.57,1-4.37.4-4.57.2s.1-1,.1-1Zm-.1,2.18c.89.4,2.38.3,4.37-.2l.5,2.18q-1.19.15-2.68.3h-.1a1.26,1.26,0,0,0-.6.1,1.69,1.69,0,0,0-.7.1h-.4a1.68,1.68,0,0,0-.2-.5c-.1-.3-.2-.69-.3-1.09a3.53,3.53,0,0,1-.2-1c.1,0,.2.1.3.1ZM293.23,277c.1-.5.69-.89,1.59-1.29a18.27,18.27,0,0,1,4.17-.89.89.89,0,0,0,.5-.1c.6-.1,1.09-.1,1.69-.2h.7a1.26,1.26,0,0,0,.6-.1,25.19,25.19,0,0,0,2.88-.4,7.9,7.9,0,0,0,2.18-.6,5.35,5.35,0,0,0,1.29-.69c.2-.2.5-.4.69-.6v.6a14.76,14.76,0,0,1-2,6.55,3.35,3.35,0,0,0-1.19-.4,33.31,33.31,0,0,0-6.25-.6c-1.69-.1-3.47-.1-4.77-.3a3.89,3.89,0,0,1-1.69-.5c-.4-.1-.4-.3-.4-.5Zm-.1,1.69v-.2a11.5,11.5,0,0,0,3.38.6c.69,0,1.39.1,2.18.1h1a45,45,0,0,1,6.06.5c.4.1.69.2,1,.3s.3.1.4.2c.5.3.5.5.5.5,0,.2-.2.5-.79.79a7.2,7.2,0,0,1-1.19.5,16.39,16.39,0,0,1-3.38.69,41.52,41.52,0,0,0-8.94,2.48c-.2-2.38-.2-5-.2-6.45Zm-78.24-7.45a4.37,4.37,0,0,1-.2,1c-.1.4-.2.69-.3,1.09-.1.2-.1.3-.2.5h-.4a1.69,1.69,0,0,1-.7-.1,1.26,1.26,0,0,1-.6-.1h-.1q-1.49-.15-2.68-.3l.5-2.18c2.08.5,3.47.6,4.37.2C214.8,271.39,214.9,271.39,214.9,271.29Zm-9.33-3.18c.89-.79,2.48-1.09,4.57-.89s3.77.89,4.37,2a1.32,1.32,0,0,1,.1,1.09c-.2.2-1,.79-4.57-.2l-.5-.1-.7,3.18c-2.38-.4-3.87-1.19-4.07-3v-.5A2.28,2.28,0,0,1,205.56,268.11Zm-.79,4.77c0-.2-.1-.4-.1-.6a2.64,2.64,0,0,0,.6.5,5.35,5.35,0,0,0,1.29.69,7.23,7.23,0,0,0,2.08.6,25.2,25.2,0,0,0,2.88.4,1.26,1.26,0,0,1,.6.1h.7a9.79,9.79,0,0,1,1.69.2.89.89,0,0,1,.5.1,18.27,18.27,0,0,1,4.17.89c.89.4,1.49.79,1.59,1.29a.66.66,0,0,1-.1.6,4.65,4.65,0,0,1-1.69.5c-1.29.2-3.08.2-4.77.3a33.33,33.33,0,0,0-6.25.6c-.3.1-.5.2-.79.3a16.76,16.76,0,0,1-2.38-6.45Zm1.49,8v-.2a2.17,2.17,0,0,1,.5-.4c.1-.1.3-.1.4-.2s.3-.1.5-.2a4.3,4.3,0,0,1,.5-.1,25,25,0,0,1,6.06-.5,7.51,7.51,0,0,0,1.49-.1c.79,0,1.49-.1,2.08-.1a9.13,9.13,0,0,0,3-.6v.2a48,48,0,0,1-.3,7.15,43,43,0,0,0-9.33-3,20.61,20.61,0,0,1-2.38-.6c-.2-.1-.4-.1-.6-.2C206.26,281.42,206.26,281,206.26,280.92Zm99.88,12.31c-1.59.3-9.43,2.18-17.87,9.63-6.75,6-14.59,10.52-22,12.71a23.11,23.11,0,0,1-2.48.6,29.55,29.55,0,0,1-5.06.69,27.94,27.94,0,0,1-5.76-.2h-.4a.6.6,0,0,1-.4-.1l-.79-.1a13,13,0,0,1-2.68-.6l-.6-.2c-8.34-2.28-16.18-7.84-22.74-12.91a61.81,61.81,0,0,0-17.87-9.63c-3-7.15-2.38-10.13-1.79-11.22,0-.1.1-.1.1-.2a2.74,2.74,0,0,0,.79.6,5.88,5.88,0,0,0,.79.4,32.61,32.61,0,0,0,3.77,1.09c2.18.5,4.17,1.09,6,1.69.69.3,1.39.5,2.08.79a14.05,14.05,0,0,1,1.79.79,42.36,42.36,0,0,1,9.33,5.56c14.59,13.5,26,13.4,26.51,13.4h.1c1.29,0,12.51-.4,26.51-13.3a35.19,35.19,0,0,1,9.33-6c.1-.1.3-.1.5-.2.5-.2,1-.4,1.59-.6a39,39,0,0,1,7.84-2.08,17.17,17.17,0,0,0,4.27-1.09,5.92,5.92,0,0,0,.79-.4,2.74,2.74,0,0,0,.79-.6c0,.1.1.2.1.3.1,1.19,0,4.37-2.48,11.12Z" transform="translate(-182.33 -171.41)" style="fill:#fff"/><path d="M255.9,281.81c.6-1.09-.4-2.09-.4-1.89s-.5.4-.5.4a6.08,6.08,0,0,1-1.89-.3c-4.37-.79-3,4.67-2.68,5.86.2.69-.3,2.28-2.78,2.08-1.89-.2-2,.79-2,.79.89-.7,1.49-.2,1.49-.2a1.65,1.65,0,0,0-1.29,1.19,1.54,1.54,0,0,1,1.89-.3c-.79.2-.79,1.29-.79,1.29.6-.79,1.19-.4,1.19-.4a1,1,0,0,0,1.49-.79c.1-.4.79.2.79.2a2,2,0,0,1,.2-1.19c.1-.2.89.6.89.6a1,1,0,0,0,.2-1c0-.2-.3-.89-.1-1.29.6-.79,1.39.6,1.39.6.2-1.09-.89-3.18-1-3.28-.5-.6-.7-2,1.49-.3a1.83,1.83,0,0,0,1.79.3A3.42,3.42,0,0,1,255.9,281.81Z" transform="translate(-182.33 -171.41)" style="fill:#fff"/><path d="M253.12,269.7a1.07,1.07,0,0,1,0,1.19s1.19.3,1.79-.3a2.15,2.15,0,0,0,.2,1.69s.89-.5,1.09-1.09c0,0,.4.1.7.79s.6.79.6.79,0-1,.69-1.19a1.78,1.78,0,0,0,1.89.6s-1.79-1,0-1.39c0,0-1.29-.4-1.19-1a2.09,2.09,0,0,1-2.18.79,1.25,1.25,0,0,0,.2-1.09,2.59,2.59,0,0,1-2.18.2s0-1.09.69-1.49c0,0-1.59-.2-2.08.3a1.31,1.31,0,0,1,.2-1.29s-1.49.5-1.89,2.88c-.1.1,1,.2,1.49-.4Z" transform="translate(-182.33 -171.41)" style="fill:#fff"/><path d="M243.29,275.66s-1.39,1.09-.3,2.28c0,0,.1-1.49,1-1.09,0,0-1.49,1.09,0,2,0,0-.1-1.49,1.09-1.19.69.2,1.19-.69,1.19-.69a1,1,0,0,1,1.29.2,2.6,2.6,0,0,0,1.29,1s-.5-.7,0-1c0,0,.79.79,1.39.79,0,0-.7-.79,0-.89a.52.52,0,0,1,.5.4c.1.5,1.29.7,1.39.7s-.69-.6-.3-1.19v-.1c.4-.6.79-.4.79-.4,1.49-.4,1.39-2,1.39-2.38a.21.21,0,0,1,.2.2c.2.5.3,1.69-1.39,2.68,0,0,.1,1.39,2.38,2.38,0,0-.3-1.79,1.09.79a2.19,2.19,0,0,1-.1,2c-.5,1-1.09,2.68.79,3.77s3.08,2.48,2.18,5.86a1.65,1.65,0,0,1-1.79.89c-1.19-.3-1.69-.79-2.68.5,0,0,1.19-.6,1.89.2,0,0-1.39-.4-1.89,1.39,0,0,1.39-.79,2-.2a1.15,1.15,0,0,0-.79,1.19s.79-.6,1.39-.3c1,.4,1.19-.2,1.49-.69s1,.2,2,0c0,0-1.39-1.09-.6-1.59.5-.3,1.39.3,1.79-.2,0,0-1.79-.69-.89-1.89.4-.5,1.09.1,1.49-.2,0,0-1.19-.4-1-1.49.1-.7.4-.6.6-.5a1.15,1.15,0,0,0,1,0,.82.82,0,0,1-.6-.69c-.1-.6,0-1.39-.69-1.89-.4-.3-.7-.3-.7-1.29,0-1.19.5-1.29.79-1.39a2.72,2.72,0,0,0,1.39-.4,3.77,3.77,0,0,0,1.19-4.86c-1.39-3.28-2.08-3.47-1.89-6.06a8.85,8.85,0,0,1,1.39-4.67,3,3,0,0,1,1.89-1.29s1.49-.3,1.29,1.49c0,0,0,.5-.89,1.19a4.5,4.5,0,0,0-1.19,1.59s1-.7,1.19-.5.1.5-.3,1a3.09,3.09,0,0,0-.79,2.18s.3-.5.7-.5c0,0-.2,1.59.79,2.18a4.52,4.52,0,0,1,.4-2.78c.5-.7,1.69-3,1-4.57,0,0,0-2.08-1.29-2.28,0,0,.2.4.1.3s-4.07-.4-4.86,5.86a9.61,9.61,0,0,1-.2,1.19s-.1,1.59-1.09.4a2.38,2.38,0,0,0,1.19,2.08c1.29.89-1.19.79-1.69-.1a1.92,1.92,0,0,0,1.29,1.59c1.29.5,1.09,1.19-1,.7a2.69,2.69,0,0,0,2.28.89c1.69,0,1.79,2.58,1.19,3.18-.89.79-1.39.69-1.79.6a1.19,1.19,0,0,0-.7,0,5,5,0,0,1-1.19-1.89c-.1-.69-1.49-1.89-1.49-1.89a4,4,0,0,1-.5-3,10.17,10.17,0,0,0,.3-2.88,1.25,1.25,0,0,1-.69-.4,4.87,4.87,0,0,0-.3,1.29,2.16,2.16,0,0,1-1.39-1c-.3-.79-.6-.6-.6-.6a3.06,3.06,0,0,1-1.29,1s-.3-.1-.3-.89V271a3.34,3.34,0,0,1-1.79,0,1,1,0,0,0,0-.79,2.21,2.21,0,0,1-1.49.1,3.3,3.3,0,0,1,.69-2.28s.1-.4-.4-1.29-1.29-2.58-.6-3.77a1.67,1.67,0,0,0-.4-2.28,1.79,1.79,0,0,0-1.89-.1s1.19-.1,1.19.89a1.59,1.59,0,0,0-2.38,0s1.49-.2,1.19,1c0,0-1.09-1.49-2.18.3,0,0,1.49-.2,1.49,1.09-.1.89,1.09,1.19,1.09,1.19s.3,2.58-1.19,2.48c0,0,.89.6,1.29.5,0,0,.1,1-.79,1.09a1.85,1.85,0,0,0,1.19.5s.1.3-.3.5-.5,1.09-.5,1.19a1.21,1.21,0,0,1,1.29,0,2.62,2.62,0,0,0,2,0,1,1,0,0,1,.4-.1,5.84,5.84,0,0,0-.4.6c-.3.4-.7.89-1.09,1.39a4.72,4.72,0,0,1-5.76.89,2.51,2.51,0,0,0-2.38.1,1.26,1.26,0,0,0-.2,1.79c.2.6.2-.5,1.09-.3Z" transform="translate(-182.33 -171.41)" style="fill:#fff"/><path d="M256.3,268a1.3,1.3,0,0,0-.79,1.29c1.39-.1,1.69-.69,1.69-.69.79.2.3,1.29.2,1.39h.2a2.35,2.35,0,0,0,1.49-1.09c0,.2.2,1.49,2.18,1.39,0,0-1.29-.6-1-1.39v-.1c.79.79,1.89-.2,1.89-.2-1.09,0-1.19-.6-1.19-.89,1.29.79,2-.5,1.79-.7,0,0-2.28.89-.4-3.18.2-.5.89-1.29.2-2s-1-1.89-.2-2.48a2.27,2.27,0,0,0-2.08.4,1.24,1.24,0,0,1-1.09.2,2.47,2.47,0,0,0-1.89-.1,1.75,1.75,0,0,0-1,.89c-.5-.2-1.39.4-1.49.4s0,.4-.1.6-.2.89.69.89a8,8,0,0,0,1.49-.3,1.42,1.42,0,0,1,.3.7c.1.6.4,1.49-.79,1.59l.3.3c.3.2,1.29.2,1.39-.4a1,1,0,0,1,.5-.6s.5,1.39-1.49,1.59-3.18.89-3.57,2.38C255.9,267.32,256.3,268,256.3,268Zm1.89-6.85c-.4.3-.79.2-1.29-.3.5-.6,1.19-.79,2.18-.1A2.51,2.51,0,0,0,258.18,261.16Z" transform="translate(-182.33 -171.41)" style="fill:#fff"/><path d="M236.94,247.56l-3.18-5.36-3.28,5.46,3.28,6.16Z" transform="translate(-182.33 -171.41)" style="fill:#fff"/><path d="M283,247.56l-3.28-5.36-3.28,5.46,3.38,6.16Z" transform="translate(-182.33 -171.41)" style="fill:#fff"/><path d="M256.1,301.08h.4c18.67-3.67,33.46-20.45,33.66-38.22v-44H274.37a2.83,2.83,0,0,0,1.79-2.58,2.78,2.78,0,0,0-2.78-2.78H269.5a2.27,2.27,0,0,1-1.89-1.79c-1.89,2-3.77-1.09-3.77-1.09l-3.28,1.09-.79-1.49a6.35,6.35,0,0,1,1.39-2,4.8,4.8,0,0,1,1.19-.89,6.47,6.47,0,0,1-.6-2,11.52,11.52,0,0,1,1.49-.7l.89-.3h.5l-.4-.4c.1,0,.3.2.4.2a1.41,1.41,0,0,0,.6.2c.2,0,.5,0,.4-.2.1,0,.3.1.4.1h.4c.1-.1.2-.1.3-.2s.2-.1.3-.2.1-.1.1-.2,0-.2-.1-.2c-.2-.2-.4-.2-.6-.3l-.69-.2c-.2-.1-.3-.1-.5-.2-.5-.2,0,0,.2,0h.5c.2,0,.3-.1.5-.1l.5-.2s-.5.2-1.59-.6a8.08,8.08,0,0,1-.89-1,17.86,17.86,0,0,0-1.89-2,11.14,11.14,0,0,0-2.18-1.59,4.78,4.78,0,0,0-2.38-.69h-.1a7.52,7.52,0,0,1,.7-3.67,3.38,3.38,0,0,0,.1-3.08,2.72,2.72,0,0,0-1.69-1.29,3.86,3.86,0,0,0-2.68.79l-1.19.6a12.65,12.65,0,0,1,4.27-2.88V187a6.81,6.81,0,0,0-2.88.79,3.42,3.42,0,0,0,.2-2.18v-.1h-.1s-2.58.6-2.58,4.17a3.84,3.84,0,0,1-.2,1.09,1.19,1.19,0,0,0-.4.4.36.36,0,0,1,.3-.1,2.49,2.49,0,0,1-.4.69,6.21,6.21,0,0,0-1.09,3.38v.1l.1-.1a3.22,3.22,0,0,0,1.19-1.59,3.58,3.58,0,0,1,.5-.89,10.31,10.31,0,0,1,.2,1.49v.1h.1a2.38,2.38,0,0,0,.2-2.78,1.93,1.93,0,0,1-.1-.79,3.56,3.56,0,0,1,2.58.4,1.78,1.78,0,0,1,.5.69,2.44,2.44,0,0,1-.3,2,12.64,12.64,0,0,1-1,1.69,5.66,5.66,0,0,0-1.19,4.17,4.67,4.67,0,0,0,2.68,3.77,6.18,6.18,0,0,1,1,1.69c.3.6,0,.5,0,.5-1.69.1-2.28-.79-3.47-1.29a2.9,2.9,0,0,0-.89-.2,3.83,3.83,0,0,0-2.58,0c-1.69.5-2.78,1.89-2.38,3.08a1.46,1.46,0,0,0,.89,1,3.32,3.32,0,0,0,1.49.3,7.8,7.8,0,0,0,1.39-.2,3.45,3.45,0,0,0,2.48-2.48c.6.2,2.28,1.49,3.57,2s1.89-1,1.89-1c.4.69-.6,3-1.19,4.27l-.6.4-.3-1.49-1.39,1.89a12.31,12.31,0,0,1-2-2c-.2,1.89-.79,2.38-1,2.48l-3.28-2.18a2.54,2.54,0,0,1-2.28,2.38l-2.18-1.09a1.53,1.53,0,0,1-1.49,1.89h-3.77a2.78,2.78,0,0,0-2.78,2.78,2.69,2.69,0,0,0,1.79,2.58H222.44v44c.2,18,15,34.75,33.66,38.42Zm15-86.38h.1a4.79,4.79,0,0,1,3,.2c.6.3.79.69.69,1.09-.1.79-1.19,1.69-1.29,1.19a2.44,2.44,0,0,0-1.39-1.59S270.6,214.8,271.09,214.7Zm2.68,11.72c0-.1.1-.3.1-.4-.6-1.09-1.09-2-1.29-2.28l-.2-.2c-.3-.4-.5-.6-.3-.7s.3,0,.5,0a4.87,4.87,0,0,1,1.49,1.79c.1.1.1.2.2.4.5-1.09,1.09-1.79,1.79-1.79s1.29.7,1.79,1.79a2.17,2.17,0,0,1,.3-.5,4.87,4.87,0,0,1,1.49-1.79.33.33,0,0,1,.5,0c.1.2,0,.3-.3.69l-.2.2a12.36,12.36,0,0,0-1.39,2.38.76.76,0,0,1,.2.3c3.18-.6,5.66-.5,5.86.3.2.6-1.59,1.49-3.18,2.38,1.59.89,3.38,1.79,3.18,2.38-.3.89-2.58,1-5.76.4l-.1.7v.2l.2.3a14.09,14.09,0,0,0,1.49,2.18c.2.2.1.3.1.3s-.1.1-.2.1a3.91,3.91,0,0,1-.6-.2,6.6,6.6,0,0,1-1.19-1.69c-.1.2-.1.5-.2.7-.5,1.29-1.09,2-1.89,2s-1.59-1-2-2.58a5.49,5.49,0,0,1-1.09,1.59,1,1,0,0,1-.6.2c-.1,0-.1,0-.2-.1a.22.22,0,0,1,.1-.3,13.58,13.58,0,0,0,1.49-2.28.44.44,0,0,0,.1-.3s-.1-.69-.1-.89c-3.08.6-5.46.5-5.66-.4-.2-.6,1.39-1.59,3.08-2.48-.5-.2-.89-.5-1.29-.7-1.09-.6-1.89-1.19-1.79-1.59C268.11,225.92,270.5,225.82,273.77,226.41ZM255.6,189.58s.4-.6,1.49,0C257.09,189.58,256.7,190.37,255.6,189.58Zm.6,8c0,3.67,3.38,5,3.47,5.06a.75.75,0,0,1-.2-.4,6.07,6.07,0,0,0,1.19.5c.2.1.4.1.6.2h.1a.75.75,0,0,1-.2-.4,1.6,1.6,0,0,0,.89.3.6.6,0,0,0,.4-.1l.2-.1c.1,0,.2-.1.3-.1s-.1.2-.1.3l-.2.2a1.41,1.41,0,0,1-.6.2.36.36,0,0,1-.3-.1.74.74,0,0,1-.5.1,1.69,1.69,0,0,1-.7-.1c-.2-.1-.3-.1-.5-.2a4.21,4.21,0,0,1-3.87-5.36Zm1.59,16c3-1.09,6.65.5,6.65.5a9,9,0,0,1,2.48,1.49l.4.4a3.83,3.83,0,0,0,1.69,1.09c.5.1-.4,1.09-1.79.4-.1-.1-.3-.2-.5-.4a4.6,4.6,0,0,0-2.58-1.09c-1.29-.1-1,.69-1,.69.69,1.39-1.09,1-2,0a10.2,10.2,0,0,0-3.47-2.38C256.8,214,257.39,213.71,257.79,213.61Zm.5,20.85c.1.1.4.7-.1,1.89a5,5,0,0,1-3.87.1,14.68,14.68,0,0,0-.1-2c-.1-.3-1-.89-1-.89s-.89-5.56-.2-7.74c0,0,0-1.79.6-2,.4-.1.3,1.89.3,1.89V228c-.79.6-.2.69-.2.69a17.76,17.76,0,0,1,4.37-.4h.2c.4.1.4.3.4.3s.1.5-1.69.79c0,0-1,.2-1.19.6a3.2,3.2,0,0,0,.2,2.48s.3-.1.2-.5,0-1.39.3-1.59,2.88-.6,2.88-1.29a4.09,4.09,0,0,1,.3-2.48c.5-.89,1.09.3,1,1.89,0,0-.1,2.48-.1,3a2.43,2.43,0,0,1-2,2.38s-.6.2-.7.5c-.1,0,.3,0,.4.1Zm-2.68-7.74a2.49,2.49,0,0,1-.1,1c-.4,0-.69.1-1,.1a10.82,10.82,0,0,1-.2-2l.1-1.89c0-.1,0-1.19.6-1.19s.5,1.29.5,1.29S255.5,225.42,255.6,226.71Zm2.28-1.69c0-.89,0-2.08.6-2.08.4,0,.4.79.4,1.29v2.08a3.9,3.9,0,0,0-.3,1.39,1.47,1.47,0,0,0-.7-.1,21.5,21.5,0,0,1,0-2.58Zm-1.29-3h.1c.79.2.7,4.86.5,5.46a2.75,2.75,0,0,0-.89.1,1.47,1.47,0,0,1-.1-.7c0-.5,0-3.57.1-4.27-.1-.5.2-.6.3-.6Zm-9.53-8c2.68-1,6,.5,6,.5,2.68,1.19,3.08,2.48,3.08,2.48s.4,1.39-1.09.3a2.76,2.76,0,0,0-2.08-.69c-.89,0-1.09,2.18-3,.3a12,12,0,0,0-3.18-2.18C246.07,214.3,246.67,214.2,247.07,214Zm-7.55.89a2.42,2.42,0,0,1,3.28.6c1.29,1.89,3,2.18,2.18,2.28a4.73,4.73,0,0,1-2.68-1c-.89-.79-2.28-.2-1.29.6.1.1-.1.2-.3.2-1.89,0-2.48-1.79-1.19-2.68Zm-10.23,11.91c.3-.89,2.68-1,6-.3,0-.1.1-.3.1-.4-.6-1.09-1.09-2-1.29-2.28l-.2-.2c-.3-.4-.5-.6-.3-.69s.3,0,.5,0a4.87,4.87,0,0,1,1.49,1.79c.1.1.1.2.2.4.5-1.09,1.09-1.79,1.79-1.79s1.29.69,1.79,1.79a2.17,2.17,0,0,1,.3-.5,4.87,4.87,0,0,1,1.49-1.79.33.33,0,0,1,.5,0c.1.2,0,.3-.3.7l-.2.2a12.37,12.37,0,0,0-1.39,2.38.76.76,0,0,1,.2.3c3.18-.6,5.66-.5,5.86.3.2.6-1.59,1.49-3.18,2.38,1.59.89,3.38,1.79,3.18,2.38-.3.89-2.58,1-5.76.4l-.1.69v.2l.2.3a14.1,14.1,0,0,0,1.49,2.18c.2.2.1.3.1.3s-.1.1-.2.1a3.89,3.89,0,0,1-.6-.2,6.59,6.59,0,0,1-1.19-1.69c-.1.2-.1.5-.2.69-.5,1.29-1.09,2-1.89,2s-1.59-1-2-2.58a5.48,5.48,0,0,1-1.09,1.59,1,1,0,0,1-.6.2c-.1,0-.1,0-.2-.1a.22.22,0,0,1,.1-.3,13.58,13.58,0,0,0,1.49-2.28.43.43,0,0,0,.1-.3s-.1-.7-.1-.89c-3.08.6-5.46.5-5.66-.4-.2-.6,1.39-1.59,3.08-2.48-.5-.2-.89-.5-1.29-.69-1.49-.4-2.38-1-2.18-1.39Zm-3.77,41.9c-.1-.3-.1-.69-.2-1a.89.89,0,0,0-.1-.5c-.1-.4-.1-.79-.2-1.19v-.3c0-.4-.1-.89-.1-1.29v-.1a7.51,7.51,0,0,0-.1-1.49V239.22h62.95v25.32c0,.4-.1.79-.1,1.19a.9.9,0,0,1-.1.5c0,.3-.1.6-.1.79a4.37,4.37,0,0,1-.2,1c0,.2-.1.3-.1.5a9.3,9.3,0,0,1-.4,1.59h-1.69v-4.86h-4.47v-4h-4.27V256.6h-3.87v-4.17h-4.17v-3.57h-4.37l-.1-4.67h-4.37l-2.68-3.57-2.28,3.57h-4.86v4.37h-5.16v4.17H240v4h-4.37v4.47h-4.47V265H228v4.07h-2.18c-.2-.1-.2-.2-.3-.4Zm6.25,13.8c-.1-.1-.1-.2-.2-.3a5.51,5.51,0,0,0-.6-.79.1.1,0,0,0-.1-.1c-.6-.89-1.19-1.89-1.69-2.78,0-.1-.1-.1-.1-.2-.5-1-1-2-1.49-3.08h4.07v-4.37h4.17v-4.47h4.77V262H245v-4.37h4.67v-4.47h4.47V249h5v4.37h4v4.37h4.27v4.37h4.37v4.27H276v4.57h5.46V276h3.47c-.2.3-.3.69-.5,1v.1a26.72,26.72,0,0,1-1.59,2.88.1.1,0,0,1-.1.1l-.6.89c-.6.89-1.29,1.89-1.89,2.68l-.2.2-2,2.38c-.1.1-.1.2-.2.2-.2.2-.4.5-.6.69l-.3.3c-.7.7-1.39,1.29-2.09,2-.2.1-.3.3-.5.4s-.4.3-.6.5a2.16,2.16,0,0,0-.5.4c-.3.2-.5.4-.79.6s-.5.4-.79.6a2.17,2.17,0,0,0-.5.4c-.2.2-.5.3-.69.5a2.17,2.17,0,0,0-.5.3c-.3.2-.69.4-1,.6s-.3.2-.5.3a3.11,3.11,0,0,1-1,.5c-.2.1-.3.2-.5.3s-.6.3-.89.5c-.1.1-.3.1-.4.2-.4.2-.89.4-1.29.6a.36.36,0,0,1-.3.1c-.3.1-.7.3-1,.4-.1.1-.3.1-.4.2-.4.1-.69.3-1.09.4-.1,0-.2.1-.3.1-.5.2-.89.3-1.39.5-.1,0-.3.1-.4.1l-1.09.3c-.1,0-.3.1-.4.1l-1.49.3-1.49-.3c-.1,0-.3-.1-.4-.1l-1.09-.3c-.1,0-.3-.1-.4-.1a7.79,7.79,0,0,1-1.39-.5c-.1,0-.1,0-.2-.1a6.07,6.07,0,0,1-1.19-.5c-.1-.1-.3-.1-.4-.2-.3-.1-.7-.3-1-.4-.1-.1-.3-.1-.4-.2-.4-.2-.89-.4-1.29-.6-.1-.1-.2-.1-.3-.2-.3-.2-.69-.3-1-.5s-.3-.2-.5-.3a5.55,5.55,0,0,1-.79-.5c-.2-.1-.3-.2-.5-.3-.4-.2-.79-.5-1.19-.69-.2-.1-.3-.2-.5-.3s-.5-.3-.69-.5c-.57-.47-1.15-.81-1.69-1.29-2.86-2.64-6.38-5.27-8.44-8.14Z" transform="translate(-182.33 -171.41)" style="fill:#fff"/><path d="M239,232.27a2,2,0,0,1,.1-.5c-.6-.1-1.09-.3-1.69-.4a11.53,11.53,0,0,1-1.79.4,1.33,1.33,0,0,0,.1.5A5.36,5.36,0,0,0,239,232.27Z" transform="translate(-182.33 -171.41)" style="fill:#fff"/><path d="M238.63,225.92c0-.1,0-.2-.1-.2-.3-1-.79-1.39-1.19-1.39s-.89.4-1.19,1.39c0,.1-.1.2-.1.3A3.35,3.35,0,0,1,238.63,225.92Z" transform="translate(-182.33 -171.41)" style="fill:#fff"/><path d="M235.75,232.77c.1.6.1.6.3.89a4.32,4.32,0,0,0,2.68,0,2.37,2.37,0,0,0,.2-.89,5.21,5.21,0,0,1-1.69.2,4.83,4.83,0,0,1-1.49-.2Z" transform="translate(-182.33 -171.41)" style="fill:#fff"/><path d="M274.77,234.26a2.13,2.13,0,0,0,.4.69,2.19,2.19,0,0,0,1.59,0c.2-.2.2-.4.4-.79a5.24,5.24,0,0,1-1.19.1,2.34,2.34,0,0,1-1.19,0Z" transform="translate(-182.33 -171.41)" style="fill:#fff"/><path d="M236.24,234.26a2.13,2.13,0,0,0,.4.69,2.19,2.19,0,0,0,1.59,0c.2-.2.2-.4.4-.79a5.24,5.24,0,0,1-1.19.1,2.34,2.34,0,0,1-1.19,0Z" transform="translate(-182.33 -171.41)" style="fill:#fff"/><path d="M277.55,232.27a2,2,0,0,1,.1-.5c-.6-.1-1.09-.3-1.69-.4a11.53,11.53,0,0,1-1.79.4,1.33,1.33,0,0,0,.1.5A5.36,5.36,0,0,0,277.55,232.27Z" transform="translate(-182.33 -171.41)" style="fill:#fff"/><path d="M274.27,232.77c.1.6.1.6.3.89a4.32,4.32,0,0,0,2.68,0,2.37,2.37,0,0,0,.2-.89,5.21,5.21,0,0,1-1.69.2,6,6,0,0,1-1.49-.2Z" transform="translate(-182.33 -171.41)" style="fill:#fff"/><path d="M277.15,225.92c0-.1,0-.2-.1-.2-.3-1-.79-1.39-1.19-1.39s-.89.4-1.19,1.39c0,.1-.1.2-.1.3a3.34,3.34,0,0,1,2.58-.1Z" transform="translate(-182.33 -171.41)" style="fill:#fff"/></svg>