<?xml version="1.0" encoding="UTF-8"?><svg id="Layer_1" xmlns="http://www.w3.org/2000/svg" viewBox="0 0 174.21 174.21"><defs><style>.cls-1{fill:#153d8a;}.cls-2{fill:#737db7;}.cls-3{fill:#fff;}.cls-4{fill:#e30613;}.cls-5{fill:#dea600;}.cls-6{fill:#dadada;}</style></defs><path class="cls-5" d="M174.21,87.11c0,48.09-39,87.11-87.09,87.11S0,135.2,0,87.11,39,0,87.12,0s87.09,39,87.09,87.11"/><path class="cls-1" d="M171.3,87.11c0,46.5-37.69,84.2-84.19,84.2S2.91,133.61,2.91,87.11,40.6,2.91,87.12,2.91s84.19,37.7,84.19,84.2"/><path class="cls-5" d="M147.11,87.11c0,33.14-26.86,60-59.99,60s-60-26.86-60-60,26.85-60.01,60-60.01,59.99,26.86,59.99,60.01"/><path class="cls-3" d="M145.29,87.11c0,32.14-26.04,58.18-58.17,58.18s-58.2-26.05-58.2-58.18,26.05-58.19,58.2-58.19,58.17,26.05,58.17,58.19"/><path class="cls-5" d="M37.25,137.32c.65.61,2.22,2.11,2.22,2.11l1.52-1.59-4.53-4.33-.58.61-6.08,6.39,2.31,2.19s1.95-2.05,2.66-2.8c.6.58,2.03,1.94,2.03,1.94l1.52-1.6s-1.43-1.37-2.03-1.93c.38-.4.58-.61.96-1"/><path class="cls-5" d="M48.18,144.59c-.2-1.23-.89-2.3-1.93-3.05-1.03-.74-2.27-1.02-3.5-.82-1.31.22-2.5.99-3.33,2.15-.83,1.18-1.17,2.54-.94,3.87.2,1.21.89,2.28,1.93,3.02,1.03.74,2.27,1.03,3.51.83,1.31-.22,2.5-.99,3.33-2.16.66-.93,1.02-1.99,1.02-3.06,0-.26-.03-.53-.07-.79M41.67,147.98c-1.06-.75-.18-2.31.44-3.18.61-.87,1.81-2.21,2.86-1.46,1.11.79.08,2.5-.42,3.2-.5.69-1.76,2.23-2.88,1.44"/><path class="cls-5" d="M55.29,147.01c-2.43-1.23-5.24-.22-6.54,2.34-.65,1.28-.77,2.69-.35,3.96.38,1.18,1.22,2.14,2.36,2.71,1.13.57,2.41.67,3.59.29,1.27-.43,2.33-1.36,2.97-2.63,1.3-2.57.43-5.43-2.02-6.67M52.6,154.15c-.28.08-.56.06-.87-.1-.48-.25-.65-.69-.65-1.17,0-.69.33-1.48.61-2.04.48-.94,1.45-2.44,2.61-1.87.3.16.49.36.59.65.19.58,0,1.54-.53,2.57-.52,1.03-1.18,1.76-1.76,1.96"/><path class="cls-5" d="M60.33,150.54l-.45,1.29s1.14.4,1.49.52c-.44,1.25-2.46,7.02-2.46,7.02l3.01,1.06s2.03-5.77,2.46-7.02c.35.11,1.5.51,1.5.51l.72-2.08-6-2.1-.28.8Z"/><path class="cls-5" d="M72.8,153.32l-4.06-.86-.18.83-1.81,8.62,4.13.87c1.33.27,2.2-.04,2.69-.37.64-.41,1.07-1.08,1.24-1.89.04-.21.07-.43.07-.64,0-.58-.19-1.11-.52-1.55.46-.37.79-.89.94-1.55.03-.17.06-.36.06-.55,0-1.1-.63-2.5-2.56-2.91M71.69,159.91c-.04.19-.12.45-.28.55-.13.09-.4.1-.74.03,0,0-.16-.03-.35-.07.13-.62.22-1.03.35-1.65.18.03.4.07.4.07.53.12.64.51.64.79,0,.12-.01.21-.03.27M71.41,155.29c.36.08.61.21.72.36.05.07.07.16.07.29,0,.07-.01.15-.03.25-.06.26-.13.6-.83.46,0,0-.09-.02-.21-.04.11-.52.17-.78.28-1.31"/><path class="cls-5" d="M80.3,154.73l-4.42,9.03,2.52.19s.69-1.44.96-2.01c.52.04,1.07.09,1.59.12.19.6.68,2.13.68,2.13l3.35.26-3.75-11.61-.94,1.89Z"/><path class="cls-5" d="M90.24,161.94c-.05-1.32-.31-7.33-.31-7.33l-.84.03-2.35.09.41,9.65,6.37-.27-.09-2.31s-2.28.09-3.19.13"/><path class="cls-5" d="M98.97,161.02c-.21-1.31-1.14-7.26-1.14-7.26l-.83.14-2.31.36,1.49,9.54,6.3-.99-.35-2.3s-2.26.36-3.16.51"/><path class="cls-5" d="M117.23,154.59c-.02.83-.51,1.54-1.27,1.85-.43.16-.82.16-1.22,0-.63-.26-1.2-.94-1.55-1.8-.4-1.02-.48-1.88-.22-2.48.18-.44.54-.75,1.08-.97.59-.23,1.17-.01,1.93.44l.7.41,1.18-1.85-.7-.46c-1.29-.84-2.86-1.01-4.23-.46-1.28.5-2.27,1.45-2.79,2.67-.53,1.24-.53,2.64,0,3.98,1.01,2.53,3.88,3.78,6.38,2.77,1.81-.72,2.83-2.1,2.97-3.97l.06-.84-2.31-.17-.03.88Z"/><path class="cls-5" d="M124.66,151.96c-.65-1.16-3.58-6.41-3.58-6.41l-.74.42-2.05,1.15,4.71,8.43,5.57-3.12-1.13-2.03s-1.99,1.12-2.79,1.57"/><path class="cls-5" d="M130.86,138.97l-.68.5-1.19.87,3.91,5.33c.17.25.18.4.16.49-.04.28-.33.58-.58.76-.12.09-.4.2-.68.16-.2-.03-.36-.14-.51-.33l-3.86-5.27-2.57,1.89,3.84,5.25c.58.77,1.28,1.23,2.11,1.36.93.14,1.98-.18,2.96-.9,2.01-1.47,1.99-3.43,1.11-4.63l-4.02-5.48Z"/><path class="cls-5" d="M142.6,137.03c-.6-.62-1.33-.9-2.1-.85-.05-.59-.27-1.17-.73-1.64-.81-.84-2.61-1.48-4.26.13l-2.98,2.88,6.72,6.93,3.03-2.94c.97-.94,1.19-1.85,1.2-2.44.01-.75-.3-1.49-.86-2.07M137.52,136.8c.1.1.21.22.21.4,0,.14-.07.32-.3.54,0,0-.06.07-.15.15-.38-.39-.56-.57-.94-.97.68-.62.96-.35,1.18-.12M139.11,139.18c.54-.52,1.07-.06,1.22.09.14.14.31.35.31.53h0c0,.17-.14.4-.39.63,0,0-.12.11-.25.24-.44-.45-.73-.75-1.17-1.21.13-.13.29-.3.29-.3"/><path class="cls-3" d="M37.23,136.42c.26.25,2.22,2.12,2.22,2.12l.64-.68-3.61-3.45-.15.16-5.64,5.91,1.4,1.32s2.4-2.52,2.66-2.79c.27.26,2.03,1.94,2.03,1.94l.65-.68s-1.76-1.69-2.03-1.93c.24-.25,1.6-1.68,1.83-1.92"/><path class="cls-3" d="M45.88,142.06c-.9-.64-1.97-.89-3.02-.72-1.16.2-2.19.87-2.92,1.9-.74,1.03-1.03,2.23-.83,3.38.17,1.06.77,1.98,1.67,2.62.9.64,1.97.89,3.03.72,1.16-.19,2.2-.87,2.93-1.9.58-.83.89-1.75.89-2.69,0-.23-.02-.46-.05-.69-.18-1.05-.78-1.99-1.68-2.63M45.06,146.9c-.6.85-2.18,2.71-3.76,1.59-1.56-1.11-.32-3.21.29-4.06.61-.85,2.18-2.71,3.74-1.6,1.57,1.13.33,3.22-.27,4.07"/><path class="cls-3" d="M55.01,147.56c-2.12-1.06-4.57-.17-5.7,2.08-.57,1.13-.69,2.36-.32,3.48.33,1.01,1.06,1.84,2.04,2.33.99.51,2.09.59,3.11.26,1.11-.36,2.03-1.19,2.6-2.31,1.14-2.25.39-4.75-1.73-5.84M51.45,154.61c-1.71-.86-.8-3.12-.33-4.06.47-.93,1.76-3,3.47-2.14.45.23.76.57.9,1.01.34,1.03-.21,2.35-.56,3.05-.36.7-1.1,1.93-2.13,2.26-.44.15-.89.1-1.34-.13"/><path class="cls-3" d="M60.92,150.75l-.24.68s1.19.43,1.5.53c-.14.38-2.47,7.03-2.47,7.03l1.81.64s2.33-6.65,2.47-7.03c.3.11,1.49.52,1.49.52l.31-.88-4.81-1.69-.07.21Z"/><path class="cls-3" d="M72.68,153.94l-3.44-.72-.04.2-1.69,8,3.52.74c.89.19,1.63.1,2.21-.28.5-.32.83-.84.97-1.49.03-.17.05-.35.05-.51,0-.71-.35-1.29-.97-1.72.72-.2,1.24-.73,1.4-1.52.03-.12.05-.26.05-.42,0-.81-.42-1.94-2.05-2.29M71.47,154.65c.58.11.98.34,1.19.66.11.17.17.39.17.63,0,.13-.02.25-.05.38-.22,1.06-1.08,1.05-1.57.95,0,0-.53-.11-.84-.17.07-.33.48-2.23.54-2.57.22.06.56.13.56.13M71.21,158.22c.97.21,1.13.97,1.13,1.45,0,.2-.02.34-.02.36-.11.47-.29.78-.56.95-.28.19-.69.23-1.21.12,0,0-.63-.14-.96-.2.08-.33.54-2.55.61-2.89.29.07,1.02.22,1.02.22"/><path class="cls-3" d="M80.87,155l-4.01,8.21,1.15.08s.85-1.79.96-2.01c.24.02,2.21.16,2.45.18.07.24.69,2.14.69,2.14l1.99.15-2.97-9.21-.25.46ZM80.43,158.3c.19.62.56,1.81.69,2.2-.39-.03-1.3-.09-1.7-.13.18-.37.74-1.48,1.01-2.07"/><path class="cls-3" d="M89.64,162.6c-.02-.4-.31-7.33-.31-7.33h-.2s-1.71.07-1.71.07l.35,8.38,5.12-.22-.04-1.04s-2.83.12-3.2.13"/><path class="cls-3" d="M98.44,161.74c-.06-.4-1.14-7.25-1.14-7.25l-.21.03-1.68.26,1.29,8.29,5.06-.79-.17-1.04s-2.79.44-3.15.49"/><path class="cls-3" d="M117.87,154.61c-.04,1.09-.68,2.01-1.67,2.42-.58.24-1.15.23-1.72-.01-.77-.34-1.46-1.11-1.87-2.15-.47-1.18-.55-2.21-.23-2.96.26-.58.74-1.03,1.44-1.3.92-.38,1.76.04,2.48.47l.18.1.52-.81-.17-.11c-1.11-.73-2.47-.89-3.66-.42-1.12.45-1.98,1.29-2.44,2.34-.46,1.08-.46,2.32.01,3.5.89,2.2,3.39,3.29,5.57,2.42,1.6-.64,2.45-1.79,2.57-3.43v-.21s-1-.07-1-.07v.22Z"/><path class="cls-3" d="M124.42,152.83c-.2-.35-3.58-6.42-3.58-6.42l-.19.11-1.5.84,4.09,7.31,4.46-2.49-.51-.92s-2.47,1.39-2.79,1.57"/><path class="cls-3" d="M130.72,139.85l-.17.12-.69.5,3.54,4.81c.24.33.32.66.28.97-.09.57-.61,1.01-.83,1.18-.25.17-.71.33-1.14.26-.37-.05-.68-.25-.92-.58l-3.49-4.75-1.55,1.13,3.47,4.73c.46.64,1.03,1.01,1.68,1.11,1.04.16,2.01-.43,2.5-.79,1.67-1.21,1.69-2.76.97-3.74l-3.64-4.97Z"/><path class="cls-3" d="M142.14,137.47c-.65-.67-1.48-.82-2.34-.49.06-.21.1-.4.1-.62,0-.5-.19-.98-.59-1.39-.54-.56-1.94-1.24-3.37.15l-2.53,2.44,5.84,6.03,2.58-2.5c.65-.64.99-1.3,1-1.99.01-.59-.22-1.16-.69-1.63M138.37,137.21c0,.42-.28.77-.5.98,0,0-.39.38-.62.6-.23-.25-1.58-1.64-1.81-1.88.16-.15.41-.39.41-.39.79-.77,1.48-.82,2.12-.16.29.3.41.58.41.85M139.98,141.58c-.24-.25-1.82-1.89-2.06-2.13.21-.2.75-.72.75-.72,1.03-1,2.07.06,2.12.11.33.33.48.64.48.97h0c0,.36-.2.72-.59,1.09,0,0-.5.49-.7.69"/><path class="cls-5" d="M48.42,29.72l-3.53.95.4,1.26c.48,1.53.05,3.13-1.15,4.18-.66.58-1.43.84-2.27.78-1.28-.08-2.73-.91-3.87-2.21-1.36-1.54-2.01-3.03-1.93-4.29.05-.91.5-1.72,1.35-2.47.95-.83,2.15-.79,3.77-.47l1.2.24.77-3.37-1.2-.3c-2.61-.64-5.33-.01-7.28,1.69-3.8,3.33-4.11,8.76-.71,12.63,3.14,3.6,8.6,4,12.17.87,2.56-2.23,3.46-5.1,2.59-8.28l-.33-1.21Z"/><path class="cls-5" d="M57.97,12.06l-3.59,1.69s2,4.26,2.69,5.72c-1.02.48-2.02.95-3.05,1.44-.69-1.46-2.69-5.72-2.69-5.72l-4.74,2.23,7.21,15.3,4.74-2.24s-2.23-4.73-2.96-6.26c1.03-.48,2.02-.95,3.05-1.43.72,1.53,2.95,6.26,2.95,6.26l4.74-2.24-7.21-15.29-1.14.54Z"/><path class="cls-5" d="M74,21.54c-.23-1.14-.47-2.29-.69-3.43,1.46-.29,5.35-1.08,5.35-1.08l-.69-3.39s-3.89.79-5.35,1.09c-.21-1.06-.39-1.93-.6-2.96,1.52-.32,5.68-1.16,5.68-1.16l-.68-3.38-1.24.24-9.57,1.94,3.34,16.58,10.91-2.2-.69-3.4s-4.24.85-5.77,1.16"/><path class="cls-5" d="M89.47,6.82l-5.24-.11-.03,1.27-.33,15.64,11.01.23.08-3.65s-4.23-.1-5.77-.13c.04-2.07.28-13.24.28-13.24"/><path class="cls-5" d="M106.46,15.35c-1.36-1-1.76-1.4-1.62-1.95.07-.28.37-1.19,1.35-.94.59.15,1.17.46,1.43,1.73l.29,1.4,3.46-1.16-.22-1.09c-.42-2.15-2.23-3.96-4.5-4.53-1.63-.41-3.27-.19-4.61.61-1.23.74-2.1,1.9-2.44,3.28-.87,3.47,1.46,5.13,3.02,6.24,1.58,1.14,1.98,1.58,1.73,2.53-.07.3-.25.52-.53.69-.3.19-.7.26-1.03.17-.83-.21-1.19-.59-1.54-1.68l-.43-1.29-3.47,1.42.33,1.1c.65,2.15,2.21,3.5,4.76,4.14,2.86.72,6.32-.6,7.18-4.04.91-3.61-1.56-5.42-3.19-6.62"/><path class="cls-5" d="M118.97,24.37c1.33.67,4.87,2.46,4.87,2.46l1.57-3.1s-3.54-1.79-4.87-2.46c.48-.94.87-1.74,1.35-2.69,1.38.69,5.18,2.6,5.18,2.6l1.56-3.09-9.84-4.98-.58,1.14-7.06,13.96,9.94,5.01,1.56-3.1s-3.86-1.94-5.26-2.64c.52-1.04,1.06-2.1,1.58-3.14"/><path class="cls-5" d="M138.58,25.94l-15.77,8.17,3.01,2.62s2.61-1.39,3.55-1.88c.71.61,1.74,1.51,2.43,2.12-.34,1.01-1.3,3.84-1.3,3.84l4.16,3.61,6.73-19.89-2.82,1.41Z"/><path class="cls-3" d="M47.82,30.75l-1.85.51.13.42c.59,1.86.06,3.81-1.39,5.07-.83.74-1.81,1.06-2.89,1-1.52-.1-3.14-1.02-4.45-2.51-1.5-1.72-2.24-3.42-2.14-4.9.07-1.13.62-2.16,1.65-3.05,1.34-1.18,3.02-.95,4.49-.67l.4.08.4-1.76-.4-.11c-2.34-.57-4.77,0-6.51,1.51-3.44,3.01-3.71,7.93-.64,11.44,2.84,3.25,7.78,3.61,10.99.8,2.34-2.04,3.12-4.54,2.33-7.42l-.11-.41Z"/><path class="cls-3" d="M58.33,12.82l-2.83,1.34s2.38,5.05,2.7,5.71c-.6.29-3.96,1.87-4.58,2.16-.31-.67-2.69-5.72-2.69-5.72l-3.21,1.51,6.5,13.77,3.21-1.52s-2.63-5.58-2.95-6.26c.6-.29,3.96-1.87,4.57-2.15.32.68,2.96,6.27,2.96,6.27l3.21-1.52-6.49-13.76-.38.17Z"/><path class="cls-3" d="M73.34,22.54c-.13-.67-.89-4.43-1.02-5.09.7-.14,5.35-1.08,5.35-1.08l-.35-1.75s-4.64.94-5.34,1.09c-.13-.66-.8-3.97-.94-4.62.71-.15,5.68-1.15,5.68-1.15l-.36-1.74-.42.08-8.74,1.76,3.01,14.92,9.25-1.86-.35-1.75s-5.05,1.02-5.77,1.17"/><path class="cls-3" d="M88.61,7.64l-3.55-.07v.41s-.32,14.81-.32,14.81l9.32.19.04-1.97s-5.04-.11-5.77-.12c.01-.79.28-13.25.28-13.25"/><path class="cls-3" d="M106.4,11.64c1.13.27,1.78,1.03,2.06,2.37l.09.47,1.85-.62-.07-.37c-.37-1.82-1.93-3.38-3.88-3.88-1.41-.36-2.82-.16-3.97.52-1.04.63-1.77,1.6-2.05,2.76-.73,2.9,1.16,4.26,2.67,5.34,1.55,1.1,2.47,1.86,2.08,3.42-.16.65-.59,1.02-.91,1.22-.51.3-1.14.4-1.68.26-1.12-.27-1.7-.88-2.14-2.23l-.14-.44-1.92.79.11.37c.55,1.84,1.92,3,4.14,3.56,2.47.61,5.43-.49,6.17-3.42.76-3.06-1.24-4.54-2.87-5.74-1.39-1.02-2.22-1.7-1.94-2.83.25-1.01,1.09-1.89,2.38-1.55"/><path class="cls-3" d="M121.51,17.46c.65.32,5.17,2.6,5.17,2.6l.81-1.59-8.34-4.21-.2.38-6.68,13.21,8.42,4.25.81-1.58s-4.61-2.33-5.25-2.65c.31-.6,2.04-4.03,2.34-4.64.64.33,4.87,2.46,4.87,2.46l.81-1.58s-4.23-2.14-4.88-2.46c.3-.59,1.83-3.61,2.12-4.19"/><path class="cls-3" d="M138.96,26.69l-14.68,7.6,1.65,1.43s3.1-1.65,3.53-1.88c.38.32,2.96,2.56,3.31,2.87-.16.46-1.31,3.84-1.31,3.84l2.79,2.42,5.67-16.72-.97.45ZM131.18,32.96c.69-.36,2.46-1.28,3.54-1.84-.39,1.15-1.06,3.04-1.32,3.77-.55-.48-1.66-1.45-2.22-1.94"/><path class="cls-6" d="M128.72,84.82c-1.2-3.18-5.35-4.56-9.26-3.09-1.63.62-2.97,1.64-3.89,2.86,2.6-7.39,13.12-8.95,13.12-15.82,0-11.51-16.34-8.28-13.96.01,0-3.76,5.98-4.46,5.98,0s-10.43,7.36-10.43,14.88c0,8.28,8.28,9.05,7.45,16.63-.14,1.31-1.55,3.03-3.57,3.03-12.7,0-8.17-15.63-12.61-20.38l.23-3.2c2.57,1.57,9.38-2.12,4.9-7.74,0,2.76-5.75,2.62-5.75-2.61,0-7.06,6.59-3.38,6.92-1.82-.32-2.57-.43-4.21,0-5.68-3.56,1.15-3.89-.91-3.44-1.71.52-.92,1.21-1.99,2.58-1.99.75,0,1.21.11,1.47.29.45.3.76-.39.7.26.38-.58.23.14.6-.44.36-.58.87-1.23,1.76-2.1l-.04-1.3,1.04.38,1-1.62c-1.08-2.22-2.54-1.14-3.6-3.91-.91-.24-14.88,1.29-14.48-4.29-1.14,0-3.84.63-2.17,2.9-1.3.16-2.25-1.32-4.2,2.67,2.45-.46,1.18,2.28,1.18,3.06,0,5.05-6.73,4.97-6.73,2.6-1.62,1.58-.7,5.03,1.75,5.87,0,0-.92,3.7-3.23,6.03-3.42-.13-8.9-.74-12.06-3.71-1.36-1.28-2.45-1.99-3.36-2.34v-1.67c1.34-.66,2.82-1.82,4.35-3.77,1.2-1.47,1.85-3.34,1.67-5.33-.02-.25-.06-.47-.1-.7-.01-.08-.03-.15-.04-.22-.03-.16-.07-.31-.12-.47-.02-.08-.04-.15-.07-.24-.05-.15-.1-.31-.17-.46-.03-.06-.05-.13-.08-.19-.09-.2-.19-.4-.28-.58-.05-.08-.1-.15-.14-.22-.07-.12-.13-.24-.2-.35-.06-.09-.12-.19-.19-.28-.07-.08-.13-.17-.2-.25-.08-.09-.15-.19-.23-.28-.05-.06-.1-.12-.16-.18-.21-.21-.42-.43-.64-.61-.02-.02-.03-.04-.06-.06-.13-.1-.27-.21-.39-.31-.04-.02-.08-.05-.11-.08-.14-.11-.29-.19-.43-.29-.01,0-.02,0-.03-.02-1.44-.87-3.17-1.34-5.01-1.19-4.41.35-7.69,4.04-7.33,8.24.29,3.27,2.7,5.88,5.84,6.71-1.1.62-2.03.97-2.24.97.04.02.09.05.13.07.02.01.03.01.04.03.05.03.09.05.15.09.01,0,.03.01.03.01.09.04.16.07.24.12,0,0,.03.01.03.01.08.03.16.07.23.1.02.02.05.03.07.04.2.08.41.16.65.22.03.01.07.02.09.03.1.03.2.04.29.07.03,0,.07.01.1.02.13.02.26.04.39.07h.04v.95s-.09.02-.14.02c-1.44.23-2.37.68-2.79,1.96-.42,1.27.01,1.75.68,2.65-.57,1.01-2.05,1.4-.11,3.64-.15.85.04,2.19,1.27,2.6.4.13.74.21,1.09.27v16.82c-1.24.65-1.84,1.47-2.17,2.23,0,0-.99-2.19-.92,2.15,1.12-.87.68,1.01.68,1.01-1.53,1.98.42,1.88.42,1.88,1.31-1.32,1.05.59,1.05.59,0,2.33.94,3.24.95,3.25v12.81s-1.12,0-1.12,0v3.53s1.96,0,1.96,0c-1.1.46-1.82,1.53-1.72,2.74.13,1.51,1.53,2.63,3.11,2.5,1.59-.13,2.77-1.45,2.63-2.96-.08-1.03-.78-1.89-1.71-2.28h1.79v-3.55s-1.08.01-1.08.01v-11.37c.22.12.47.21.73.26.1.03.21.04.31.04h.14c-.29-1.49.6-2.47.6-2.47.46-.69,1.12-1.23,1.87-1.61,2.26-1.13,5.34-.84,6.26.99,5.83-1.54,10.84-7.4,10.84-7.4l2.88,4.88c-6.09,2.04-19.35,13.57-10.14,17.56-.01,1.16-.16,9.78-5.69,9.1-7.96-.98-9.94,2.31-8.42,6.01-.73,3.13,1.69,4.21,1.69,4.21-.36-1.81.5-3.3,3.79-3.28-.01,3.29,2.11,3.88,2.11,3.88.02-2.81,1.97-3.86,3.71-3.86-.01,2.32,2.69,3.2,2.69,3.2,0,0-.69-2.67,2.36-3.2,7.71-1.35.47-9.29,12.21-11.47,0,0-5.84-.88-5.84-4.08,0-2.9,5.29-4.89,7.11-4.89,3.74,7.14,7.8,7.2,8.86,7.25,1.66,1.84,1.1,8.07-1.29,7.95-8.75-.46-8.43,4.85-7.44,5.94-.12,2.07,1.48,3.25,1.48,3.25,0-2.21,2.12-2.82,4.82-2.69-.14,2.71,1.58,3.11,1.58,3.11.05-2.72,2.05-3.17,3.49-3.11-.11,1.91,1.78,2.48,1.78,2.48,0,0-.18-2.42,2.36-2.42,4.83,0-2.19-10.36,7.25-20.6-8.3,3.84-12.7-5.75-12.7-7.59,4.26,4.98,18.07,5.98,18.07-2.54s-8.94-11.16-4.76-14.27c2.44-1.81,7.21,1.84,4.48,5.62,3.92-1.46,6.11-5.26,4.91-8.45M75.75,85.07c-3.12,1.85-5.21,4.17-8.06,5.18-.43.16-.78.2-1.07.17v-15.87c.75.08,2.71.34,5,1.29,2.26,1.23,2.26,3.79-.6,4.39,1.81,3.47,8.08,1.76,9.45-1.05.67-.06,1.26,1.13,1.82,2.26-.88.46-2.69,1.37-6.53,3.62M110.73,58.76c-.34.47-.69.94-.98,1.33.8,1.32,2.29,2.15,3.92,1.99,2.26-.21,3.93-2.22,3.71-4.48,0-.08-.01-.15-.03-.23-.23,1.16-1.62,2.16-3.38,2.32-1.33.12-2.53-.26-3.23-.93"/><path class="cls-1" d="M60.25,49.21s0,0,0,0h0c.04-.08.08-.17.12-.25-.05.08-.09.16-.11.24M60.39,115.79h0,0M59.11,115.41h1.94c-.23.09-.45.22-.65.37.2-.07.41-.12.62-.12.98,0,1.77.8,1.77,1.78s-.79,1.76-1.77,1.76c-.79,0-1.46-.52-1.68-1.24v.16c.13,1.51,1.53,2.63,3.11,2.5,1.58-.12,2.76-1.44,2.63-2.96-.09-1.03-.78-1.89-1.72-2.28h1.8s0-3.54,0-3.54h-1.08v-11.37c-1.05-.54-1.66-1.73-1.43-2.94.68,0,1.28.17,1.67.44-.61,1.37.93,2.82.93,2.82-.29-1.5.59-2.49.59-2.49.46-.69,1.13-1.23,1.88-1.61,2.26-1.13,5.34-.84,6.26,1,5.83-1.53,10.84-7.4,10.84-7.4l2.87,4.88c6.73,0,4.39-5.04,3.95-5.48,1.55,0,3.73,1.14,3.73,3.67,0,6.19-18.01,7.08-18.01,14.61,0,3.16,3.13,4.36,3.13,4.36,0,6.86-4.72,10.94-7.93,10.94-5.16,0-9.1-1.04-9.1,4.57h1.8c-1.71,1.7-.11,4.21-.11,4.21-.36-1.8.51-3.29,3.8-3.28h2.06c-1.31,1.3-.55,3.28.06,3.88.01-2.81,1.97-3.86,3.71-3.85h1.49c-.41.4.24,2.26,1.19,3.21,0,0-.68-2.67,2.37-3.21,7.72-1.34.47-9.28,12.2-11.47,0,0-5.84-.88-5.84-4.08,0-2.91,5.29-4.9,7.11-4.9,1.42-.21,2.8-.15,3.96.1.47,4.6,5.77,4.38,6.92,4.38,4.49,4.49-1.14,11.69-1.14,11.69-6.89,0-9.62.95-9.62,4.97h1.29c-.72.73-.3,2.75.2,3.25,0-2.22,2.11-2.83,4.81-2.69h1.42c-.69.69-.58,2.37.17,3.11.04-2.72,2.06-3.18,3.49-3.11h1.18c-.44.45,0,1.86.6,2.47,0,0-.19-2.42,2.36-2.42,4.84,0-2.18-10.36,7.26-20.6-8.29,3.83-12.7-5.75-12.7-7.6,4.25,4.99,18.06,5.98,18.06-2.53,0-6.86-6.37-10.09-5.85-12.8.19-2.07,1.94-3.7,4.06-3.7,2.25,0,4.06,1.82,4.06,4.06,0,1.72-1.06,3.17-2.55,3.77h0s0,0,0,0c3.92-1.43,6.11-5.25,4.9-8.43-1.19-3.18-5.34-4.57-9.26-3.1-1.63.62-2.96,1.64-3.88,2.86,2.6-7.39,13.12-8.95,13.12-15.82,0-11.5-16.33-8.28-13.96,0,0-.13,0-.25.01-.36.42-4.7,8.79-5.65,8.79.46,0,5.22-10.72,8.11-10.72,15.13s7.92,9.01,7.92,16.59c0,.91-.48,4.8-5.74,4.8s-7.52-2.84-8.91-6.55c-2.59-5-1.63-12.79-4.55-15.91l.24-3.21c2.57,1.57,9.37-2.12,4.89-7.73,0,2.76-5.75,2.61-5.75-2.61,0-7.05,6.6-3.38,6.93-1.81-.32-2.57-.44-4.21-.01-5.68-3.57,1.15-3.89-.91-3.45-1.71.52-.92,1.21-2,2.59-2,2,0,1.87.74,1.77,1.77.76-1.15.98-2.02,2.76-3.76l-.04-1.3,1.04.38,1-1.61c-1.07-2.23-2.53-1.16-3.61-3.92-.9-.23-12.65-1.32-12.24-6.89-1.04,0-3.87,3.58-1.95,5.5h-2.44c-1.31.16-4.35-.75-6.31,3.24,4.81-4.81,7.93,6.66-.93,6.66-1.31.02-2.43-.54-2.5-1.46-.89,3.88,4.69,5.08,4.69,5.08,0,1.16-2.79,7.38-4.15,8.74.92.93,1.2,6.45-3.03,6.45,1.52-4.12-2.97-7.63-7.34-9.95h0c-.79-.3-1.54-.67-2.24-1.1-2.68-1.22-4.86-1.91-4.86-1.91v-3.24c1.36-.66,2.82-1.82,4.36-3.78,1.2-1.46,1.84-3.34,1.67-5.33-.01-.24-.06-.47-.1-.71,0-.07-.03-.14-.05-.21-.03-.16-.08-.32-.12-.47-.02-.08-.04-.16-.07-.24-.04-.16-.1-.31-.16-.46-.03-.06-.04-.13-.08-.19-.08-.2-.18-.39-.28-.58-.04-.08-.09-.15-.14-.23-.06-.11-.13-.23-.2-.34-.07-.1-.13-.18-.19-.28-.06-.08-.13-.16-.19-.25-.08-.1-.16-.19-.23-.28-.05-.06-.11-.12-.15-.18-.22-.22-.42-.42-.65-.61-.01-.02-.04-.04-.07-.06-.13-.11-.26-.21-.39-.31-.04-.02-.08-.04-.1-.06-.15-.11-.29-.2-.44-.29-.01-.01-.02-.01-.02-.01-1.44-.89-3.18-1.35-5.01-1.2-.4.03-.78.1-1.16.18-2.54.98-4.39,3.95-4.39,7.47,0,3.32,1.64,6.15,3.96,7.28.03.01.06.02.09.03-1.1.61-2.03.96-2.23.96.03.02.08.06.13.09.01,0,.03,0,.03.02.05.03.1.06.15.08.01,0,.02.01.04.02.07.04.14.07.23.12.01,0,.03,0,.04.01.07.04.14.07.22.1.02,0,.04.01.07.03.18.07.4.15.64.22.04.01.06.03.09.03.1.03.19.05.29.07.04,0,.07.01.1.02.13.03.26.05.4.07,0,0,.02,0,.03,0,.84.07,1.84-.14,1.84-.14v1.87c-.15,0-1.47-.42-1.84-.79-.05.01-.1.01-.14.03-1.43.23-2.37.68-2.79,1.96-.42,1.27,0,1.74.69,2.64-.58,1.01-2.06,1.4-.12,3.64-.14.85.04,2.2,1.27,2.61.4.13.74.2,1.09.27.72,0,1.84.61,1.84,2.12v14.46c.65.03,1.39.12,2.04.17v-15.88c.76.08,2.72.35,5,1.29.03,0,.05.02.07.04h0c.2.03.41.07.62.13,1.52.47,2.47,1.79,2.12,2.97-.36,1.17-1.88,1.73-3.41,1.26,1.81,3.46,8.08,1.77,9.44-1.05.67-.06,1.26,1.13,1.82,2.27,0,0,1.58.6,5.46.6,0,0-15.74,10.05-20.29,10.05-1.95,0-6.26,0-6.26,1.48-1.18,0-2.9,2.01-2.9,3.17,1.12-.87,2.04-.87,2.04-.87.95,0,1.49.28,1.49.28-.34.35-1.92,2.11-1.92,3.49,1.31-1.31,1.89-1.31,1.89-1.31,0,0,1.38-.18,1.87.31-.33.33-.91,1.53-.91,2.93,0,0,.81-1.57,1.84-1.57v15.11c0,.46-2.08.91-2.94.91M59.74,69.69c-.39.02-.57-.49-.58-.68,0-.18.15-.7.53-.71.92-.03,2.77.42,2.77.59,0,.18-1.8.76-2.72.79M59.15,67.19c-.53-.04-.71-.76-.7-1.01.03-.25.3-.94.83-.91,1.28.1,3.75.98,3.74,1.24-.02.25-2.6.77-3.88.68M58.93,63.99c-.57-.14-.61-.96-.54-1.22.06-.27.5-.95,1.07-.81,1.36.35,3.84,1.79,3.77,2.07-.07.28-2.95.32-4.3-.04M63.11,54.99c.23-.56.18-1.32.04-2.04h-.07c-1.62,0-2.93-1.32-2.93-2.94-.03-.28.02-.55.1-.8h0c.36-1.25,1.48-2.14,2.83-2.14,1.62,0,2.94,1.31,2.94,2.94,0,1.87-1.31,3.59-2.9,4.97"/><path class="cls-4" d="M107.21,57.56c.8,1.33,2.28,2.15,3.92,1.99,2.25-.21,3.92-2.21,3.71-4.47-.01-.08-.02-.16-.04-.23-.23,1.17-1.62,2.16-3.38,2.33-1.32.12-2.53-.26-3.23-.93-.34.47-.69.94-.98,1.33"/><path class="cls-3" d="M101.73,49.94l1.42.07-.7.97s-.95.31-.71-1.04M98.34,49.94h2.05s-.09,1.65,1.42,1.8l-.32.52s-4.01-1.05-3.15-2.32"/><path class="cls-2" d="M63.22,64.03c.07-.27-2.41-1.72-3.77-2.07-.57-.15-1,.54-1.07.81-.07.26-.03,1.08.54,1.22,1.35.36,4.22.32,4.3.04M63.03,66.51c0-.26-2.46-1.14-3.74-1.24-.53-.04-.81.65-.83.91-.01.25.16.97.7,1.01,1.28.1,3.86-.42,3.88-.68M60.21,59.04v.95c.36.36,1.69.79,1.84.79v-1.87s-.99.21-1.84.14M59.69,68.3c-.38.01-.53.53-.53.71.02.18.19.69.58.68.92-.04,2.73-.62,2.72-.79,0-.17-1.85-.62-2.77-.59M57.8,93.34c-1.53,1.97-.43,3.77-.43,3.77,0-1.37,1.58-3.14,1.92-3.49,0,0-.53-.28-1.49-.28M62.66,97.54c-.23,1.21.38,2.4,1.43,2.94.22.12.47.2.72.26.1.02.2.03.31.04.05,0,.09,0,.14.01,0,0-1.55-1.45-.93-2.82-.39-.27-1-.44-1.68-.44M59.88,57.18c-2.32-1.13-3.96-3.96-3.96-7.28,0-3.52,1.85-6.49,4.39-7.47-3.81.84-6.5,4.24-6.17,8.06.29,3.24,2.65,5.83,5.75,6.69M84.43,49.06c2.46-.46,3.28,1.72,3.28,2.5,0,2.96-2.3,4.15-4.21,4.16,8.86,0,5.74-11.46.93-6.66M78.52,74.53c4.23,0,3.95-5.53,3.03-6.45,1.36-1.35,4.15-7.58,4.15-8.74,0,0-5.59-1.21-4.7-5.09h0s-.09-.02-.09-.02c-1.51,1.61-.59,4.95,1.83,5.79,0,0-.93,3.69-3.23,6.02-2.29-.09-5.51-.39-8.33-1.47,4.37,2.32,8.86,5.82,7.34,9.95M61.96,47.96c1.1-.09,2.07.69,2.16,1.74.09,1.05-.72,1.96-1.82,2.05-1.1.09-2.06-.69-2.15-1.73,0,1.62,1.31,2.94,2.94,2.94h.07c.14.72.19,1.48-.04,2.04,1.58-1.38,2.9-3.1,2.9-4.97,0-1.63-1.32-2.94-2.94-2.94-1.34,0-2.47.9-2.83,2.14.26-.68.91-1.2,1.72-1.26M93.18,45.82c-1.92-1.91.91-5.5,1.95-5.5-1.14,0-6.07,3.22-4.39,5.5h2.44ZM68.49,77.71c1.53.47,3.05-.1,3.41-1.26.35-1.17-.6-2.5-2.12-2.97-.21-.06-.42-.1-.62-.14,2.19,1.26,2.17,3.77-.67,4.36M64.08,61.56s2.18.69,4.86,1.91c-.54-.33-1.04-.7-1.5-1.13-1.36-1.29-2.44-1.99-3.36-2.35v1.57ZM64.91,89.57c4.56,0,20.3-10.05,20.3-10.05-3.88,0-5.46-.6-5.46-.6-.88.45-2.67,1.36-6.51,3.62-3.13,1.83-5.23,4.16-8.07,5.18-.43.15-.78.18-1.08.17-.65-.06-1.38-.15-2.04-.17v-14.46c0-1.51-1.12-2.12-1.84-2.12v16.81c-1.24.66-1.84,1.47-2.17,2.23,0,0-2.35-.32-2.28,4.03,0-1.16,1.72-3.17,2.9-3.17,0-1.48,4.31-1.48,6.26-1.48M104.18,112.85c-1.15,0-6.45.22-6.92-4.38-1.17-.26-2.54-.31-3.96-.1,3.74,7.14,7.8,7.2,8.87,7.25,1.65,1.84,1.09,8.07-1.29,7.95-8.75-.47-8.42,4.85-7.45,5.94,0-4.02,2.72-4.97,9.62-4.97,0,0,5.63-7.2,1.14-11.69M105.98,130.07h-1.18c-.1,1.91,1.79,2.47,1.79,2.47-.61-.61-1.05-2.02-.61-2.47M94.92,132.76c-.51-.5-.93-2.53-.2-3.25h-1.29c-.11,2.06,1.49,3.25,1.49,3.25M121.01,66.34c0-6.1-8.37-5.15-8.79-.46.37-3.44,5.97-3.94,5.97.36s-10.43,7.36-10.43,14.89c0,8.27,8.29,9.05,7.45,16.62-.14,1.31-1.55,3.03-3.58,3.03-4.36,0-6.69-1.85-8.05-4.47,1.39,3.71,3.83,6.55,8.91,6.55s5.74-3.89,5.74-4.8c0-7.58-7.92-9.38-7.92-16.59s10.72-9.91,10.72-15.13M59.25,95.81c0,2.33.95,3.25.95,3.25,0-1.41.58-2.61.91-2.93-.49-.49-1.87-.31-1.87-.31M119.77,82.88c-2.12,0-3.87,1.63-4.06,3.7.1-.5.44-.98,1.09-1.47,2.44-1.81,7.21,1.83,4.48,5.61,1.49-.61,2.55-2.05,2.55-3.77,0-2.24-1.82-4.06-4.06-4.06M101.14,130.07h-1.42c-.14,2.7,1.59,3.11,1.59,3.11-.74-.74-.86-2.41-.17-3.11M61.02,115.66c-.22,0-.42.05-.63.12-.66.53-1.07,1.32-1.05,2.19.22.71.88,1.24,1.68,1.24.98,0,1.77-.79,1.77-1.76s-.79-1.78-1.77-1.78M71,128.78h-2.06c-.01,3.29,2.12,3.88,2.12,3.88-.61-.6-1.37-2.57-.06-3.88M77.37,107.98c0-7.52,18.01-8.42,18.01-14.61,0-2.53-2.17-3.67-3.72-3.67.45.44,2.78,5.48-3.95,5.48-6.08,2.04-19.34,13.56-10.14,17.56,0,1.17-.16,9.78-5.69,9.1-7.96-.98-9.94,2.31-8.42,6.01,0-5.61,3.94-4.57,9.1-4.57,3.21,0,7.93-4.08,7.93-10.94,0,0-3.13-1.21-3.13-4.36M62.05,112.59v-15.11c-1.02,0-1.84,1.57-1.84,1.57v12.89-.08h-1.11v1.63c.87,0,2.95-.45,2.95-.91M65.15,132.06s-1.59-2.5.11-4.21h-1.8c-.72,3.12,1.69,4.21,1.69,4.21M76.26,128.81h-1.49c0,2.32,2.68,3.21,2.68,3.21-.95-.95-1.6-2.8-1.19-3.21"/><path class="cls-3" d="M26.14,103.72l-.09-.3-.06-.32c-.14-1.08-.4-3.11-1.97-3.47-.41-.1-.84-.05-1.3.13.13-.47.11-.9-.05-1.31-.57-1.5-2.62-1.48-3.71-1.46h-.32l-.32-.06c-1.08-.2-3.08-.58-3.91.8-.22.37-.3.79-.26,1.28-.42-.26-.84-.39-1.27-.37-1.6.09-2.21,2.03-2.54,3.09l-.11.3-.14.28c-.52.97-1.5,2.76-.45,3.97.29.32.66.55,1.15.66-.39.32-.63.68-.74,1.09-.42,1.55,1.25,2.73,2.14,3.37l.26.19.22.23c.75.8,2.15,2.28,3.64,1.65.38-.16.71-.46.98-.88.17.45.44.8.8,1.04,1.36.87,2.98-.35,3.86-1l.27-.18.29-.15c.99-.46,2.83-1.34,2.69-2.95-.03-.42-.21-.82-.54-1.2.5-.03.91-.18,1.24-.45,1.24-1,.6-2.94.25-3.99"/><path class="cls-4" d="M19.12,105.02c8.97,5.31,6.21-.53,6.02-1.39-.2-.86-.28-7.3-6.02,1.39"/><path class="cls-4" d="M18.56,106.35c-2.27,10.17,2.42,5.74,3.18,5.29.75-.45,6.87-2.52-3.18-5.29"/><path class="cls-4" d="M17.12,106.22c-10.38.99-4.72,4.08-4.06,4.66.67.58,4.52,5.75,4.06-4.66"/><path class="cls-4" d="M16.79,104.82c-4.13-9.57-5.33-3.22-5.69-2.41-.34.82-4.07,6.08,5.69,2.41"/><path class="cls-3" d="M164.99,102.32l-.15-.28-.1-.3c-.33-1.05-.94-3-2.54-3.08-.42-.02-.85.1-1.26.37.03-.49-.05-.92-.27-1.28-.83-1.38-2.83-1-3.91-.8l-.31.06h-.32c-1.09-.02-3.14-.04-3.71,1.46-.16.41-.17.84-.05,1.31-.46-.18-.89-.23-1.3-.13-1.56.36-1.82,2.38-1.97,3.47l-.05.32-.09.3c-.34,1.04-1,2.98.25,3.99.34.27.75.42,1.24.45-.32.38-.5.78-.53,1.2-.14,1.6,1.71,2.48,2.69,2.95l.29.15.26.18c.88.65,2.52,1.86,3.86,1,.36-.24.62-.59.81-1.04.26.42.58.71.98.88,1.48.62,2.88-.85,3.64-1.65l.22-.23.26-.19c.9-.63,2.55-1.81,2.14-3.37-.12-.41-.36-.77-.75-1.09.49-.11.87-.33,1.15-.66,1.06-1.21.08-3-.45-3.97"/><path class="cls-4" d="M157.06,104.07c-7.82-6.89-1.42-6.07-.54-6.16.88-.07,7.04-1.99.54,6.16"/><path class="cls-4" d="M155.97,105.02c-8.97,5.31-6.21-.53-6.01-1.39.2-.86.27-7.3,6.01,1.39"/><path class="cls-4" d="M156.53,106.35c2.28,10.17-2.42,5.74-3.17,5.29-.76-.45-6.87-2.52,3.17-5.29"/><path class="cls-4" d="M157.97,106.22c10.38.99,4.71,4.08,4.06,4.66-.68.58-4.52,5.75-4.06-4.66"/><path class="cls-4" d="M158.3,104.82c4.14-9.57,5.33-3.22,5.68-2.41.35.82,4.08,6.08-5.68,2.41"/><path class="cls-3" d="M160.31,105.12c0-.08-.04-.16-.05-.24.83-.62,1.73-1.26,1.73-1.26l-.08-.21s-1.05.19-2.06.36c-.51-.82-1.37-1.39-2.36-1.48-.31-.94-.61-1.91-.61-1.91l-.22.02s-.14,1-.29,1.98c-.6.16-1.15.5-1.56,1-.22.27-.38.56-.5.87-1.01,0-2.09,0-2.09,0l-.04.21s.99.49,1.92.95c0,.08,0,.16,0,.24.07.81.45,1.55,1.06,2.08-.32,1.02-.69,2.15-.69,2.15l.18.1s.85-.87,1.59-1.64c.39.14.8.19,1.22.15.43-.04.83-.16,1.2-.35.87.63,1.84,1.34,1.84,1.34l.17-.14s-.56-1.05-1.06-1.99c.52-.64.76-1.43.7-2.24"/><path class="cls-4" d="M157.05,103.55c-.5.05-.94.27-1.25.65-.32.37-.47.85-.43,1.35.09,1.01.99,1.75,2,1.67.49-.05.93-.27,1.25-.66.32-.38.47-.86.43-1.34-.09-1.01-.99-1.77-2-1.68"/><path class="cls-4" d="M18.03,104.07c7.82-6.89,1.41-6.07.54-6.16-.88-.07-7.04-1.99-.54,6.16"/><path class="cls-3" d="M20.99,105.42c.93-.46,1.93-.95,1.93-.95l-.05-.21s-1.07,0-2.09,0c-.12-.3-.28-.6-.51-.87-.42-.49-.96-.84-1.56-1-.14-.98-.29-1.98-.29-1.98l-.21-.02s-.31.97-.62,1.91c-.99.09-1.86.66-2.37,1.48-1-.17-2.05-.36-2.05-.36l-.09.21s.9.64,1.73,1.26c-.01.08-.03.16-.04.24-.07.81.18,1.6.69,2.24-.5.94-1.05,1.99-1.05,1.99l.16.14s.98-.71,1.86-1.34c.36.19.76.32,1.18.35.44.04.85-.01,1.24-.15.75.77,1.6,1.64,1.6,1.64l.18-.1s-.36-1.13-.69-2.15c.62-.52,1-1.27,1.07-2.08,0-.08,0-.16,0-.24"/><path class="cls-4" d="M19.29,104.21c-.32-.38-.75-.61-1.25-.65-1.01-.09-1.91.66-2,1.68-.04.49.11.96.42,1.34.32.38.77.6,1.26.65,1.01.08,1.91-.66,1.99-1.67.04-.5-.1-.98-.43-1.35"/><path class="cls-3" d="M19.18,60.71c-4.37-.77-8.55,2.16-9.33,6.54-.78,4.38,2.15,8.55,6.53,9.32,4.36.78,8.55-2.16,9.32-6.53.78-4.37-2.15-8.55-6.52-9.33"/><path class="cls-4" d="M20.99,66.8c-.07-.04-.19-.13-.34-.22-.66-.44-1.96-1.29-1.99-1.33-.18-.12-.36-.23-.53-.34-.57-.39-1.09-.72-1.57-1-.19-.12-.37-.21-.54-.3-.78-.39-1.51-.62-2.38-.7-.67.48-1.25,1.08-1.72,1.78,2,.72,3.96,1.88,8.02,4.41.23-.53,1.01-2.19,1.06-2.29"/><path class="cls-4" d="M19.12,71.12c.08-.21.44-1.12.59-1.46-4.17-2.59-6.1-3.73-8.11-4.44-.31.56-.55,1.16-.7,1.81,1.15,1.57,4.22,3.11,8.23,4.09"/><path class="cls-4" d="M18.67,64.54c1.56-.93,3.34-.68,4.7-.21-.51-.66-1.12-1.24-1.85-1.68-1.29-.26-3.07-.3-4.49.83.51.3,1.05.66,1.64,1.06"/><path class="cls-4" d="M12.44,71.99c.2.16.42.28.64.41.46.26.96.47,1.48.67.22.08.44.16.66.23.78.25,2.58.72,2.72.76.03-.07.7-1.73.95-2.37-3.11-.77-6.51-2.12-8.13-3.87-.1.81-.05,1.61.11,2.37.34.74.9,1.34,1.57,1.81"/><path class="cls-4" d="M18.04,74.7l-.65-.17c-.6-.15-1.26-.32-1.91-.52.32.69.83,1.23,1.37,1.65.74.1,1.45.08,2.14-.04-.49-.39-.94-.91-.94-.91"/><path class="cls-4" d="M24.54,66.59c-.16-.48-.35-.94-.58-1.39-1.23-.55-3.1-1.08-4.73-.29l2.25,1.49c.47-.05.9-.06,1.29-.05.22,0,.42.02.61.03.44.04.81.12,1.16.2"/><path class="cls-4" d="M23.39,67c-.07,3.69-1.81,6.55-3.31,8.33,2.35-.82,4.2-2.84,4.67-5.46.16-.89.14-1.77-.03-2.61-.36-.1-.8-.2-1.32-.25"/><path class="cls-4" d="M16.46,63.17c1.05-.94,2.3-1.25,3.44-1.27-.29-.1-.58-.18-.9-.23-1.63-.29-3.23.02-4.59.75.73.14,1.39.4,2.05.75"/><path class="cls-4" d="M21.56,67c-.53,1.12-.85,1.8-1.11,2.41-.08.2-.15.37-.23.57-.13.31-.51,1.27-.51,1.27l-.23.57-.99,2.46c.27.37.6.66.93.89,1.48-1.69,3.31-4.51,3.36-8.21-.36-.01-.78,0-1.22.03"/><path class="cls-4" d="M14.73,73.76c-.5-.17-.98-.37-1.45-.59.18.55.43,1.02.68,1.42.52.35,1.1.61,1.73.8-.4-.45-.75-.99-.96-1.63"/><path class="cls-4" d="M12.54,72.77c-.34-.2-.65-.43-.94-.67.33.59.74,1.13,1.22,1.6-.12-.3-.21-.6-.28-.92"/><path class="cls-3" d="M148.52,70.04c.77,4.36,4.95,7.3,9.32,6.53,4.38-.77,7.31-4.94,6.53-9.32-.77-4.38-4.95-7.3-9.33-6.54-4.37.78-7.3,4.96-6.52,9.33"/><path class="cls-4" d="M153.22,66.8c.07-.04.19-.13.35-.22.66-.44,1.95-1.29,1.98-1.33.19-.12.36-.23.53-.34.58-.39,1.09-.72,1.57-1,.18-.12.37-.21.55-.3.78-.39,1.52-.62,2.37-.7.68.48,1.26,1.08,1.73,1.78-1.99.72-3.95,1.88-8.03,4.41-.23-.53-1-2.19-1.05-2.29"/><path class="cls-4" d="M155.1,71.12c-.08-.21-.45-1.12-.59-1.46,4.18-2.59,6.11-3.73,8.11-4.44.32.56.55,1.16.71,1.81-1.15,1.57-4.21,3.11-8.22,4.09"/><path class="cls-4" d="M155.55,64.54c-1.56-.93-3.34-.68-4.7-.21.5-.66,1.13-1.24,1.85-1.68,1.29-.26,3.08-.3,4.5.83-.51.3-1.05.66-1.64,1.06"/><path class="cls-4" d="M161.78,71.99c-.2.16-.43.28-.65.41-.46.26-.95.47-1.47.67-.22.08-.44.16-.67.23-.77.25-2.56.72-2.7.76-.03-.07-.7-1.73-.96-2.37,3.12-.77,6.51-2.12,8.14-3.87.1.81.05,1.61-.12,2.37-.33.74-.88,1.34-1.56,1.81"/><path class="cls-4" d="M156.18,74.7l.64-.17c.61-.15,1.26-.32,1.92-.52-.31.69-.83,1.23-1.38,1.65-.73.1-1.45.08-2.13-.04.5-.39.94-.91.94-.91"/><path class="cls-4" d="M149.68,66.59c.15-.48.35-.94.58-1.39,1.23-.55,3.1-1.08,4.73-.29l-2.25,1.49c-.47-.05-.9-.06-1.29-.05-.21,0-.41.02-.61.03-.44.04-.81.12-1.16.2"/><path class="cls-4" d="M150.83,67c.06,3.69,1.81,6.55,3.31,8.33-2.35-.82-4.2-2.84-4.66-5.46-.16-.89-.14-1.77.03-2.61.36-.1.8-.2,1.33-.25"/><path class="cls-4" d="M157.76,63.17c-1.05-.94-2.3-1.25-3.44-1.27.29-.1.58-.18.89-.23,1.63-.29,3.23.02,4.58.75-.72.14-1.37.4-2.04.75"/><path class="cls-4" d="M152.66,67c.53,1.12.85,1.8,1.11,2.41.08.2.15.37.23.57.12.31.51,1.27.51,1.27l.23.57.99,2.46c-.27.37-.61.66-.93.89-1.48-1.69-3.31-4.51-3.36-8.21.37-.01.78,0,1.22.03"/><path class="cls-4" d="M159.49,73.76c.5-.17.98-.37,1.45-.59-.18.55-.43,1.02-.68,1.42-.52.35-1.11.61-1.72.8.4-.45.75-.99.96-1.63"/><path class="cls-4" d="M161.67,72.77c.34-.2.65-.43.94-.67-.33.59-.73,1.13-1.22,1.6.12-.3.22-.6.28-.92"/></svg>