<?xml version="1.0" encoding="UTF-8"?><svg id="Layer_1" xmlns="http://www.w3.org/2000/svg" viewBox="0 0 233.14 238.86"><defs><style>.cls-1{fill:#fff;}.cls-1,.cls-2{fill-rule:evenodd;}.cls-2{fill:#00009e;}</style></defs><path class="cls-1" d="M122.67,232.95l-1.74,1.79,1.79-1.74c.98-.96,1.79-1.76,1.79-1.79,0-.13-.22.08-1.84,1.74M109.65,232.17c.55.55,1.04,1.01,1.09,1.01s-.36-.45-.9-1.01c-.55-.56-1.04-1.01-1.09-1.01s.36.45.9,1.01M112.73,211.65c-.08.08-.14.45-.14.82,0,.71.21.91.96.91.37,0,.38.05.26,2.61-.07,1.44-.12,3.25-.12,4.03v1.42h-.55c-.53,0-.55.03-.55.82v.82h4.97l-.06-.78c-.05-.7-.11-.79-.56-.84l-.5-.06v-8.04h.64c.64,0,.64,0,.64-.83v-.82h-1.62c-.89,0-1.99-.05-2.43-.11-.44-.06-.87-.05-.94.03M124.13,211.24c-2.05.55-3.01,1.69-2.89,3.39.13,1.77.63,2.23,3.88,3.53,1.88.75,2.26,1.64.98,2.3-.54.28-.84.28-3.42.02-.4-.04-.48.06-.72.92-.33,1.21-.28,1.26,1.54,1.48,6.15.75,8.55-4.98,2.93-6.99-2.52-.9-3.03-1.44-2.09-2.2.45-.36.59-.37,3.27-.09.62.06,1.33-1.63.83-1.99-.71-.52-3.02-.72-4.32-.37M98.83,210.69c-.16.4-1.29,9.52-1.28,10.41,0,.52.48.71,1.75.71.74,0,.7.12,1.1-3.39.17-1.51.37-2.85.43-2.98.07-.13.93,1.19,2.04,3.12,2.33,4.06,2.43,4.17,3.66,4.17.58,0,.96-.09,1.01-.23.18-.52,1.41-10.8,1.3-10.91-.18-.18-2.21-.41-2.35-.26-.07.07-.33,1.62-.56,3.43-.41,3.15-.44,3.27-.72,2.84-.16-.25-1.14-1.93-2.17-3.73-1.03-1.8-1.97-3.3-2.08-3.33-.96-.29-1.98-.21-2.13.16M134.27,210.16c-2.59.47-2.5.42-2.29,1.23.14.54.24.62.81.67l.65.06.59,3.61c.32,1.99.63,3.75.68,3.92.06.22-.07.34-.49.43-.58.13-.71,1.09-.22,1.58.17.17,4.46-.52,4.7-.76.44-.43-.07-1.47-.72-1.47-.35,0-.63-.02-.63-.05,0-.03-.29-1.7-.64-3.71-.77-4.41-.76-4.06-.09-4.19.74-.15.75-1.88,0-1.75-.06.01-1.11.2-2.35.43M152.51,208.5c1.8,1.51,2.37,5.47.93,6.35-1.91,1.16-3.47.03-4.27-3.1-.71-2.75,1.45-4.85,3.34-3.25M83.8,207.17c-2.27.91-2.46,4.05-.33,5.71,2.1,1.64,2.52,2.35,1.8,3.07-.55.54-1.29.45-2.86-.37-1.56-.81-1.61-.8-2.3.32l-.4.65.44.37c5.18,4.27,11.35-.47,6.34-4.87-1.98-1.74-2.15-2.08-1.31-2.63.59-.38,1.15-.25,2.55.6l1.08.66.61-.71c.79-.92.78-1.06-.13-1.71-1.56-1.13-4.11-1.63-5.48-1.08M150.17,205.93c-3.73,1.01-4.95,4.47-3,8.49,1.35,2.78,3.81,3.85,6.51,2.82,6.23-2.37,2.92-13.05-3.51-11.31M163.11,204.32c.91.98.77,2.15-.34,2.83-1.04.63-1.19.48-2.48-2.6-.29-.7,2.19-.9,2.81-.23M75.09,203.96c-.35.83-.37.75.26,1.07l.54.28-1.49,3.67-1.49,3.67-.58-.11c-.51-.1-.6-.05-.81.45-.35.85-.2.99,1.95,1.82,2.34.9,2.4.91,2.63.3.28-.74.22-.99-.29-1.19-.26-.1-.45-.25-.41-.34,1.91-5.05,2.99-7.31,3.41-7.15.67.26.76.22,1.09-.48.38-.8.43-.77-2.19-1.8-2.57-1.02-2.27-1-2.61-.19M160.45,202.08c-2.8,1.19-3.3,1.45-3.3,1.77,0,.42,4.51,9.96,4.74,10.04.2.07,1.96-.79,2.11-1.02.05-.08-.23-.84-.63-1.68-.88-1.88-.9-1.7.21-2.22,5.17-2.42,2.14-9.12-3.13-6.89M63.81,198.72c-.47.92-.47.91,1.2,1.83.75.42,1.37.79,1.37.83s-.67,1.33-1.48,2.86c-.81,1.53-1.76,3.34-2.1,4.03l-.63,1.24.98.56c.54.31,1.07.56,1.17.56s1.11-1.75,2.24-3.9c1.13-2.14,2.12-3.96,2.2-4.05.08-.08.81.19,1.63.6l1.49.75.55-.76c.72-1,.87-.87-3.78-3.27-4.48-2.31-4.34-2.27-4.84-1.28M58.31,197.67s-.12.47-.26.96c-.14.5-.39,1.38-.56,1.96l-.3,1.06-1.11-.75c-.61-.41-1.06-.81-.99-.87.71-.73,3.21-2.57,3.21-2.35M169.89,197.08c-2.22,1.32-4.06,2.43-4.1,2.46-.1.1.88,1.73,1.04,1.73.07,0,.38-.15.68-.33.3-.18.94-.55,1.41-.83l.86-.5,2.31,3.84c2.71,4.5,2.4,4.22,3.67,3.46,1.24-.74,1.42-.11-1.36-4.73l-2.36-3.94,1.28-.76c1.72-1.02,1.69-.97,1.25-1.97-.48-1.08.02-1.24-4.67,1.54M54,197.91c-5.17,3.82-5.02,3.65-3.75,4.43,1.16.72,1.06.73,2.12-.14.48-.4.97-.67,1.07-.61,1.22.72,3.22,2.09,3.22,2.2,0,.08-.12.59-.27,1.14-.31,1.15-.28,1.2.99,2.02,1.01.65,1.04.66,1.19.26.28-.72,2.49-11.29,2.39-11.44-.21-.34-1.72-1.27-2.04-1.26-.18,0-2.4,1.54-4.92,3.4M178.16,191.61c-2.09,1.53-2.08,1.51-1.5,2.24q.44.55.99.23l.55-.32,2.33,3.15c1.93,2.6,2.3,3.2,2.12,3.44-.41.56-.43.76-.13,1.21.5.76.92.56,3.73-1.69l.78-.63-.39-.55c-.38-.53-.54-.56-1.28-.26-.22.09-.88-.66-2.7-3.09l-2.41-3.21.5-.37c.49-.36.49-.38.19-.88-.48-.8-.84-.71-2.8.72M47.31,187.93c-1.83.94-2.07,2.45-.81,5.13,1.64,3.52-.16,4.71-2.38,1.59-.87-1.22-.81-1.2-1.86-.59-1.02.6-1.02.86.03,2.09,4.22,4.94,9.7,2.36,6.95-3.28-.87-1.78-.96-2.19-.6-2.55.62-.62,1.81,0,2.74,1.44.7,1.07.6,1.05,1.69.36l.87-.55-.3-.58c-1.34-2.59-4.37-4.06-6.31-3.06M190.52,181.19l-.62.64.7,2.07c.39,1.14,1.02,2.96,1.4,4.04.38,1.08.66,1.97.61,1.97s-1.91-.71-4.12-1.57l-4.03-1.57-.73.6c-.98.81-1.08.62,2.86,5.25,3.77,4.42,3.71,4.39,4.75,3.33l.71-.73-.35-.42c-.19-.23-1.13-1.26-2.07-2.3-.95-1.03-1.64-1.88-1.54-1.88s1.56.54,3.24,1.21c2.96,1.17,3.07,1.2,3.52.91.74-.49.72-.7-.34-3.63-.56-1.54-1.07-2.96-1.15-3.16-.07-.2.85.6,2.05,1.79,2.51,2.47,2.24,2.35,3.29,1.47,1.1-.92,1.29-.64-3.11-4.88-4.29-4.14-4.17-4.07-5.05-3.15M33.74,179.76c-2.17,1.98-4,3.71-4.08,3.84-.17.29,4.36,5.21,4.81,5.21.17,0,.58-.29.92-.63l.61-.63-1.11-1.25c-.61-.69-1.28-1.4-1.49-1.6-.59-.53-.56-.58,2.38-3.23,1.51-1.36,3-2.74,3.32-3.07l.58-.6-.81-.82c-1.07-1.09-.67-1.3-5.14,2.78M130.17,176.67c2.1,1.46,2.19,3.65.19,4.67-3.19,1.63-5.28-2.54-2.38-4.77.96-.74.99-.74,2.19.1M111.02,176.42c2.53,1.8,1.84,4.91-1.09,4.91-2.75,0-3.51-3.28-1.16-4.98.96-.69,1.17-.69,2.25.08M199.05,171.43c-.88,1.03-.94.93,2.09,3.4,3.54,2.88,4.01,3.65,3.12,5.09-1.24,2-2.27,1.75-6.34-1.56l-2.73-2.22-.78.87c-1.03,1.16-1.13.98,1.78,3.37,4.83,3.97,6.87,4.32,9.27,1.58,2.87-3.27,2.27-5.13-3.07-9.54q-2.46-2.03-3.35-.99M130.56,169.69c1.37.94,1.37,2.55,0,3.79-.87.79-.91.79-1.82.18-1.2-.79-1.65-1.83-1.28-2.95.39-1.17,2.09-1.74,3.11-1.03M31.65,169.62c-.53.42-.53.43-.2.93.4.61.68.32-3.1,3.21l-2.92,2.23-.43-.41-.43-.41-.5.37c-.7.52-.66.63.78,2.55,1.33,1.77,1.57,1.92,2.25,1.44.47-.33.52-.75.13-1.18-.25-.28,0-.52,2.95-2.74l3.22-2.43.44.42c.4.38.48.39.92.16.79-.42.73-.65-.78-2.65q-1.59-2.11-2.34-1.5M111.49,169.42c1.37.85,1.13,2.88-.47,4.11l-.56.43-.85-.54c-1.82-1.15-1.95-3.39-.25-4.15.6-.27,1.57-.2,2.13.15M116.15,169.15c-.06.28-.18.77-.26,1.1-.19.75-.02.86.76.46.62-.32,6.03-.62,6.03-.33,0,.07-1.53,2.72-3.39,5.91-3.97,6.77-3.83,6.33-1.97,6.26l1.42-.05.14-.98c.17-1.18.99-3.28,2.01-5.16,1.14-2.1,3.05-5.26,3.55-5.84.35-.42.42-.65.33-1.19l-.11-.67h-8.38l-.11.5ZM127.7,168.54c-2.55,1.11-2.95,4.11-.8,6.05l.8.72-.45.29c-3.99,2.59-2.87,7.23,1.75,7.25,4.61.02,6.34-4.67,2.7-7.33-.93-.68-.93-.61.08-1.35,3.49-2.57-.01-7.4-4.08-5.63M101.31,168.75c-1.01.24-2.06.43-2.33.44-.42,0-.53.12-.72.74-.26.85-.16,1.03.39.73.22-.12.91-.23,1.53-.24l1.13-.03v11.83h1.26c1.13,0,1.24-.03,1.1-.32-.09-.18-.17-3.29-.18-6.92-.02-3.63-.1-6.61-.18-6.63-.09-.02-.98.16-1.99.4M108.9,168.16c-2.89,1.03-3.47,4.1-1.17,6.13.82.72.83.75.45.95-4.29,2.29-2.85,7.58,1.98,7.3,4.71-.27,5.93-5.14,1.91-7.68l-.43-.27.83-.58c3.5-2.47.53-7.32-3.57-5.85M207.55,158.87c-.6.97-.61.94,1.95,4.62,1.28,1.84,2.29,3.37,2.26,3.4-.03.03-1.84-.14-4-.37-5.12-.55-4.68-.57-5.24.28-.7,1.06-.73,1.04,4.13,4.32,5.1,3.45,4.71,3.29,5.39,2.18.67-1.11.72-1.04-2.06-2.81-1.32-.84-2.37-1.57-2.32-1.61.08-.08,5.32.44,6.12.61.44.09,1.32-.66,1.32-1.14,0-.13-.83-1.41-1.85-2.83-1.02-1.42-1.82-2.61-1.79-2.64s1.21.6,2.6,1.4c2.82,1.62,2.7,1.62,3.53.2.6-1.03,1.1-.62-4.7-3.8-5.17-2.83-4.79-2.7-5.33-1.81M20.33,160.86c-5.07,3.08-5,3.02-4.25,4.21.67,1.07.63,1.08,3.72-.82,1.46-.9,2.68-1.61,2.71-1.57.03.03-.61,1.72-1.42,3.75-1.64,4.12-1.63,4.04-1.05,5.06q.61,1.08,5.71-2.03l4.71-2.87-.53-.94c-.72-1.29-.84-1.27-3.88.6-1.46.9-2.68,1.61-2.71,1.58-.03-.03.65-1.81,1.51-3.95l1.56-3.9-.48-.88c-.69-1.26-.52-1.31-5.59,1.77M197.31,152c-.35.63-1.51,2.47-2.59,4.08-15.77,23.62-38.3,38.44-64.29,42.27l-2.53.37-2.06,2.05c-2.33,2.32-2.31,2.28-1.38,2.2,32.14-2.96,59.67-20.48,75.54-48.06,1.75-3.05,1.77-2.78-.17-3.43-.83-.28-1.59-.53-1.7-.57-.1-.04-.47.45-.82,1.08M33.46,151.45c-.91.31-1.68.59-1.72.62-.23.2,3.96,7.08,6.43,10.55,14.39,20.24,35.7,34.09,59.74,38.83,3.96.78,11.27,1.76,11.54,1.54.34-.27-4.16-4.27-4.93-4.37-24.97-3.35-46.4-16.18-62.38-37.33-2.08-2.76-5.21-7.39-6.13-9.09-.4-.73-.76-1.32-.81-1.31-.05,0-.83.27-1.74.57M101.39,141.22c1.77.91,2.21,3.55.69,4.11-.22.08-1.55.2-2.95.27l-2.55.12.12-1.03c.35-2.96,2.54-4.59,4.69-3.48M147.98,141.23c3.28,1.71,3.86,11.16.84,13.81-1.27,1.11-3.12,1.2-4.49.21-3.42-2.48-2.89-13.43.68-14.22.27-.06.57-.14.67-.18.32-.12,1.81.13,2.29.38M16.59,144.96c-6.76,2.6-12.93,4.97-13.73,5.27-1.83.69-1.81.44-.38,3.86,17.95,43.11,57.7,72.04,104.42,75.98l2.29.19,2.38,2.36c3.12,3.08,4.86,4.7,5.07,4.7.09,0,1.81-1.59,3.81-3.53l3.64-3.53,3.27-.29c39.89-3.48,75.57-26.11,95.96-60.87,2.9-4.95,8.82-17.49,8.56-18.14-.04-.11-2.17-1-4.73-1.98-2.56-.98-8.75-3.35-13.76-5.27-8.84-3.39-9.52-3.61-10.11-3.39-.48.19-1.78,2.07-2.14,3.11l-.34,1,.57-.29c.59-.3,2.34-2.03,2.34-2.3,0-.29,2.54.43,3.1.88.1.08-1.11,3-2.3,5.53-.8,1.7-1.03,2.06-1.3,1.97-.18-.06-1.19-.42-2.25-.81l-1.93-.7-.3.57c-.4.74-.47.69,1.81,1.49,1.09.38,2.04.76,2.13.83.3.27-4.15,7.78-6.87,11.58-17.07,23.86-42.7,38.41-71.79,40.77-1.43.12-1.52.15-2.19.84l-.7.72h.74c12.99,0,31.91-5.77,45.27-13.81,18.12-10.9,34.65-30.2,40.81-47.66.13-.38.3-.69.37-.69.15,0,21.68,8.26,21.79,8.36.15.14-1.91,4.86-3.93,8.96-19.19,39.11-57.65,65.02-101,68.03l-1.8.12-3.38,3.3-3.38,3.3-3.41-3.3-3.41-3.3-1.78-.12c-43.15-2.99-81.65-28.85-100.78-67.66-1.52-3.08-3.7-7.96-4.02-8.98-.11-.34,21.52-8.98,21.77-8.69.04.04.5,1.1,1.02,2.34,11.44,27.32,35.8,48.62,64.59,56.47,6.3,1.72,16.31,3.32,20.78,3.33h.72s-.7-.72-.7-.72c-.67-.69-.76-.72-2.19-.84-32.8-2.66-61.36-21.03-77.5-49.87-.72-1.29-1.24-2.4-1.16-2.48.08-.07.81-.37,1.62-.65,2.8-.99,2.71-.93,2.38-1.56-.36-.69-.33-.69-2.74.19-1.1.4-2.04.73-2.07.73-.23,0-3.4-7.28-3.26-7.5.12-.19,2.39-1.12,2.72-1.11.12,0,.46.33.74.73.52.73,2.08,1.95,2.27,1.77.35-.35-1.53-3.58-2.26-3.86-.62-.24-1.52.08-13.36,4.63M75.98,139.08l-2.41.06.81,1.23c1.01,1.54,1.83,3.63,3.8,9.76,1.43,4.43,1.68,5.29,2.03,6.82l.11.5,2.22-.05,2.22-.05.33-1.3c.18-.72,1.3-3.56,2.48-6.32,2.84-6.64,3.37-7.76,4.38-9.32,1.04-1.61,1.22-1.47-1.79-1.34l-2.51.11v.71c0,1.45-.62,3.64-2.29,8.01l-1.71,4.49-.47-1.54c-1.36-4.48-2.51-8.69-2.69-9.81-.36-2.25-.27-2.09-1.24-2.05-.48.02-1.95.07-3.28.1M166.84,139.18c-1.15.49-1.83.93-3.23,2.11l-.96.81v-3.14l-2.71.11c-3.22.12-2.85-.1-2.48,1.53.34,1.51.47,11.85.19,15.15l-.14,1.68h2.94c1.62,0,2.94-.06,2.94-.12s-.13-.78-.28-1.59c-.38-1.95-.47-9.55-.13-10.67.88-2.88,5.3-3.75,6.74-1.32.4.67.56,9.6.23,12.48l-.14,1.23h3.03c1.67,0,3.03-.02,3.03-.04s-.13-.61-.29-1.32c-.21-.93-.33-2.92-.43-7.24-.17-7.45-.43-8.32-2.85-9.59-1.18-.61-4.07-.66-5.44-.08M144.04,139.02c-8.89,1.94-10.07,15.82-1.57,18.44,6.15,1.9,12.08-1.26,13.3-7.07,1.64-7.8-3.83-13.1-11.73-11.37M118.65,139.04c-1.04.45-1.75,1.09-2.98,2.68l-1.16,1.5-.05-2.07-.05-2.07-1.67.12c-.92.07-2.06.12-2.53.12h-.86l.28,1.24c.31,1.37.43,13.3.16,15.67l-.14,1.23h2.94c1.62,0,2.94-.06,2.94-.13s-.12-.7-.27-1.41c-.32-1.5-.39-8.96-.1-9.98.65-2.27,2.93-3.38,4.27-2.07.78.76.99.74,1.22-.1.1-.38.43-1.55.73-2.61.5-1.77.52-1.94.24-2.15-.41-.31-2.2-.28-2.97.06M98.84,138.88c-9.63,1.61-9.93,16.97-.38,18.96,2.08.43,7.28-.21,8.01-.99.39-.42,1.01-3.24.72-3.24-.05,0-.6.27-1.24.6-4.25,2.2-9.29-.84-9.31-5.59v-.69s5.29,0,5.29,0c6.27,0,5.81.18,5.78-2.28-.04-4.71-3.85-7.61-8.88-6.77M129.55,134.3c-.5.26-1.57.75-2.38,1.08l-1.46.6.05,1.65.05,1.65-1.15.06-1.15.06-.21.74c-.12.41-.27,1.01-.35,1.35l-.13.62,1.39-.13c.77-.07,1.41-.1,1.42-.07.02.03.08,2.87.14,6.3l.11,6.23.49,1.04c1.11,2.36,3.87,3.09,7.87,2.08l1.21-.31.34-1.35c.4-1.61.34-1.71-.79-1.31-3.72,1.33-4.47.04-4.4-7.59l.05-5.03,2.48.05,2.48.05.38-1.44.38-1.44-2.93.08-2.93.08.11-1.17c.46-4.84.49-4.7-1.07-3.88M57.48,131.97c.48,1.63.56,3.34.55,12.65,0,6.46-.08,10.31-.22,11.27-.12.8-.2,1.48-.18,1.5.02.02,3.64.06,8.04.09l8,.06.57-2.03c.8-2.86.68-3.35-.58-2.39-1.57,1.2-2.59,1.49-5.27,1.49-4.4,0-4.65-.31-4.74-5.85l-.06-3.83,4.02.1,4.02.1.41-1.56q.49-1.86-1.26-1.68c-.76.08-2.69.15-4.29.16h-2.92s.12-3.78.12-3.78c.07-2.08.15-3.82.19-3.86.04-.04,1.06-.08,2.26-.08,2.78,0,3.97.31,5.1,1.35.45.41.86.71.91.65.1-.1,1.1-3.6,1.21-4.24.06-.33-.21-.35-7.96-.37-7.05-.02-8.01.01-7.94.25M22.54,127.25c-.39,1.35-.05,4.67.63,6.19.15.33-17.95,8.41-18.22,8.13-1.01-1.06-1.61-4.82-.94-5.88.53-.84.47-.81,9.78-5.1,9.41-4.34,8.99-4.18,8.75-3.34M225.08,133.17c4.22,1.92,4.6,2.31,4.45,4.57-.08,1.22-.86,3.63-1.25,3.87-.09.05-4.23-1.69-9.2-3.88l-9.05-3.98.44-1.48c.44-1.49.52-4.6.15-5.46-.09-.21,1.88.61,5.79,2.4,3.26,1.49,7.17,3.28,8.68,3.97M204.87,123.72c-.33.14-.41.32-.41.93,0,.65.05.74.32.63,1.01-.41,1.4-.49,1.93-.39,2.51.47,3.5,3.71,2.27,7.41-.78,2.34-1.1,2.02,4.45,4.48,5.62,2.5,5.11,2.18,4.62,2.87-1.14,1.6-2.05,4.14-1.54,4.29.18.05.46.15.62.22.22.09.4-.16.78-1.13.53-1.36,1.7-3.35,1.97-3.35.09,0,2.03.83,4.31,1.84,2.32,1.03,4.28,1.8,4.46,1.74.98-.31,2.49-4.24,2.36-6.15-.17-2.54-.86-3.19-5.68-5.4-1.94-.89-6.71-3.06-10.59-4.84-7.47-3.42-8.48-3.74-9.86-3.15M25.12,123.89c-2.7,1.08-20.74,9.48-21.27,9.9-1.98,1.57-2.14,4.45-.42,7.87,1.01,2.02.8,2.02,5.62-.14,2.28-1.02,4.22-1.85,4.32-1.85.27,0,1.43,1.97,1.97,3.35.38.97.56,1.23.78,1.13.16-.07.43-.16.61-.21.54-.15-.34-2.61-1.52-4.28-.5-.7-1.03-.36,4.61-2.87,5.54-2.47,5.24-2.17,4.47-4.4-1-2.86-.51-6.05,1.06-7.01,1.07-.65,1.71-.67,3.13-.1.49.2.46-1.29-.03-1.55-.55-.3-2.4-.21-3.31.16M209.41,123.45c.25.14.54.26.64.26s-.02-.12-.28-.26c-.25-.14-.54-.26-.64-.26s.02.12.28.26M204.51,118.86c0,.5.04.69.08.41s.04-.69,0-.92c-.04-.23-.08,0-.08.51M134.63,116.35l1.52.5.05,3.9c.06,4.55.33,4.21-2.52,3.18l-1.93-.7-.05-3.55c-.07-4.65-.31-4.38,2.93-3.32M127.62,114.25l1.93.6.05,3.56c.06,4.48.28,4.14-2.1,3.35-2.68-.89-2.44-.45-2.44-4.57s-.27-3.83,2.57-2.94M120.93,112.2l1.92.59v3.64c0,2.79-.05,3.63-.23,3.63-.13,0-1.1-.33-2.15-.71l-1.93-.7-.05-3.62c-.04-3.2-.02-3.61.23-3.51.16.06,1.15.37,2.2.69M114.06,109.94l2.1.7.05,3.51c.06,4.11.32,3.83-2.53,2.79l-1.93-.7-.05-3.51c-.03-1.93.02-3.51.1-3.51s1.09.32,2.25.7M107.59,107.71l1.88.65v7.08l-2.05-.73c-1.13-.4-2.12-.77-2.2-.82-.35-.21-.18-7.09.17-6.95.18.07,1.17.42,2.2.78M100.39,105.11c2.76,1,2.48.49,2.48,4.39,0,1.86-.06,3.41-.14,3.46-.08.05-1.09-.26-2.25-.68l-2.11-.76-.05-3.53c-.03-2.01.02-3.53.12-3.53s.97.29,1.95.64M126.98,71.11c2.74.4,6.86,1.26,8.07,1.69.71.25.74.29.79,1.18l.05.92-2.14-.43c-4.31-.88-7.6-.99-7.6-.26,0,.29.2.36,1.33.46,3.5.31,6,.91,7.56,1.8l.73.42.05,1.34c.05,1.22.02,1.33-.28,1.24-2.09-.6-8.25-1.51-12.12-1.79l-3.06-.22.16-3.48.16-3.48,1.85.12c1.02.07,3.01.29,4.42.49M119.27,70.58s-.06,1.83-.19,4c-.13,2.17-.24,4.21-.24,4.54v.6h-2.31c-1.68,0-2.32-.06-2.37-.23-.04-.13-.18-2.19-.32-4.58l-.24-4.35,1.47-.07c1.49-.07,4.13-.02,4.2.09M126.75,66.97c3.73.4,6.74.93,7.98,1.42l1.05.41.06.96c.04.78,0,.96-.23.96-.16,0-2.21-.24-4.55-.54-2.34-.3-5.56-.62-7.15-.71-2.44-.14-2.95-.22-3.27-.51-.54-.49-8.58-.54-9.06-.05-.27.27-.28.64-.1,3.65.11,1.85.2,3.79.2,4.31v.95l-1.24.12c-1.54.16-7.69,1.01-8.25,1.15-.32.08-.65.8-.37.79.03,0,1.24-.12,2.7-.27,1.46-.15,3.71-.32,5-.39l2.34-.13v.63c0,1.27.04,1.29,4.22,1.29s4.22-.01,4.22-1.29v-.63l1.7.13c5.22.39,11.16,1.59,13.39,2.71.66.33.69.39.69,1.26,0,1.09.27,1.06-3.21.36-3.17-.63-6.75-.91-7.4-.56-.64.34-.19.7,1.04.84,3.64.39,6.07,1,8.24,2.06l1.33.65v2.02l-.6-.1c-.33-.06-2.05-.35-3.83-.66-6.39-1.1-7.5-1.2-13.73-1.2-8.21,0-12.21.39-12.06,1.16.05.27.81.3,7.48.31,10.48.03,16.79.81,21.68,2.69l1.05.41v1.24c0,.87-.07,1.24-.23,1.24-.13,0-1.26-.2-2.52-.45-5.29-1.04-13.73-1.61-14.27-.96-.39.47.18.62,2.9.75,4.39.21,10.14,1.21,12.78,2.24l1.32.51.07,1.2c.09,1.54.22,1.47-2.24,1.19-3.79-.43-6.23-.32-6.23.28,0,.27.33.35,2.3.54,2.32.22,4.36.66,5.63,1.2l.69.29v1.65c0,.91-.04,1.65-.08,1.65s-.93-.22-1.97-.48c-2.36-.6-10.21-.88-10.86-.39-.83.63-.29.8,2.85.92,3.25.13,6.24.59,8.58,1.33l1.47.47v1.55c0,.85-.06,1.55-.14,1.55-.08,0-.92-.17-1.88-.37-2.55-.54-6.19-.7-6.35-.28-.21.54.18.68,2.8,1.04,2.4.33,3.26.49,4.88.92l.69.18v2.39c0,2.19-.03,2.38-.32,2.29-.18-.05-1.52-.44-2.98-.85-8.51-2.42-23.25-7.32-29.25-9.71-3.38-1.35-5.07-2.54-5.38-3.81-.1-.38-.22-7.56-.28-16.13l-.11-15.45.42-.28c1-.66,4.87-1.37,9.38-1.74,1.31-.11,2.75-.22,3.21-.26,2-.17,13.26.07,15.82.34M124.69,61.85c6.05.71,11.52,2.22,12.51,3.45,1.09,1.36.08,2.2-1.79,1.5-8.88-3.35-24.35-3.77-35.11-.97-3.77.98-4.27,1.03-4.65.49-.45-.64-.36-1.17.27-1.7,1.37-1.15,8.67-2.45,17.5-3.12,1.9-.14,8.9.08,11.28.36M157.64,57.48c-.48.16-1.22.6-1.64.97l-.76.68.45.25c1.22.66,4.12.04,5.23-1.12.38-.4.57-.48.75-.34.19.15,0,.38-.83,1-2.11,1.58-2.61,2.45-2.02,3.46.51.86.52.86,1.31-.68.78-1.51,1.88-3.07,2.16-3.07.26,0,1.81,2.17,2.49,3.49l.57,1.1.49-.74c.71-1.07.26-1.83-2.12-3.6-.82-.6-1-.82-.81-.97.18-.15.36-.07.75.33,1.11,1.16,4.01,1.78,5.22,1.12l.45-.24-.65-.59c-1.4-1.28-3.79-1.71-5.48-.99l-.9.39-.91-.39c-1.08-.47-2.48-.49-3.73-.07M66.11,57.62c-.6.25-1.33.69-1.63.99l-.54.54.44.24c1.2.65,4.11.02,5.21-1.13.39-.41.57-.49.75-.33.19.16.08.32-.54.75-.96.68-2.06,1.71-2.55,2.39l-.37.51.49.84.49.84.73-1.35c.77-1.43,2.1-3.27,2.36-3.27s1.4,1.62,2.13,3.03q.82,1.6,1.41.6l.45-.76-.76-.9c-.42-.5-1.24-1.26-1.81-1.69-.82-.62-1-.83-.81-.99.18-.15.36-.07.75.34,1.1,1.15,4.01,1.78,5.21,1.13l.43-.23-.43-.46c-1.27-1.36-3.89-1.9-5.62-1.16l-.96.41-.91-.39c-1.22-.52-2.56-.5-3.94.07M168.33,55.72c-1.39.42-1.18,1.1.53,1.76,1.81.7,5.11.18,4.33-.68-.8-.89-3.52-1.49-4.86-1.08M153.44,55.76c-1.01.28-2.41,1.16-2.25,1.41.77,1.24,6.14.45,6.14-.91,0-.53-2.59-.87-3.89-.5M77.29,55.63c-1.68.42-1.73.84-.19,1.62,1.71.87,5.66.59,4.87-.36-.67-.81-3.47-1.57-4.68-1.27M62.3,55.72c-2.99.7-3.02,2.08-.04,2.08,1.75,0,3.76-.83,3.76-1.56,0-.49-2.43-.83-3.72-.52M172.96,53.1c-.92.29-2.24,1.17-2.24,1.48,0,1.14,4.8.48,5.87-.8.7-.84-1.7-1.29-3.62-.68M167.78,52.94c-2.37.72-5.11,4.08-3.11,3.81,1.39-.19,2.79-1.12,3.87-2.59.89-1.21.62-1.64-.76-1.22M155.5,52.93c0,1.35,3.01,3.86,4.63,3.86.55,0,.59-.11.33-.81-.6-1.58-4.96-4.27-4.96-3.05M148.89,52.9c-.15.06-.47.18-.71.27l-.44.16.44.47c1.29,1.38,5.67,1.93,5.67.71,0-.9-3.67-2.09-4.95-1.61M81.72,53.02c-.93.26-2.39,1.18-2.38,1.49.05,1.21,4.44.67,5.72-.71l.44-.47-.53-.21c-.81-.33-2.27-.37-3.25-.09M76.46,52.94c-1.78.54-3.85,2.53-3.85,3.69s3.96-1.17,4.78-2.79c.56-1.09.35-1.29-.93-.9M64.18,53.08c0,1.24,3.07,3.71,4.63,3.72,1.26,0-.49-2.49-2.44-3.49-1.11-.57-2.19-.68-2.19-.23M57.27,52.96c-1.17.36-.98.79.73,1.64,2.33,1.16,5.78.49,3.85-.76-1.43-.92-3.28-1.28-4.58-.88M176.77,48.72c-1.39.42-2.79,1.45-3.4,2.49-.58,1-.58,1.01.29,1.01,1.4,0,3.29-1.14,4.21-2.54.73-1.09.37-1.41-1.1-.96M146.33,48.9c0,1.07,2.77,3.12,4.44,3.28,1.07.1,1.13-.11.34-1.2-1.21-1.67-4.78-3.22-4.78-2.08M85.16,48.81c-2.4.75-4.61,3.56-2.66,3.37,1.82-.17,4.42-2.2,4.42-3.44,0-.26-.83-.22-1.76.07M54.95,48.69c-.34.54,1.75,2.63,3.26,3.26.7.29,2.12.37,2.12.11,0-1.42-4.75-4.4-5.38-3.37M171.84,48.52c-1.35,1.35-2.6,5.34-1.67,5.34,1.14,0,3.19-4.15,2.8-5.66-.14-.55-.32-.5-1.13.32M151.69,49.09c.17,2.43,2.59,5.93,3,4.33.28-1.1-.94-4.08-2.07-5.07-.92-.81-1.03-.72-.92.74M80.63,48.36c-1.79,1.57-2.96,6.37-1.26,5.16,1.16-.82,2.24-3.14,2.24-4.8,0-1.06-.13-1.11-.97-.37M60.36,49.07c.11,1.93,1.75,4.8,2.75,4.8.86,0-.35-3.94-1.62-5.28-1.04-1.1-1.21-1.03-1.13.48M178.23,44.8c-2.04.95-3.72,3.2-2.39,3.2,1.7,0,4.77-2.2,4.77-3.42,0-.41-1.28-.29-2.38.22M143.94,44.45c0,.42,1.05,1.78,1.78,2.32,1.27.93,3.72,1.63,3.72,1.07,0-.31-.96-1.59-1.62-2.17-1.03-.91-3.88-1.8-3.88-1.21M87.22,44.62c-1.41.52-3.42,2.45-3.42,3.28,0,.47,2.41-.2,3.57-.99.75-.52,1.93-2,1.93-2.42,0-.23-1.31-.15-2.08.14M52.63,44.58c0,.82,1.8,2.5,3.29,3.07,2.36.89,2.7.26.85-1.57-1.43-1.41-4.14-2.39-4.14-1.49M174.14,42.54c-.96,1.68-1.28,4.51-.64,5.72l.28.53.52-.88c.92-1.57,1.24-3.69.81-5.27-.27-.97-.46-.99-.97-.1M149.6,42.25c-.56,1.36-.11,4.69.78,5.83.52.66.64.6.9-.47.56-2.33-.95-7.14-1.68-5.36M82.81,42.45c-1.32,2-1.35,7.21-.03,5.76.86-.95,1.38-3.56,1.03-5.22-.27-1.31-.43-1.4-1-.54M58.31,42.14c-.67,1.25-.38,3.97.59,5.67l.56.99.29-.54c.69-1.29.2-4.74-.86-6.11l-.34-.44-.23.44ZM202.7,40.89l-.54.6.6-.54c.56-.5.68-.65.54-.65-.03,0-.3.27-.6.6M179.38,40.02c-1.32.57-2.75,2.52-3.14,4.27-.21.93-.11,1.03.68.64,1.42-.69,2.91-2.77,3.22-4.49.14-.76.09-.79-.76-.42M144.5,40.35c0,1.41,1.65,3.77,3.18,4.56.87.45.91.41.67-.66-.54-2.42-3.86-5.77-3.85-3.9M87.88,40.14c-1.54.76-3.76,4.39-3.09,5.06.76.75,4.09-3.39,3.93-4.89l-.06-.55-.78.39ZM52.99,39.98c0,1.83,3.34,6.02,4.15,5.22.27-.27-.7-2.64-1.52-3.73-.77-1.01-2.63-2.06-2.63-1.49M29.16,39.62s.27.3.6.6l.6.54-.54-.6c-.5-.56-.65-.68-.65-.54M205,38.42l-1.19,1.24,1.24-1.19c1.15-1.1,1.32-1.29,1.19-1.29-.03,0-.59.56-1.24,1.24M173.71,37.4c.2,1.72,2.22,4.68,2.89,4.26.63-.39-.53-3.32-1.76-4.46-1.1-1.01-1.27-.98-1.13.2M149.82,37.11c-1.38,1.25-2.68,5.12-1.51,4.49,1.2-.64,2.6-3,2.6-4.37,0-.95-.16-.97-1.09-.12M82.38,37.43c.16,1.54,1.22,3.37,2.32,4.02,1.49.88.38-2.86-1.31-4.38-.98-.88-1.14-.83-1.02.35M58.23,37.37c-1.23,1.31-2.34,4.39-1.59,4.39.91,0,2.69-2.7,2.89-4.37.15-1.25-.15-1.26-1.3-.03M24.02,34.48s.64.67,1.42,1.42l1.42,1.37-1.37-1.42c-1.27-1.32-1.47-1.5-1.47-1.37M208.12,35.49l-1.19,1.24,1.24-1.19c1.15-1.1,1.32-1.29,1.19-1.29-.03,0-.59.56-1.24,1.24M179.15,34.91c-1.47,1.33-2.96,6.09-1.69,5.41,1.28-.68,2.56-3.03,2.74-5.02.12-1.26-.03-1.32-1.05-.39M144.4,34.43c-.5.81.86,4.25,2.13,5.4.94.85,1.17.68,1-.7-.26-2.06-2.59-5.57-3.13-4.7M87.77,34.98c-1.36,1.26-2.42,4.01-1.98,5.16.17.43.19.42,1.17-.59,2.07-2.11,2.83-6.44.8-4.57M53.04,35.3c.19,1.99,1.47,4.34,2.74,5.02,1.3.69-.25-4.16-1.73-5.42-1.02-.88-1.13-.84-1.01.4M171.18,32.46c.49,1.59,2.76,3.61,4.07,3.62.61,0-.24-1.73-1.35-2.75-1.31-1.21-2.99-1.75-2.72-.87M151.81,32.5c-1.24.65-3.11,3.08-2.69,3.5.52.52,3-1.14,3.81-2.56.87-1.52.53-1.81-1.12-.95M79.77,32.28c.01,1.34,3.64,4.44,4.36,3.73.21-.21-.78-1.98-1.45-2.58-1.19-1.08-2.91-1.75-2.9-1.14M60.57,32.43c-1.73.85-3.7,3.92-2.3,3.57,1.61-.4,3.35-2.02,3.8-3.54.16-.55-.43-.56-1.5-.03M177.05,31.45c-.96,1.44-1.31,3.89-.81,5.57.58,1.93,2.2-2.29,1.8-4.7-.26-1.62-.42-1.75-1-.87M146.73,31.45c-.5,1.65-.07,4.39.89,5.74l.42.59.28-.53c.67-1.28.17-4.82-.86-5.96l-.51-.57-.22.73ZM85.85,31.22c-1.06,1.34-1.53,4.46-.91,5.96l.27.64.56-.88c1.26-1.97,1.33-7.32.08-5.72M55.37,31.42c-.54,1.62.11,5.14,1.11,6.05.83.76.99-3.35.19-5.17-.64-1.47-1.02-1.72-1.3-.87M118.55,31.1c-.05.05-.63.16-1.28.24-2.69.32-2.43,1.07.37,1.07h1.67l.31.65c.38.8.39,1,.04,1-.5,0-1.75.59-1.75.82s1.14.46,2.23.46c.47,0,.59.13,1.07,1.14.69,1.46.67,1.48-2.07,1.7-2.64.22-3.33.7-1.29.9,4.28.43,4.82.6,5.34,1.68.48.99.58.94-2.14,1.05-3.23.13-3.25.71-.03,1.01,2.94.28,3.27.44,3.97,1.86.75,1.52.82,1.47-2.03,1.47-3.59,0-4.38.88-1.07,1.19,3.71.35,4.9.92,5.69,2.75.72,1.69.87,1.53-1.25,1.34-2.7-.25-8.01-.27-8.25-.04-.42.41.38.65,3.05.91,3.01.3,6.37.85,7.46,1.23.64.22.77.39,1.45,1.84.89,1.92.94,1.86-1.08,1.52-4.1-.7-6.85-.79-6.85-.21,0,.38.07.4,2.38.73,3.78.54,7.19,1.5,7.51,2.11.24.45.31.44-1.65.1-8.8-1.55-19.81-1.52-27.55.08-.88.18-1.6.29-1.6.23s3.19-6.91,7.09-15.24c3.9-8.33,7.37-15.76,7.72-16.52l.63-1.38.99,2.09c.54,1.15.95,2.13.89,2.19M174.73,27.05c-.69,1.8-.56,4.43.29,5.84l.44.72.33-.73c.53-1.17.47-4.3-.1-5.45-.5-1-.69-1.07-.96-.37M149.2,26.93c-.89,1.36-1.07,4.27-.35,5.86l.37.82.51-1.1c1.04-2.21.56-7.24-.53-5.58M83.3,27.21c-.55,1.23-.45,3.93.19,5.29l.52,1.1.39-.73c.77-1.43.43-5.36-.52-6.15-.22-.18-.32-.1-.58.49M57.56,27.51c-.57,1.26-.62,4.2-.1,5.36l.33.73.44-.72c.66-1.09.94-2.95.66-4.45-.4-2.15-.68-2.35-1.33-.92M170.04,27.13c.21,1.78,1.45,3.73,2.88,4.53l.79.44-.11-.94c-.21-1.75-1.19-3.45-2.56-4.44-1.02-.74-1.12-.7-.99.41M153.54,26.73c-1.67,1.22-3.39,5.14-2.27,5.14s3.07-2.87,3.26-4.71c.12-1.13.02-1.17-.99-.43M78.72,27.18c.19,1.83,2.19,4.68,3.29,4.68s-.69-3.99-2.29-5.15c-1.02-.74-1.12-.7-1,.47M62.21,26.72c-1.3.94-2.31,2.71-2.54,4.44l-.12.92.74-.38c1.37-.7,2.71-2.79,2.92-4.57.13-1.11.03-1.16-.99-.41M194.74,20.92s.27.3.6.6l.6.54-.54-.6c-.5-.56-.65-.68-.65-.54M115.04,19.87c-.62.66-.66.79-.7,2.28-.04,1.52-18.1,39.5-19.07,40.1-3.66,2.26-4.28,6.16-1.15,7.26.3.11.32,1.03.32,15.94v15.83l-.59.18c-.97.29-1.05.67-1.05,4.9,0,4.11.12,4.8.94,5.33.24.15,8.43,3.14,18.21,6.63,27.03,9.66,24.11,8.41,24.11,10.31v1.37l1.54-.06c2.74-.11,2.82-.33,2.9-7.31.06-5.51-.02-6.11-.92-6.76l-.49-.36v-6.39c0-3.51.02-13.94.05-23.18l.05-16.8.83-.52c2.35-1.48,1.94-3.8-1.03-5.9-.75-.53-1.5-1.06-1.67-1.19-.68-.51-18.73-38.84-18.69-39.69.11-2.18-2.18-3.45-3.58-1.97M192.54,18.9s.27.3.6.6l.6.54-.54-.6c-.5-.56-.65-.68-.65-.54M191.07,17.66c.34.35.66.64.71.64s-.19-.29-.53-.64c-.34-.35-.66-.64-.71-.64s.19.29.53.64M189.05,15.82c.34.35.66.64.71.64s-.19-.29-.53-.64c-.34-.35-.66-.64-.71-.64s.19.29.53.64M44.09,15.78l-.54.6.6-.54c.56-.5.68-.65.54-.65-.03,0-.3.27-.6.6M186.94,13.9c.39.4.76.73.81.73s-.23-.33-.62-.73c-.39-.4-.76-.73-.81-.73s.23.33.62.73M185.01,12.11c.45.48.84.87.87.87.14,0,0-.16-.82-.92l-.87-.82.82.87ZM48.13,12.11l-.73.78.78-.73c.43-.4.78-.75.78-.78,0-.14-.16,0-.83.73M50.23,10.18l-.63.69.69-.63c.38-.35.69-.66.69-.69,0-.14-.15,0-.74.63M182.81,10.09c.76.81.92.96.92.82,0-.03-.39-.42-.87-.87l-.87-.82.82.87ZM180.89,8.4c.5.5.94.92,1,.92s-.32-.41-.81-.92c-.5-.5-.94-.92-1-.92s.32.41.81.92M52.26,8.3c-.45.45-.77.83-.72.83s.46-.37.9-.83c.45-.45.77-.82.72-.82s-.46.37-.9.82M178.88,6.56c.5.5.94.92.99.92s-.31-.41-.81-.92c-.5-.5-.94-.92-.99-.92s.31.41.81.92M117.89,6.45c14.4,9.49,36.78,9.93,52.04,1.02,1.11-.65,1.99-1.05,2.12-.97.25.15,28.58,25.91,29.8,27.09l.79.76-2.05,2.19c-5.12,5.47-9.29,11.5-11.16,16.15-2.98,7.43-1.9,17.46,3.57,33.16,3.5,10.03,4.26,12.61,5.29,17.97,3.74,19.38,1.37,36.71-6.67,48.86-15.71,23.73-37.48,38.01-63.15,41.44l-2.56.34-3.22,3.18c-1.77,1.75-3.86,3.79-4.64,4.54l-1.42,1.37-4.54-4.52c-3.82-3.81-4.64-4.54-5.18-4.62-.35-.06-1.63-.24-2.84-.4-20.69-2.79-40.21-13.78-54.53-30.69-10.83-12.8-15.09-22.49-16.15-36.76-.76-10.32,1.01-23.72,4.49-33.83,6.55-19.07,7.48-22.94,7.5-31.35.03-7.96-3.94-15.66-12.78-24.86l-2.03-2.12.81-.79c.69-.67,28.51-25.94,29.65-26.94.39-.34.41-.33,1.82.52,15.34,9.22,39.34,8.74,53.05-1.07.8-.57.58-.61,2,.33M54.36,6.43l-.73.78.78-.72c.43-.4.78-.75.78-.78,0-.14-.16,0-.83.72M176.68,4.55c.5.5.94.92.99.92s-.31-.41-.81-.92c-.5-.5-.94-.92-.99-.92s.31.41.81.92M56.48,4.45c-.45.45-.77.82-.72.82s.46-.37.9-.82c.45-.45.77-.82.72-.82s-.46.37-.9.82M114.23,3.5c-5.99,3.93-12.61,6.22-20.5,7.1-10.55,1.17-21.99-1.4-30.65-6.89-1.37-.87-1.98-1.16-2.2-1.05-.17.08-8.07,7.24-17.56,15.91l-17.25,15.76,2.35,2.3c5.42,5.32,10.17,11.77,12.34,16.74,3.12,7.16,1.95,16.37-4.33,34.14-2.73,7.72-4.04,12.54-4.95,18.24-3.24,20.28-.61,36.4,8.06,49.33,15.94,23.78,37.9,38.18,63.99,41.97l2.56.37,5.28,5.27,5.28,5.27,5.28-5.27,5.28-5.27,2.56-.37c26.27-3.81,48.09-18.25,64.41-42.62,11.11-16.6,11.99-40.66,2.45-67.62-5.44-15.39-6.94-25.13-4.85-31.53,1.66-5.08,6.63-12.19,12.79-18.29l2.69-2.66-17.53-15.97-17.53-15.97-1.96,1.28c-14.72,9.65-36.36,9.55-51.29-.23-2.64-1.73-1.93-1.74-4.68.06M174.66,2.71c.5.5.94.92,1,.92s-.32-.41-.81-.92c-.5-.5-.94-.92-1-.92s.32.41.81.92M58.4,2.76l-.91.96.96-.91c.53-.5.96-.93.96-.96,0-.14-.17.02-1.02.91M172.2.56s.41.33.81.69l.73.64-.63-.69c-.35-.38-.71-.69-.81-.69s-.14.02-.1.05M60.13,1.2l-.63.69.73-.64c.4-.35.77-.66.81-.69.04-.03,0-.05-.1-.05s-.46.31-.81.69"/><path class="cls-2" d="M116.1,211.73h1.62v.82c0,.82,0,.83-.64.83h-.64v8.04l.5.06c.45.05.51.14.56.84l.06.78h-4.97v-.82c0-.79.02-.82.55-.82h.55v-1.42c0-.78.06-2.6.12-4.03.12-2.56.11-2.61-.26-2.61-.75,0-.96-.2-.96-.91,0-.89.12-.98,1.08-.85.44.06,1.54.11,2.43.11M127,211.19c1.71.3,1.82.43,1.4,1.55-.29.78-.41.9-.79.86-2.69-.28-2.83-.28-3.27.09-.94.76-.43,1.3,2.09,2.2,4.33,1.55,4.01,6.28-.47,7.01-1.06.17-3.8-.07-4.1-.36-.37-.37.32-2.11.81-2.06,2.58.27,2.88.26,3.42-.02,1.27-.66.89-1.55-.98-2.3-3.24-1.3-3.75-1.76-3.88-3.53-.18-2.53,2.34-4.04,5.76-3.44M100.96,210.53c.11.03,1.05,1.53,2.08,3.33,1.03,1.8,2.01,3.48,2.17,3.73.28.44.31.32.72-2.84.23-1.81.49-3.35.56-3.43.14-.14,2.17.08,2.35.26.1.1-1.13,10.39-1.3,10.91-.05.14-.43.23-1.01.23-1.23,0-1.33-.11-3.66-4.17-1.1-1.92-1.97-3.25-2.04-3.12-.06.13-.26,1.47-.43,2.98-.43,3.77-.36,3.66-2.28,3.28-.72-.14-.72.13-.01-5.84.71-6,.7-5.97,2.85-5.32M136.94,209.93c.47.47.27,1.43-.33,1.55-.67.13-.68-.22.09,4.19.35,2.02.64,3.69.64,3.71,0,.03.29.05.63.05.65,0,1.16,1.04.72,1.47-.24.24-4.53.93-4.7.76-.49-.49-.36-1.45.22-1.58.42-.09.55-.21.49-.43-.05-.17-.35-1.93-.68-3.92l-.59-3.61-.65-.06c-.57-.05-.67-.13-.81-.67-.21-.83-.32-.79,4.64-1.66.06,0,.2.08.32.2M149.72,208.67c-1.82,1.82.28,7.16,2.62,6.64,2.16-.47,2.58-2.6,1.1-5.55-.91-1.81-2.53-2.29-3.72-1.09M87.53,207.33c2.33.87,2.81,1.55,1.88,2.63l-.61.71-1.08-.66c-1.39-.85-1.96-.99-2.55-.6-.84.55-.67.89,1.31,2.63,5.02,4.39-1.15,9.13-6.34,4.87l-.44-.37.4-.65c.69-1.12.74-1.13,2.3-.32,1.58.82,2.32.91,2.86.37.72-.72.31-1.42-1.8-3.07-3.66-2.86-.45-7.23,4.06-5.54M152.77,205.86c4.1,1.14,5.71,8.07,2.46,10.55-3.64,2.78-8.03.58-8.9-4.47-.66-3.84,2.79-7.1,6.44-6.08M160.76,204.14c-.28.15-.49.34-.46.42,1.29,3.08,1.44,3.23,2.48,2.6,2.17-1.32.22-4.23-2.02-3.02M77.7,204.15c2.62,1.04,2.58,1,2.19,1.8-.33.69-.42.73-1.09.48-.42-.16-1.5,2.11-3.41,7.15-.03.09.15.24.41.34.51.19.57.45.29,1.19-.23.61-.29.6-2.63-.3-2.15-.83-2.3-.97-1.95-1.82.21-.5.3-.55.81-.45l.58.11,1.49-3.67,1.49-3.67-.54-.28c-.63-.33-.61-.24-.26-1.07.34-.81.04-.83,2.61.19M164.63,202.19c2.52,1.82,1.96,5.37-1.06,6.78-1.11.52-1.09.34-.21,2.22.4.84.68,1.6.63,1.68-.14.23-1.91,1.08-2.11,1.02-.23-.08-4.74-9.62-4.74-10.04,0-.31.5-.58,3.3-1.77,1.54-.65,3.19-.61,4.18.11M68.65,200c4.64,2.39,4.5,2.27,3.78,3.27l-.55.76-1.49-.75c-.82-.41-1.55-.68-1.63-.6-.08.08-1.07,1.9-2.2,4.05-1.13,2.14-2.14,3.9-2.24,3.9s-.63-.25-1.17-.56l-.98-.56.63-1.24c.34-.68,1.29-2.5,2.1-4.03.81-1.53,1.48-2.82,1.48-2.86s-.62-.41-1.37-.83c-1.67-.92-1.67-.91-1.2-1.83.5-.99.37-1.02,4.84,1.28M56.63,198.77c-.78.62-1.46,1.19-1.53,1.25-.06.07.38.46.99.87l1.11.75.3-1.06c.16-.58.41-1.46.56-1.96.14-.5.26-.93.26-.96,0-.19-.43.09-1.68,1.1M174.56,195.53c.44,1,.47.95-1.25,1.97l-1.28.76,2.36,3.94c2.78,4.62,2.59,3.99,1.36,4.73-1.27.76-.96,1.05-3.67-3.46l-2.31-3.84-.86.5c-.47.27-1.11.64-1.41.83-.3.18-.61.33-.68.33-.16,0-1.14-1.64-1.04-1.73.16-.16,8.15-4.86,8.27-4.86.07,0,.3.38.51.85M60.06,195.05c.44.3.85.63.91.72.09.15-2.12,10.72-2.39,11.44-.15.4-.18.39-1.19-.26-1.27-.81-1.29-.87-.99-2.02.15-.55.27-1.06.27-1.14,0-.11-2-1.48-3.22-2.2-.11-.06-.59.21-1.07.61-1.05.87-.96.86-2.12.14-1.27-.79-1.41-.62,3.75-4.43,5.02-3.71,4.9-3.66,6.05-2.86M180.95,190.88c.3.51.3.52-.19.88l-.5.37,2.41,3.21c1.82,2.43,2.48,3.18,2.7,3.09.74-.31.9-.28,1.28.26l.39.55-.78.63c-2.81,2.26-3.24,2.45-3.73,1.69-.3-.45-.28-.65.13-1.21.17-.24-.19-.83-2.12-3.44l-2.33-3.15-.55.32q-.55.32-.99-.23c-.59-.73-.6-.71,1.5-2.24,1.95-1.43,2.32-1.53,2.8-.72M50.85,188.14c.9.53,2.33,2,2.77,2.84l.3.58-.87.55c-1.09.69-.99.71-1.69-.36-.93-1.43-2.12-2.06-2.74-1.44-.36.36-.26.77.6,2.55,2.74,5.64-2.74,8.22-6.95,3.28-1.04-1.22-1.05-1.49-.03-2.09,1.05-.61.99-.63,1.86.59,2.23,3.13,4.03,1.93,2.38-1.59-.96-2.05-1.04-2.85-.42-3.97.87-1.55,3.02-1.97,4.78-.94M195.58,184.35c4.4,4.25,4.21,3.96,3.11,4.88-1.05.88-.78,1-3.29-1.47-1.2-1.19-2.12-1.99-2.05-1.79.07.2.59,1.62,1.15,3.16,1.07,2.94,1.09,3.15.34,3.63-.45.29-.56.27-3.52-.91-1.68-.67-3.14-1.21-3.24-1.21s.59.85,1.54,1.88c.95,1.03,1.88,2.07,2.07,2.3l.35.42-.71.73c-1.03,1.06-.98,1.09-4.75-3.33-3.95-4.64-3.84-4.45-2.86-5.25l.73-.6,4.03,1.57c2.22.86,4.07,1.57,4.12,1.57s-.22-.89-.61-1.97c-.38-1.08-1.02-2.9-1.4-4.04l-.7-2.07.62-.64c.88-.91.76-.99,5.05,3.15M38.87,176.98l.81.82-.58.6c-.32.33-1.82,1.71-3.32,3.07-2.94,2.65-2.97,2.7-2.38,3.23.21.19.89.91,1.49,1.6l1.11,1.25-.61.63c-.34.35-.75.63-.92.63-.44,0-4.98-4.92-4.81-5.21.24-.4,8.01-7.44,8.21-7.44.11,0,.56.37,1,.82M127.98,176.57c-2.89,2.23-.81,6.39,2.38,4.77,2-1.02,1.91-3.21-.19-4.67-1.21-.84-1.23-.84-2.19-.1M108.77,176.34c-2.35,1.7-1.59,4.98,1.16,4.98,2.93,0,3.62-3.1,1.09-4.91-1.07-.76-1.29-.77-2.25-.08M202.4,172.43c5.34,4.4,5.94,6.26,3.07,9.54-2.4,2.73-4.44,2.39-9.27-1.58-2.91-2.39-2.81-2.21-1.78-3.37l.78-.87,2.73,2.22c4.07,3.31,5.11,3.56,6.34,1.56.89-1.44.42-2.21-3.12-5.09-3.03-2.47-2.97-2.37-2.09-3.4q.88-1.03,3.35.99M128.24,169.73c-1.41.86-1.17,2.84.49,3.94.92.61.95.6,1.82-.18,2.24-2.02.21-5.3-2.31-3.75M33.99,171.12c1.51,1.99,1.57,2.22.78,2.65-.44.23-.52.22-.92-.16l-.44-.42-3.22,2.43c-2.94,2.22-3.2,2.46-2.95,2.74.39.43.34.85-.13,1.18-.68.48-.92.33-2.25-1.44-1.45-1.92-1.48-2.03-.78-2.55l.5-.37.43.41.43.41,2.92-2.23c3.78-2.89,3.5-2.6,3.1-3.21-.33-.5-.33-.51.2-.93q.76-.6,2.34,1.5M109.36,169.26c-1.7.76-1.57,3,.25,4.15l.85.54.56-.43c2.48-1.9,1.09-5.48-1.66-4.26M124.75,169.31c.09.54.02.77-.33,1.19-.49.58-2.41,3.73-3.55,5.84-1.02,1.88-1.84,3.98-2.01,5.16l-.14.98-1.42.05c-1.86.07-1.99.51,1.97-6.26,1.87-3.18,3.39-5.84,3.39-5.91,0-.28-5.4.02-6.03.33-.78.39-.95.29-.76-.46.08-.33.2-.82.26-1.1l.11-.5h8.38l.11.67ZM131.43,168.66c2.25,1.09,2.43,3.97.35,5.5-1.01.74-1,.67-.08,1.35,3.64,2.66,1.91,7.35-2.7,7.33-4.62-.02-5.74-4.67-1.75-7.25l.45-.29-.8-.72c-3.45-3.11.28-7.98,4.53-5.92M103.48,174.97c.02,3.63.1,6.74.18,6.92.14.29.03.32-1.1.32h-1.26v-11.83l-1.13.03c-.62.02-1.31.13-1.53.24-.55.3-.65.12-.39-.73.19-.62.3-.74.72-.74.27,0,1.32-.2,2.33-.44,1.01-.24,1.9-.42,1.99-.4.09.02.17,3,.18,6.63M112.23,168.41c2.33,1.18,2.45,4.04.24,5.6l-.83.58.43.27c4.02,2.54,2.81,7.41-1.91,7.68-4.83.27-6.27-5.01-1.98-7.3.38-.2.37-.23-.45-.95-3.5-3.08.28-8.02,4.5-5.88M212.89,160.67c5.8,3.17,5.3,2.77,4.7,3.8-.83,1.42-.72,1.42-3.53-.2-1.39-.8-2.56-1.43-2.6-1.4s.77,1.22,1.79,2.64c1.02,1.42,1.85,2.69,1.85,2.83,0,.47-.88,1.23-1.32,1.14-.8-.17-6.04-.69-6.12-.61-.05.05,1,.77,2.32,1.61,2.78,1.77,2.73,1.7,2.06,2.81-.67,1.11-.28,1.27-5.39-2.18-4.85-3.28-4.83-3.26-4.13-4.32.56-.85.12-.83,5.24-.28,2.17.23,3.97.4,4,.37.03-.03-.98-1.56-2.26-3.4-2.56-3.68-2.55-3.66-1.95-4.62.55-.89.17-1.02,5.33,1.81M25.92,159.09l.48.88-1.56,3.9c-.86,2.15-1.54,3.92-1.51,3.95.03.03,1.25-.68,2.71-1.58,3.04-1.86,3.16-1.88,3.88-.6l.53.94-4.71,2.87q-5.09,3.11-5.71,2.03c-.58-1.02-.59-.94,1.05-5.06.81-2.03,1.45-3.72,1.42-3.75-.03-.03-1.25.68-2.71,1.57-3.09,1.9-3.05,1.89-3.72.82-.75-1.19-.82-1.13,4.25-4.21,5.07-3.09,4.91-3.03,5.59-1.77M199.82,151.49c1.94.64,1.93.38.17,3.43-15.86,27.58-43.39,45.1-75.54,48.06-.93.09-.96.12,1.38-2.2l2.06-2.05,2.53-.37c25.99-3.83,48.52-18.65,64.29-42.27,1.08-1.61,2.24-3.45,2.59-4.08.35-.63.71-1.12.82-1.08.1.04.86.29,1.7.57M36.02,152.19c.92,1.7,4.05,6.33,6.13,9.09,15.97,21.15,37.41,33.98,62.38,37.33.77.1,5.28,4.1,4.93,4.37-.27.22-7.58-.76-11.54-1.54-24.04-4.74-45.35-18.59-59.74-38.83-2.47-3.47-6.66-10.35-6.43-10.55.07-.06,3.29-1.17,3.46-1.19.05,0,.42.58.81,1.31M98.56,141.3c-1.11.69-1.65,1.68-1.86,3.41l-.12,1.03,2.55-.12c3.56-.17,4.1-.48,3.84-2.18-.3-2-2.73-3.17-4.41-2.14M145.69,140.86c-.1.04-.4.12-.67.18-3.58.79-4.1,11.74-.68,14.22,4.05,2.93,7.51-2.58,6.14-9.77-.6-3.14-2.87-5.33-4.78-4.62M29.96,140.33c.72.28,2.61,3.51,2.26,3.86-.18.18-1.75-1.03-2.27-1.77-.28-.4-.62-.73-.74-.73-.33,0-2.6.92-2.72,1.11-.14.22,3.03,7.5,3.26,7.5.04,0,.97-.33,2.07-.73,2.41-.88,2.38-.88,2.74-.19.33.63.42.57-2.38,1.56-.81.29-1.54.58-1.62.65-.08.07.44,1.19,1.16,2.48,16.14,28.84,44.7,47.21,77.5,49.87,1.43.12,1.52.15,2.19.84l.7.72h-.72c-4.47,0-14.48-1.61-20.78-3.33-28.79-7.85-53.15-29.15-64.59-56.47-.52-1.25-.98-2.3-1.02-2.34-.26-.28-21.88,8.35-21.77,8.69.32,1.03,2.5,5.91,4.02,8.98,19.13,38.82,57.64,64.67,100.78,67.66l1.78.12,3.41,3.3,3.41,3.3,3.38-3.3,3.38-3.3,1.8-.12c43.34-3.01,81.81-28.92,101-68.03,2.01-4.11,4.08-8.82,3.93-8.96-.11-.1-21.64-8.36-21.79-8.36-.07,0-.23.31-.37.69-6.16,17.46-22.7,36.76-40.81,47.66-13.36,8.04-32.28,13.81-45.27,13.81h-.74l.7-.72c.67-.69.76-.72,2.19-.84,29.09-2.36,54.72-16.91,71.79-40.77,2.72-3.8,7.17-11.31,6.87-11.58-.08-.07-1.04-.45-2.13-.83-2.28-.8-2.21-.74-1.81-1.49l.3-.57,1.93.7c1.06.39,2.07.75,2.25.81.27.09.5-.26,1.3-1.97,1.19-2.53,2.4-5.45,2.3-5.53-.56-.45-3.1-1.17-3.1-.88,0,.27-1.76,2-2.34,2.3l-.57.29.34-1c.36-1.04,1.65-2.92,2.14-3.11.6-.23,1.28,0,10.11,3.39,5.01,1.92,11.21,4.29,13.76,5.27s4.69,1.87,4.73,1.98c.26.65-5.66,13.19-8.56,18.14-20.39,34.76-56.07,57.39-95.96,60.87l-3.27.29-3.64,3.53c-2,1.94-3.72,3.53-3.81,3.53-.21,0-1.95-1.61-5.07-4.7l-2.38-2.36-2.29-.19c-46.72-3.94-86.47-32.86-104.42-75.98-1.42-3.42-1.45-3.17.38-3.86.79-.3,6.97-2.67,13.73-5.27,11.84-4.55,12.74-4.86,13.36-4.63M80.21,139.35c.05.23.18.98.29,1.68.18,1.12,1.33,5.33,2.69,9.81l.47,1.54,1.71-4.49c1.66-4.37,2.29-6.56,2.29-8.01v-.71l2.51-.11c3.01-.14,2.83-.27,1.79,1.34-1.01,1.56-1.54,2.68-4.38,9.32-1.18,2.76-2.29,5.6-2.48,6.32l-.33,1.3-2.22.05-2.22.05-.11-.5c-.34-1.53-.6-2.39-2.03-6.82-1.97-6.13-2.79-8.22-3.8-9.76l-.81-1.23,2.41-.06c1.32-.03,2.8-.08,3.28-.1.77-.04.88,0,.95.37M172.28,139.25c2.42,1.26,2.68,2.13,2.85,9.59.1,4.32.22,6.31.43,7.24.16.71.29,1.3.29,1.32s-1.36.03-3.03.03h-3.03s.14-1.22.14-1.22c.33-2.88.17-11.81-.23-12.48-1.43-2.43-5.86-1.56-6.74,1.32-.34,1.12-.25,8.72.13,10.67.16.81.28,1.52.28,1.59s-1.32.12-2.94.12h-2.94l.14-1.68c.28-3.3.15-13.64-.19-15.15-.37-1.64-.73-1.41,2.48-1.53l2.71-.1v3.14l.96-.81c2.99-2.53,6.26-3.29,8.67-2.03M149.6,139.03c4.89,1.15,7.36,5.7,6.17,11.36-2.01,9.57-16.51,10.46-18.7,1.15-1.91-8.1,4.42-14.42,12.53-12.51M121.62,138.98c.28.21.26.39-.24,2.15-.3,1.06-.63,2.23-.73,2.61-.23.84-.44.86-1.22.1-1.35-1.31-3.62-.2-4.27,2.07-.29,1.02-.22,8.48.1,9.98.15.71.27,1.34.27,1.41s-1.32.13-2.94.13h-2.94s.14-1.23.14-1.23c.27-2.37.15-14.3-.16-15.67l-.28-1.24h.86c.47,0,1.61-.05,2.53-.12l1.67-.12.05,2.07.05,2.07,1.16-1.5c2-2.58,4.59-3.77,5.95-2.74M102.24,138.96c3.42.63,5.44,3.09,5.47,6.69.02,2.46.48,2.28-5.78,2.28h-5.3v.69c.02,4.76,5.07,7.79,9.31,5.59,1.55-.8,1.59-.76,1.02,1.32-.39,1.42-.44,1.47-2.08,1.94-7.6,2.16-13.39-1.72-13.39-8.99,0-6.47,4.69-10.63,10.74-9.52M130.85,135.41c-.07.88-.17,2.13-.23,2.78l-.11,1.17,2.93-.08,2.93-.08-.38,1.44-.38,1.44-2.48-.05-2.48-.05-.05,5.03c-.07,7.63.67,8.92,4.4,7.59,1.13-.41,1.19-.3.79,1.31l-.34,1.35-1.21.31c-4.01,1.01-6.77.29-7.87-2.08l-.49-1.04-.11-6.23c-.06-3.43-.12-6.26-.14-6.3-.02-.03-.66,0-1.42.07l-1.39.13.13-.62c.07-.34.23-.95.35-1.35l.21-.74,1.15-.06,1.15-.06-.05-1.65-.05-1.65,1.46-.6c.8-.33,1.87-.82,2.38-1.08,1.43-.75,1.44-.74,1.3,1.11M73.38,132.08c-.11.64-1.11,4.15-1.21,4.24-.05.05-.46-.24-.91-.65-1.14-1.05-2.33-1.36-5.1-1.35-1.21,0-2.22.04-2.26.08-.04.04-.13,1.78-.19,3.86l-.12,3.79h2.92c1.6-.02,3.54-.09,4.29-.17q1.75-.19,1.26,1.68l-.41,1.56-4.02-.1-4.02-.1.06,3.83c.09,5.54.34,5.85,4.74,5.85,2.68,0,3.7-.29,5.27-1.49,1.26-.96,1.38-.47.58,2.39l-.57,2.03-8-.06c-4.4-.03-8.02-.07-8.04-.09-.02-.02.06-.7.18-1.5.14-.96.21-4.81.22-11.27,0-9.31-.07-11.02-.55-12.65-.07-.24.89-.27,7.94-.25,7.75.02,8.02.03,7.96.37M13.79,130.59c-9.31,4.29-9.24,4.26-9.78,5.1-.67,1.06-.07,4.82.94,5.88.26.28,18.36-7.8,18.22-8.13-.68-1.52-1.01-4.85-.63-6.19.24-.84.66-1-8.75,3.34M210.61,126.8c.38.86.29,3.97-.15,5.46l-.44,1.48,9.05,3.98c4.98,2.19,9.12,3.94,9.2,3.88.39-.24,1.17-2.65,1.25-3.87.15-2.25-.22-2.64-4.45-4.57-1.51-.69-5.42-2.47-8.68-3.97-3.91-1.79-5.88-2.61-5.79-2.4M214.72,126.87c3.88,1.77,8.65,3.95,10.59,4.84,4.82,2.2,5.51,2.86,5.68,5.4.13,1.91-1.38,5.84-2.36,6.15-.17.06-2.14-.71-4.46-1.74-2.28-1.01-4.22-1.84-4.31-1.84-.27,0-1.43,1.98-1.97,3.35-.38.97-.56,1.23-.78,1.13-.16-.07-.44-.16-.62-.22-.51-.15.41-2.69,1.54-4.29.49-.69,1-.37-4.62-2.87-5.55-2.46-5.23-2.14-4.45-4.48,1.23-3.7.24-6.93-2.27-7.41-.53-.1-.92-.02-1.93.39-.27.11-.32.02-.32-.63,0-2.07,1.69-1.7,10.27,2.22M28.43,123.73c.5.27.53,1.75.03,1.55-1.42-.58-2.06-.56-3.13.1-1.57.96-2.05,4.15-1.06,7.01.78,2.23,1.08,1.93-4.47,4.4-5.64,2.51-5.1,2.18-4.61,2.87,1.19,1.67,2.06,4.12,1.52,4.28-.18.05-.45.15-.61.21-.22.09-.4-.16-.78-1.13-.54-1.38-1.7-3.35-1.97-3.35-.1,0-2.04.83-4.32,1.85-4.83,2.16-4.61,2.15-5.62.14-1.72-3.42-1.56-6.31.42-7.87.53-.42,18.57-8.82,21.27-9.9.91-.37,2.76-.45,3.31-.16M131.75,115.87c-.05.14-.08,1.85-.05,3.8l.05,3.55,1.93.7c2.85,1.04,2.58,1.38,2.52-3.18l-.05-3.9-1.52-.5c-2.09-.69-2.76-.8-2.89-.48M125.06,117.19c0,4.13-.24,3.68,2.44,4.57,2.38.79,2.17,1.13,2.1-3.35l-.05-3.56-1.93-.6c-2.84-.89-2.57-1.21-2.57,2.94M118.5,115.01l.05,3.62,1.93.7c1.06.38,2.03.7,2.15.71.18,0,.23-.83.23-3.63v-3.64l-1.92-.59c-1.06-.32-2.05-.63-2.2-.69-.25-.1-.28.31-.23,3.51M111.71,112.74l.05,3.51,1.93.7c2.84,1.03,2.58,1.32,2.53-2.79l-.05-3.51-2.1-.7c-1.16-.39-2.17-.7-2.25-.7s-.13,1.58-.1,3.51M105.07,110.31c0,1.92.07,3.53.15,3.59.08.05,1.07.42,2.2.82l2.05.73v-7.08l-1.88-.65c-1.03-.36-2.02-.71-2.2-.78-.3-.12-.32.12-.32,3.37M98.33,108l.05,3.53,2.11.76c1.16.42,2.17.72,2.25.68.35-.21.15-6.83-.21-7.02-.45-.24-3.86-1.48-4.08-1.48-.09,0-.14,1.52-.12,3.53M120.55,73.98l-.16,3.48,3.06.22c3.87.28,10.03,1.19,12.12,1.79.3.09.32-.03.28-1.24l-.05-1.34-.73-.42c-1.57-.89-4.07-1.49-7.56-1.8-1.13-.1-1.33-.17-1.33-.46,0-.73,3.29-.61,7.6.26l2.14.43-.05-.92c-.05-.89-.08-.93-.79-1.18-2.18-.77-8.91-1.95-12.49-2.18l-1.85-.12-.16,3.48ZM115.06,70.49l-1.47.07.24,4.35c.13,2.39.27,4.45.32,4.58.06.17.7.23,2.37.23h2.3v-.6c.02-.33.13-2.37.25-4.54.13-2.17.21-3.97.19-4-.08-.11-2.72-.17-4.2-.09M110.94,66.63c-.45.04-1.9.16-3.21.26-4.51.36-8.38,1.08-9.38,1.74l-.42.28.11,15.45c.06,8.57.18,15.75.28,16.13.32,1.27,2,2.46,5.38,3.81,6,2.39,20.73,7.29,29.25,9.71,1.46.42,2.8.8,2.98.85.29.09.32-.11.32-2.29v-2.39l-.69-.18c-1.62-.43-2.48-.59-4.88-.92-2.62-.36-3.01-.5-2.8-1.04.16-.42,3.79-.26,6.35.28.96.2,1.8.37,1.88.37.08,0,.14-.7.14-1.55v-1.55l-1.47-.47c-2.34-.74-5.33-1.2-8.58-1.33-3.14-.12-3.69-.3-2.85-.92.65-.49,8.5-.21,10.86.39,1.04.26,1.93.48,1.97.48s.08-.74.08-1.65v-1.65l-.69-.29c-1.27-.54-3.32-.98-5.63-1.2-1.97-.19-2.3-.27-2.3-.54,0-.6,2.44-.72,6.23-.28,2.46.28,2.33.35,2.24-1.19l-.07-1.2-1.32-.51c-2.64-1.03-8.38-2.03-12.78-2.24-2.72-.13-3.29-.28-2.9-.75.53-.64,8.97-.07,14.27.96,1.26.25,2.4.45,2.52.45.16,0,.23-.37.23-1.24v-1.24l-1.05-.41c-4.89-1.88-11.2-2.67-21.68-2.69-6.67-.02-7.43-.05-7.48-.31-.15-.77,3.85-1.15,12.06-1.16,6.23,0,7.34.09,13.73,1.2,1.78.31,3.5.6,3.83.66l.6.1v-2.02l-1.33-.65c-2.17-1.06-4.6-1.67-8.24-2.06-1.23-.13-1.68-.49-1.04-.84.65-.35,4.23-.07,7.4.56,3.48.7,3.21.73,3.21-.36,0-.87-.03-.93-.69-1.26-2.23-1.12-8.17-2.32-13.39-2.71l-1.7-.13v.63c0,1.27-.04,1.29-4.22,1.29s-4.22-.01-4.22-1.29v-.63l-2.34.13c-1.29.07-3.53.25-5,.39-1.46.15-2.68.27-2.7.27-.28,0,.05-.72.37-.79.56-.14,6.71-.99,8.25-1.15l1.24-.12v-.95c0-.52-.09-2.46-.2-4.31-.18-3.01-.17-3.39.1-3.65.49-.49,8.52-.44,9.06.05.32.29.84.37,3.27.51,1.59.09,4.81.41,7.15.71,2.34.3,4.39.54,4.55.54.23,0,.28-.19.23-.96l-.06-.96-1.05-.41c-3.11-1.23-17.55-2.3-23.8-1.77M113.41,61.49c-8.82.66-16.13,1.97-17.5,3.12-.63.53-.71,1.06-.27,1.7.38.55.89.49,4.65-.49,10.75-2.8,26.22-2.37,35.11.97,1.88.71,2.89-.14,1.79-1.5-1.78-2.21-15.59-4.42-23.79-3.81M161.38,57.56l.91.39.9-.39c1.69-.73,4.08-.3,5.48.99l.65.59-.45.24c-1.21.66-4.12.04-5.22-1.12-.39-.4-.57-.48-.75-.34-.19.15,0,.37.81.97,2.38,1.76,2.83,2.52,2.12,3.6l-.49.74-.57-1.1c-.68-1.32-2.23-3.49-2.49-3.49-.28,0-1.38,1.56-2.16,3.07-.8,1.54-.8,1.54-1.31.68-.59-1.01-.09-1.87,2.02-3.46.83-.63,1.02-.85.83-1-.18-.15-.36-.07-.75.34-1.11,1.16-4.01,1.78-5.23,1.12l-.45-.25.76-.68c1.42-1.26,3.67-1.63,5.38-.9M70.06,57.56l.91.39.96-.41c1.73-.74,4.35-.2,5.62,1.16l.43.46-.43.23c-1.19.65-4.11.02-5.21-1.13-.38-.4-.57-.48-.75-.34-.19.15,0,.37.81.99.58.43,1.4,1.2,1.81,1.69l.76.9-.45.76q-.59.99-1.41-.6c-.73-1.42-1.86-3.03-2.13-3.03s-1.59,1.85-2.36,3.27l-.73,1.35-.49-.84-.49-.84.37-.51c.49-.67,1.59-1.71,2.55-2.39.61-.44.73-.59.54-.75-.18-.15-.36-.07-.75.33-1.1,1.15-4.01,1.78-5.21,1.13l-.44-.24.54-.54c1.31-1.31,3.86-1.79,5.57-1.05M171.99,56.08c1.42.61,1.65.98.89,1.39-1.32.71-4.3.29-5.27-.74-1.02-1.09,2.23-1.57,4.37-.65M156.85,55.91c.61.28.6.39-.08.96-1.32,1.11-4.96,1.31-5.58.3-.59-.96,4.06-1.99,5.66-1.26M80.8,56.16c1.89.93,1.33,1.62-1.32,1.64-2.16.01-4.4-1.36-3.07-1.88,1.34-.52,3.01-.43,4.39.24M65.06,55.8c1.1.33,1.14.44.4,1.06-1.15.97-3.85,1.29-5.11.61-1.71-.92,2.36-2.37,4.7-1.67M175.89,52.96c1.27.35,1.11.77-.64,1.64-1.22.61-3.13.77-4.07.34-1.72-.78,2.55-2.58,4.71-1.98M169.07,53.11c0,1.2-2.66,3.41-4.4,3.64-2,.27.75-3.09,3.11-3.81.84-.26,1.29-.2,1.29.17M157.86,53.4c1.28.65,2.77,2.39,2.77,3.23,0,1.14-3.96-1.17-4.78-2.79-.64-1.25.09-1.42,2.01-.44M151.42,53.01c1.03.27,2.43,1.13,2.43,1.5,0,1.22-4.38.66-5.67-.71l-.44-.47.44-.16c.24-.09.56-.21.71-.27.49-.19,1.55-.14,2.52.11M84.97,53.11l.53.21-.44.47c-1.05,1.13-4.09,1.78-5.28,1.13-1.82-.99,3.02-2.68,5.19-1.82M77.75,52.96c0,.45-.77,1.63-1.47,2.27-1.23,1.11-3.66,2.04-3.66,1.4,0-.81,1.47-2.57,2.65-3.17,1.27-.65,2.48-.89,2.48-.5M66.37,53.31c1.95.99,3.69,3.49,2.44,3.49-1.56,0-4.63-2.47-4.63-3.72,0-.45,1.08-.34,2.19.23M60.62,53.16c2.52,1.1,2.4,1.99-.27,1.99-1.7,0-4.18-1.19-3.79-1.82.34-.56,2.92-.66,4.06-.16M178.31,48.71c.32.53-1.79,2.62-3.27,3.24-.65.27-2.12.37-2.12.15,0-1.51,4.72-4.48,5.39-3.39M148.02,48.8c1.54.46,3.63,2.3,3.63,3.19s-3.08-.29-4.42-1.76c-1.41-1.54-1.14-2.02.79-1.43M86.92,48.74c0,1.24-2.6,3.26-4.42,3.44-1.09.1-1.15-.11-.36-1.2,1.1-1.51,4.78-3.23,4.78-2.23M57.44,49.12c1.28.65,2.89,2.28,2.89,2.94,0,.25-1.43.18-2.12-.11-1.51-.63-3.6-2.72-3.26-3.26.17-.27,1.6-.02,2.49.43M172.98,48.21c.3,1.15-.62,3.63-1.81,4.87-1.07,1.12-1.24,1.05-1.16-.45.13-2.29,2.57-5.93,2.96-4.42M152.61,48.35c1.13.99,2.35,3.97,2.07,5.07-.4,1.6-2.82-1.91-3-4.33-.1-1.46,0-1.55.92-.74M81.6,48.73c0,1.66-1.08,3.97-2.24,4.8-1.7,1.21-.53-3.6,1.26-5.16.84-.74.97-.69.97.37M61.48,48.58c1.27,1.34,2.48,5.28,1.62,5.28-.99,0-2.64-2.87-2.75-4.8-.09-1.51.08-1.58,1.13-.48M180.62,44.58c0,.82-1.8,2.5-3.29,3.07-2.26.86-2.63.06-.8-1.7,1.25-1.21,4.1-2.16,4.1-1.37M146.18,44.7c1.34.52,3.26,2.36,3.26,3.14,0,.56-2.45-.14-3.72-1.07-.74-.54-1.78-1.9-1.78-2.32,0-.25,1.31-.11,2.24.25M89.3,44.48c0,.43-1.18,1.9-1.93,2.42-1.16.8-3.57,1.47-3.57.99,0-.83,2.02-2.76,3.42-3.28.77-.28,2.08-.37,2.08-.14M54.74,44.65c1.01.35,3.06,2.21,3.25,2.94.36,1.39-3.54-.24-4.82-2.02-.93-1.29-.4-1.61,1.57-.92M175.11,42.64c.44,1.57.11,3.7-.81,5.27l-.52.88-.28-.53c-.64-1.21-.32-4.04.64-5.72.51-.89.7-.87.97.1M150.92,43.38c.64,1.72.64,5.17-.01,5.17-.7,0-1.53-2.35-1.53-4.31,0-2.74.69-3.12,1.54-.86M83.81,42.98c.34,1.66-.17,4.27-1.03,5.22-1.31,1.45-1.28-3.76.03-5.76.57-.86.73-.77,1,.54M59.62,43.6c.5,1.27.57,3.83.12,4.66l-.29.54-.56-.99c-.97-1.7-1.25-4.43-.59-5.67l.23-.44.34.44c.19.24.52.9.74,1.45M180.14,40.44c-.31,1.73-1.8,3.81-3.22,4.49-.79.38-.89.29-.68-.64.39-1.74,1.82-3.69,3.14-4.27.85-.37.9-.35.76.42M146.54,41.04c1.13,1.13,2.34,3.74,1.93,4.16-.43.43-2.82-1.78-3.5-3.25-1.05-2.27-.25-2.73,1.57-.91M88.32,41.85c-.7,1.52-3.09,3.79-3.54,3.35-.66-.67,1.55-4.3,3.09-5.06l.78-.39.06.55c.03.31-.14.99-.4,1.55M54.5,40.43c1.29.87,3.16,4.25,2.64,4.76-.58.58-3.36-2.31-3.87-4.03-.48-1.61-.26-1.74,1.23-.73M174.84,37.2c1.23,1.13,2.39,4.07,1.76,4.46-.68.42-2.69-2.54-2.89-4.26-.14-1.18.03-1.21,1.13-.2M150.91,37.23c0,1.38-1.4,3.73-2.6,4.37-1.18.63.12-3.24,1.51-4.49.94-.84,1.09-.83,1.09.12M83.4,37.08c1.68,1.52,2.8,5.25,1.31,4.38-1.1-.65-2.16-2.48-2.32-4.02-.12-1.18.04-1.24,1.02-.35M59.53,37.4c-.2,1.67-1.99,4.37-2.89,4.37-.75,0,.36-3.08,1.59-4.39,1.15-1.23,1.45-1.22,1.3.03M180.2,35.3c-.19,1.99-1.47,4.34-2.74,5.02-1.26.68.23-4.08,1.69-5.41,1.02-.92,1.17-.87,1.05.39M145.44,34.94c1.31,1.18,2.66,4.77,2.03,5.39-.61.61-2.82-2.76-3.06-4.68-.2-1.59-.06-1.69,1.03-.71M88.84,35.68c-.34,2.25-2.62,5.58-3.05,4.45-.44-1.15.61-3.9,1.98-5.16,1-.92,1.29-.73,1.07.7M54.05,34.9c1.48,1.27,3.03,6.12,1.73,5.42-1.28-.68-2.56-3.03-2.74-5.02-.12-1.24-.01-1.28,1.01-.4M172.45,32.31c1.25.52,3.03,2.61,3.03,3.56s-3.23-1.14-3.94-2.53c-.67-1.32-.44-1.59.91-1.02M153.48,32.28c-.01,1.37-3.62,4.46-4.35,3.73-.17-.17.59-1.63,1.25-2.39.95-1.09,3.1-2.01,3.1-1.34M81.25,32.42c1.41.72,3.34,3.12,2.88,3.58-.5.5-3.03-1.19-3.8-2.53-.87-1.51-.59-1.82.93-1.05M62.06,32.46c-.45,1.51-2.19,3.13-3.8,3.54-1.4.35.58-2.71,2.3-3.57,1.07-.53,1.66-.51,1.5.03M178.05,32.32c.39,2.41-1.23,6.63-1.8,4.7-.5-1.68-.15-4.13.81-5.57.58-.88.74-.74,1,.87M148.28,32.91c.4,1.33.41,3.61.03,4.34l-.28.53-.42-.59c-.96-1.35-1.38-4.08-.89-5.74l.22-.73.51.57c.28.31.65,1.04.83,1.63M86.7,32.81c.1,1.72-.18,2.97-.93,4.14l-.56.88-.27-.64c-.62-1.5-.15-4.62.91-5.96.53-.67.74-.28.84,1.59M56.67,32.29c.79,1.82.64,5.93-.19,5.17-.66-.6-1.16-2.12-1.25-3.79-.15-2.98.48-3.58,1.44-1.38M116.03,28.2c-.35.76-3.82,8.19-7.72,16.52-3.9,8.33-7.09,15.18-7.09,15.24s.72-.05,1.6-.23c7.74-1.6,18.75-1.63,27.55-.08,1.95.34,1.89.35,1.65-.1-.33-.61-3.73-1.57-7.51-2.11-2.32-.33-2.38-.35-2.38-.73,0-.58,2.76-.5,6.85.21,2.02.35,1.97.41,1.08-1.52-.68-1.45-.81-1.62-1.45-1.84-1.09-.38-4.45-.93-7.46-1.23-2.68-.26-3.47-.5-3.05-.91.24-.24,5.55-.21,8.25.04,2.12.2,1.97.35,1.25-1.34-.79-1.83-1.98-2.41-5.69-2.75-3.31-.31-2.51-1.19,1.07-1.19,2.84,0,2.77.05,2.03-1.47-.7-1.42-1.04-1.58-3.97-1.86-3.22-.31-3.2-.88.03-1.02,2.72-.11,2.62-.06,2.14-1.05-.52-1.08-1.06-1.24-5.34-1.68-2.04-.21-1.35-.69,1.29-.9,2.74-.22,2.76-.24,2.07-1.7-.48-1.01-.6-1.14-1.07-1.14-1.09,0-2.23-.24-2.23-.46s1.25-.82,1.75-.82c.35,0,.34-.21-.04-1l-.31-.65h-1.67c-2.8,0-3.06-.75-.37-1.07,1.55-.19,1.52-.03.39-2.43l-.99-2.09-.63,1.38ZM175.69,27.42c.57,1.15.63,4.28.1,5.45l-.33.73-.44-.72c-.85-1.41-.99-4.04-.29-5.84.27-.71.47-.63.96.37M150.2,27.92c.33,1.23.12,3.34-.47,4.59l-.51,1.1-.37-.82c-.71-1.59-.54-4.49.35-5.86.36-.55.67-.24,1,.99M84.48,27.8c.5,1.29.46,4.09-.07,5.07l-.39.73-.52-1.1c-.46-.97-.52-1.31-.52-2.84,0-3,.72-3.89,1.5-1.87M58.48,26.88c.76,1.41.62,4.56-.26,6l-.44.72-.33-.73c-.88-1.95.11-7.71,1.02-5.99M171.04,26.72c1.37,1,2.35,2.69,2.56,4.44l.11.94-.79-.44c-1.43-.8-2.67-2.75-2.88-4.53-.13-1.11-.03-1.16.99-.41M154.53,27.16c-.19,1.84-2.17,4.71-3.26,4.71s.6-3.92,2.27-5.14c1.01-.74,1.1-.7.99.43M79.71,26.72c1.6,1.16,3.38,5.15,2.29,5.15s-3.1-2.85-3.29-4.68c-.12-1.17-.03-1.21,1-.47M63.2,27.13c-.21,1.78-1.54,3.87-2.92,4.57l-.74.38.12-.92c.23-1.73,1.24-3.5,2.54-4.44,1.03-.74,1.13-.7.99.41M117.48,19.57c.77.47,1.18,1.3,1.13,2.27-.04.85,18.01,39.17,18.69,39.69.17.13.92.67,1.67,1.19,2.97,2.1,3.38,4.41,1.03,5.9l-.83.52-.05,16.8c-.03,9.24-.05,19.67-.05,23.18v6.39l.49.36c.9.65.98,1.26.92,6.76-.07,6.97-.16,7.19-2.9,7.31l-1.54.06v-1.37c0-1.9,2.92-.65-24.11-10.31-9.78-3.5-17.98-6.48-18.21-6.63-.83-.53-.95-1.22-.94-5.33,0-4.23.09-4.62,1.05-4.9l.59-.18v-15.83c0-14.91-.02-15.83-.32-15.94-3.12-1.1-2.5-5,1.15-7.26.98-.6,19.04-38.58,19.07-40.1.04-1.49.07-1.62.7-2.28.73-.77,1.51-.86,2.44-.3M115.89,6.12c-13.71,9.81-37.7,10.29-53.05,1.07-1.41-.85-1.43-.85-1.82-.52-1.14,1-28.96,26.27-29.65,26.94l-.81.79,2.03,2.12c8.84,9.2,12.8,16.9,12.78,24.86-.03,8.41-.95,12.28-7.5,31.35-3.47,10.11-5.25,23.51-4.49,33.83,1.06,14.27,5.31,23.97,16.15,36.76,14.32,16.92,33.85,27.91,54.53,30.69,1.21.16,2.49.34,2.84.4.54.09,1.36.81,5.18,4.62l4.54,4.52,1.42-1.37c.78-.75,2.87-2.8,4.64-4.54l3.22-3.18,2.56-.34c25.67-3.43,47.43-17.71,63.15-41.44,8.04-12.15,10.41-29.48,6.67-48.86-1.03-5.36-1.79-7.93-5.29-17.97-5.47-15.7-6.55-25.73-3.57-33.16,1.86-4.65,6.03-10.69,11.16-16.15l2.05-2.19-.79-.76c-1.22-1.18-29.55-26.94-29.8-27.09-.13-.08-1,.32-2.12.97-15.26,8.9-37.64,8.46-52.04-1.02-1.42-.94-1.2-.9-2-.33M118.91,3.43c14.93,9.78,36.57,9.87,51.29.23l1.96-1.28,17.53,15.97,17.53,15.97-2.69,2.66c-6.16,6.1-11.13,13.21-12.79,18.29-2.09,6.4-.59,16.15,4.85,31.53,9.54,26.96,8.67,51.03-2.45,67.62-16.32,24.37-38.14,38.8-64.41,42.62l-2.56.37-5.28,5.27-5.28,5.27-5.28-5.27-5.28-5.27-2.56-.37c-26.09-3.79-48.05-18.19-63.99-41.97-8.66-12.92-11.3-29.04-8.06-49.33.91-5.7,2.22-10.52,4.95-18.24,6.28-17.77,7.45-26.99,4.33-34.14-2.17-4.98-6.92-11.43-12.34-16.74l-2.35-2.3,17.25-15.76c9.49-8.67,17.39-15.83,17.56-15.91.22-.11.83.18,2.2,1.05,8.66,5.49,20.11,8.06,30.65,6.89,7.89-.88,14.51-3.17,20.5-7.1,2.75-1.8,2.03-1.79,4.68-.06M116.35.13c-.28.45-5.32,3.6-7.31,4.57-14.26,6.96-31.2,6.11-45.14-2.26-1.61-.97-3.01-1.72-3.12-1.68-.1.04-3.2,2.82-6.88,6.17-9.5,8.65-13.69,12.44-14.85,13.46-.56.49-1.79,1.6-2.75,2.48s-3.68,3.35-6.05,5.5c-2.37,2.15-4.77,4.34-5.33,4.87l-1.02.97,3.41,3.45c8.92,9.03,13.58,16.93,13.58,23.05,0,6.78-1.2,12.2-5.68,25.6-3.45,10.33-4.24,13.23-5.3,19.57-.73,4.38-1.3,10.82-1.3,14.83v1.86l-1.24-.09-1.24-.09-3.94,1.79c-2.17.98-5.46,2.47-7.33,3.3-4.47,2-8.41,3.77-9.96,4.48-3.81,1.75-4.77,5.33-2.62,9.78,1.55,3.23,2.22,3.21,9.24-.23.84-.41,1.55-.74,1.58-.74.09,0,.94,1.77,1.36,2.85l.36.92-6.63,2.55c-9.08,3.49-8.46,3.14-7.92,4.36.15.33.49,1.18.76,1.89,16.37,42.72,59.05,74.19,105.31,77.65l2.45.18,3.78,3.85c2.08,2.12,3.89,3.85,4.03,3.85.14,0,1.95-1.73,4.03-3.84l3.78-3.84,3.39-.29c39.82-3.39,75.59-26,96.1-60.75,3.17-5.36,6.52-12.31,8.82-18.27.7-1.8,1.52-1.27-7.07-4.58-4.12-1.59-7.08-2.83-7.08-2.96,0-.33.98-2.69,1.31-3.16l.28-.4,1.36.66c7.21,3.48,7.72,3.51,9.21.64,2.61-5.02,1.54-8.39-3.36-10.56-.86-.38-1.89-.84-2.29-1.03-.4-.18-1.97-.89-3.48-1.56-1.51-.67-5.38-2.42-8.6-3.88l-5.85-2.66-1.24.09-1.24.09-.12-3.04c-.47-12.26-1.74-18.73-6.43-32.75-6.49-19.37-7.3-26.59-3.8-33.8,2.45-5.04,6.57-10.47,11.98-15.77l3.06-3-3.23-2.94c-1.78-1.62-4.02-3.66-4.97-4.53-.96-.87-2.57-2.33-3.58-3.23-1.93-1.72-5.08-4.59-17.48-15.85-4.16-3.78-7.63-6.9-7.72-6.93s-1.26.62-2.61,1.45c-16.36,9.98-36.5,9.59-51.47-1.01-1.85-1.31-1.8-1.28-1.95-1.03"/></svg>