<?xml version="1.0" encoding="UTF-8"?><svg id="Layer_1" xmlns="http://www.w3.org/2000/svg" viewBox="0 0 115.32 211.03"><defs><style>.cls-1{fill:#e31f26;}</style></defs><path class="cls-1" d="M78.07,164.41c1.06.22,1.02.28,1.55.54.7.32,1.39.89,1.65,1.65.38.06.73-.16,1.02-.35,1.04-.83,2.03-1.93,1.74-3.3-.1-.38-.28-.61-.67-1.02-1.62-1.27-3.93-1.23-5.89-1.07,0,0-.07,0-.29,0-1.62.06-3.27.03-4.56-.86-1.71-1.33-1.97-3.55-2.85-5.33-.25-.84-.49-1.69-.71-2.54-1.6-5.97-2.68-12.04-3.15-18.32,0-.12,0-.31.16-.25,1.52,1.14,3.2,1.84,5.07,2.13.92.13,2.03.16,2.63-.57-.86-.79-1.97-1.49-2.79-2.31-1.24-1.3-2.26-2.77-3.07-4.35-2.15-4.18-2.79-9.13-1.87-13.84-1.96-1.58-3.68-3.1-5.48-4.75-1.66-1.63-3.33-3.31-4.87-5.09h0c-3.04-3.5-5.58-7.36-6.52-11.85-.09-.41-.16-.82-.21-1.23.03-.67-.29-1.55.25-2.12.1-.03.28-.06.35.03.39,1.12.82,2.23,1.3,3.33.57,1.3,1.2,2.57,1.9,3.81,1.62,3.02,3.9,5.6,6.38,8.03,3.96,3.89,8.44,7.4,11.65,11.74,1.24,1.62,2.12,3.46,2.91,5.33.67,2.08,1.13,4.34,1.22,6.61h0s0,0,0,0c.04,1.08,0,2.16-.14,3.24.13.16.25.32.48.26.54-.35.6-.95.82-1.49.17-.62.3-1.24.42-1.86h0s0-.03,0-.05c0-.03.01-.06.02-.09h0c1.04-6.27-.76-12.68-4.37-17.74-1.75-2.22-3.74-4.14-5.8-5.95-4.34-3.82-8.99-7.15-12.28-11.84-.47-.67-.91-1.36-1.32-2.09-.19-.47-.67-1.11-.13-1.58.13-.03.32-.07.45.03l1.65,1.77c.67.65,1.37,1.27,2.08,1.87,4.7,3.93,10.18,6.63,16.65,6.44,3.77-.51,7.16-2.44,9.89-5.14l.1-.38c-.06-.16-.19-.25-.32-.28-3.16.13-6.2-.11-9.14-.64-2.25-.4-4.44-.98-6.55-1.68-1.93-.76-3.87-1.43-5.61-2.6-.03-.16-.03-.38.06-.5,3.68-.13,7.7-1.4,9.76-4.79-.03-.22.16-.57-.16-.66-2.92.22-6.09.25-8.91-.35-.22,0-.29-.19-.29-.38.03-.13.19-.19.29-.29,1.44-.08,2.84-.27,4.18-.59,2.28-.55,4.39-1.5,6.25-3.02.57-.44.73-1.14,1.27-1.56.29-.57.76-1.14.44-1.84-3.23.54-6.4,1.36-9.6,1.52-.79.03-1.77.07-2.57-.06-.16-.19,0-.41.13-.54,1.84-.51,3.71-.82,5.45-1.52,2.47-.92,4.94-1.87,6.75-4.03.41-.89,1.27-1.74.89-2.79-.16-.16-.32-.29-.57-.22-3.55,1.49-7.29,2.63-11.19,3.3-.51-.03-1.05.35-1.43-.1-.25-.25.22-.19.16-.41,4.09-1.39,8.18-2.72,11.51-5.74,1.17-1.27,2.19-2.95,1.87-4.69-.1-.25-.32-.5-.63-.47-2.85,1.36-5.71,2.69-8.75,3.64-.38,0-.73.41-1.11.1-.1-.13-.1-.35.03-.44,2.37-1.66,4.8-3.23,7.22-4.81h0c2.29-1.5,4.58-3,6.81-4.6,1.55-1.17,3.17-2.47,4.75-3.64,7.2-5.67,13.66-12.78,18.92-20.48.7-1.02,1.3-2.09,2.03-3.08,2.76-5.07,5.77-10.17,6.85-15.94.41-3.23-.67-6.56-2.82-9.07-.28-.25-.54-.57-.95-.6-.23.06-.26.32-.32.5.13,1.78-.32,3.27-.48,4.79-.29,2.06-1.04,4.03-1.55,6.02-2.6,8.53-6.69,16.35-12.39,23.62-6.92,9.3-16.33,15.97-25.81,22.47h0c-1.47,1-2.93,2-4.39,3.01-2.6,2.03-5.32,4.02-6.94,6.97-1.08,2-1.93,4.28-2.73,6.41-.78,2.53-1.93,5.17-3.66,7.3-1.45,1.79-3.29,3.21-5.63,3.89-.48-.03-1.2.35-1.52-.19-.1-.32.06-.57.29-.76,1.51-.64,2.73-1.68,3.69-2.94.84-1.1,1.48-2.38,1.92-3.69,1.55-4.63,2.63-9.48,5.04-13.76,1.21-2.29,2.69-4.34,4.34-6.24h-.08.08c3.87-4.45,8.69-8.08,13.15-11.98,1.17-.83,2.28-1.97,3.42-2.86,5.39-4.81,10.49-10.3,14.14-16.48,1.4-2.54,2.6-5.2,2.95-8.11.6-3.39.08-7.28-2.79-9.13-.98-.63-1.96-1.61-3.2-1.46-.25.06-.38.29-.28.54,1.55,2.22,1.96,5.48,1.17,8.08-1.84,6.59-5.7,12.39-10.21,17.72-5.83,7.26-13.53,12.68-20.35,19.05-.89.95-2,1.8-2.69,2.88-.48.51-1.04,1.18-1.48,1.75h0s-.04.06-.06.09c-.03.03-.05.06-.08.1h0c-1.79,2.41-3.07,5.13-4.08,7.86-1.27,3.83-2.09,7.83-3.14,11.73-.16.95-.7,1.71-1.01,2.57-.34.5-.76,1.1-1.31,1.34-.23.1-.47.14-.75.08-.06-.03-.12-.05-.18-.08-.84-.43-1.32-1.37-1.5-2.23-1.71-7.64,1.93-14.45,6.62-20.03.4-.48.8-.96,1.21-1.42,2.83-3.26,5.9-6.36,8.11-9.96,1.62-2.69,2.19-6.56.38-9.26-.54-1.23-1.71-2.12-2.85-2.66-.1-.13-.1-.28,0-.41,1.01-.25,1.93.22,2.88.26,2.28.28,4.79-.07,6.81-.89,1.33-.67,2.82-1.65,3.2-3.17.1-.54.38-1.33-.22-1.74-.48-.19-.35.44-.57.63-1.05,1.11-2.66,1.56-4.22,1.56-3.77-.38-7.2-1.56-10.65-2.7-2.51-.76-4.91-1.62-7.48-2.09-2.73-.29-6.43-.95-8.24,1.62-.38.63-.22,1.33.1,1.97-1.52.16-3.11.1-4.69.25-.38-1.14-.73-2.25-1.23-3.3-.89.19-1.74.5-2.73.38.76.98,1.36,2.06,1.55,3.26-2.19.67-4.63,1.43-5.93,3.43-.25.66-.83,1.3-.67,2.03,2.12-.92,4.34-1.65,6.81-1.77l.13.1c0,1.2-.32,2.47-.7,3.61-1.01.28-2.03.13-3.01.22.06.16-.16.32-.1.5.16,1.14,1.55,1.05,2.15,1.55-.6,1.2-1.36,2.47-2.31,3.46-.92-.86-2.16-1.59-3.42-1.52-2.44-.22-4.28,1.65-6.47,2.25-.51.19-1.08-.16-1.52-.25-.19.6.22,1.23.73,1.61.41.16.76.57,1.2.47.6.32,1.46.29,2.22.26,1.68-.16,2.91-1.36,4.47-1.9.67-.09,1.36-.54,2.03-.13-.13.44-.67.7-1.01,1.05-2.12,1.55-4.75,2.28-6.15,4.72-.35.95-.38,2.09.03,3.04.7,1.11,1.9,1.75,3.2,1.56,0-.16-.09-.29-.16-.41-.54-1.74,1.33-2.88,2.41-3.9.76-.86,1.3-2.13.73-3.26.73-.6,1.42-1.17,2.22-1.74.45,1.14,1.05,2.22,2.03,3.14,1.14.98,2.89,1.39,4.31.73,1.71-.76,3.42-2.53,3.3-4.53-.83.86-1.9,1.46-3.11,1.68-.51-.6-.95-.95-1.55-1.49-1.04-.79-2.44-1.04-3.77-.79,1.14-1.33,2-2.76,2.85-4.24,2-.19,3.99-.6,5.99-1.08,2.5-.51,5.51-.38,7.13,1.78.32.35.57.86.83,1.39,1.08,3.08-.83,5.9-2.88,8.08-2.35,2.39-4.94,4.53-7.58,6.63-5.59,4.45-11.38,8.73-15.4,14.8-1.01,1.33-1.93,2.92-2.6,4.57-.72,1.35-1.31,2.8-1.77,4.32-1.14,3.74-1.48,7.89-.94,11.84.39,2.79,1.22,5.5,2.52,7.9.67,1.4,1.5,2.71,2.45,3.95,3.98,5.16,10.14,8.9,15.87,11.17,6.5,2.7,13.28,4.47,20.32,5.33l.13.13c.87,2.2,1.45,4.62,1.6,7.06.14,2.28-.09,4.58-.81,6.76-.1.26-.32.54-.22.86,1.08-.38,2.15-1.14,2.95-1.93.6-.41.89-1.04,1.4-1.55.12-.03.19.03.25.13.92,6.66,2.51,13.25,4.9,19.43h0s.02.03.02.05c0,.01,0,.03.02.04.55,1.4,1.14,2.79,1.78,4.16.35,1.11,1.43,1.96,1.14,3.17-.22.28-.57.66-.98.63-.47-.03-1.01-.06-1.42-.19-1.3-.35-2.57-.95-3.84-1.3-1.9-.32-4.63-1.4-6.21.35-.25.48-.25,1.08-.03,1.58-.57.13-1.2-.03-1.84.03-1.36-.03-2.53.79-3.14,1.97-.19.57-.19,1.43.16,1.93.22.38.63.6,1.05.63.13-.1.16-.25.19-.44.82-1.59,2.69-1.84,4.37-1.87.13.03.29.16.22.32-.47.41-1.08.63-1.46,1.14-.48.67-.73,1.46-.32,2.28.35.67,1.02,1.17,1.84,1.17.3,0,.28.13.41,0-.1-.6.29-1.24.76-1.71,2.03-1.58,4.6-1.9,7.2-2.15,4.82-.41,10.38-.51,15.06.47M30.04,38.31c.15-.43.38-1.2.53-1.99.12-.62.17-.73.21-1.6,3.18,0,4.75.12,4.75,1.12,0,1.37-2.92,2.1-5.5,2.47M40.26,33.76c-.47,0-.92-.06-1.3-.35-.51-.47-.54-1.27-.35-1.87.19-.35.7-.1,1.05-.1,1.77.32,3.58.6,5.26,1.11.1.06.03.19,0,.28-1.61.19-3.04.79-4.66.92M43.87,107.64c-2.19-.7-4.33-1.66-6.34-2.87-3.04-1.83-5.77-4.23-7.89-7.15-1.06-1.43-1.94-3.01-2.63-4.7-1.52-3.7-2.11-7.86-1.57-11.84.24-1.78.71-3.53,1.42-5.18.98-2.25,2.25-4.47,3.71-6.4,1.36-1.55,2.7-3.2,4.5-4.41.16,0,.32,0,.38.16v.32c-1.05,1.55-1.9,3.1-2.66,4.82-1.49,3.35-2.53,7.03-2.66,10.69-.03.76-.02,1.54.04,2.3.18,3.41.95,6.57,2.21,9.54.75,1.76,1.66,3.45,2.74,5.07.38.45.63,1.02,1.08,1.36,1.53,2.07,3.41,3.84,5.4,5.41h0c1.1.87,2.24,1.67,3.37,2.42.25.23.76.41.7.76-.57.38-1.2-.19-1.77-.31"/><path class="cls-1" d="M87.87,32.08c-7.23,10.27-18.1,16.77-26.85,25.48-.51.67-1.33,1.14-1.4,2.03.1.1.16.22.32.32.25.06.41,0,.7-.06,2.57-2.19,5.14-4.15,7.95-6.09,2.19-1.58,4.37-3.1,6.59-4.63,7.73-5.77,14.96-12.55,19.65-21.17,2.16-3.52,3.55-8.65,1.2-12.49-.25-.44-.54-.89-.89-1.24-.25-.1-.54.03-.6.22,0,.73.09,1.43.09,2.15-.73,5.71-3.42,10.91-6.78,15.47"/><path class="cls-1" d="M37.91,166.37c.41.13.79-.13,1.14-.32.06-.06.1-.08.25-.22.95-.76,1.27-1.81,1.27-2.92-.03-1.07-1.05-1.8-1.9-2.12-.19-.08-.25-.1-.45-.16-2.09-.64-4.41-.38-6.66-.35-.63-.1-1.46.03-1.75-.66-.12-.41.06-.89.26-1.24,1.45-2.1,2.96-4.18,4.48-6.25h-.03.03c2.48-3.39,4.98-6.76,7.28-10.2,1.8-2.7,2.98-6.02,3.07-9.19,1.27,1.27,2.79,2.31,4.44,2.98.41.1.92.22,1.3.1-1.47-2.23-2.48-4.73-3.09-7.36h-.37.37c-.45-1.95-.69-3.98-.74-6.01-.85-.25-1.8-.29-2.66-.51-3.26-.76-6.4-2.06-9.35-3.49-.12,3.32-.71,6.79-1.68,10.05-.5,1.69-1.12,3.36-1.84,4.97,2.8,0,5.1-1.9,7.07-3.52-.76,3.14-1.84,5.58-3.3,9.04-2.21,5.25-4.56,9.29-6.96,13.24-.81,1.33-1.63,2.66-2.49,4.06-.57.98-1.27,2.15-2.44,2.69-3.26.89-5.58-1.74-8.75-1.46-1.5.26-2,.54-2.5,1.08-.29.44-.25.98-.06,1.46-1.78-.16-3.71-.16-5.1.89-.6.57-.89,1.43-.64,2.28.19.54.54,1.01,1.17,1.24.76-1.46,2.31-2.12,3.87-2.51.66-.09,1.36-.22,2,.03.16.1.03.28-.1.38-.63.32-1.33.7-1.84,1.27-.51.67-.95,1.49-.7,2.35.46,1.1,1.59,1.52,2.66,1.39.09-.13-.03-.25-.03-.38-.13-1.2,1.07-1.84,2-2.35,3.04-1.05,6.5-1.05,9.82-1.14,2.76-.16,5.55.03,8.31.22,1.62.19,3.24.47,4.47,1.49.29.29.35.8.16,1.14"/><path class="cls-1" d="M86.47,145.9c.67.16.92-.63,1.27-1.01,1.74-2.88,3.42-5.9,4.41-9.16.77-2.34,1.22-4.8,1.31-7.27.25-6.24-1.68-12.56-5.97-17.17-2.48-2.92-5.46-4.93-8.66-6.52h0c-4.63-2.28-9.74-3.68-14.47-5.62-.92-.32-1.71-.95-2.66-1.11-.13.1-.16.25-.09.41,2.57,2.34,5.25,4.29,7.89,6.32,4.01,3.08,7.95,6.35,11.34,11.49,2.21,3.35,3.52,5.28,4.85,9.07.38,1.07.7,2.11.98,3.13,1.57,5.76,1.56,10.82-.03,16.17,0,.48-.41.79-.16,1.27"/><path class="cls-1" d="M87.46,85.29c-4.6,2.6-9.42,4.63-14.8,5.3-.03.1-.09.22,0,.32,1.02.19,2.03.41,3.11.47,2.69.16,5.36.25,7.95-.19,1.24-1.27,2.32-2.69,3.33-4.12.19-.54.83-.98.7-1.62-.03-.13-.19-.13-.29-.16"/><path class="cls-1" d="M94.74,73.38c-.95.41-1.71,1.23-2.57,1.77-3.94,2.55-8.13,4.57-12.57,5.93h0c-1.92.6-3.89,1.07-5.91,1.42l-.03.35c.32,2.92-2.31,5.14-4.63,6.34v.19l.41.06c1.9-.16,3.74-.63,5.52-1.04,4.78-1.58,9.44-3.65,13.47-6.97.14-.11.29-.22.44-.34h0c2.06-1.6,4.05-3.62,5.61-5.78.16-.54.76-1.02.67-1.62-.1-.13-.22-.35-.41-.32"/><path class="cls-1" d="M99.82,60.57c-1.49.98-2.41,2.25-3.93,3.2-1.87,1.46-3.77,2.73-5.74,3.96-4.31,2.47-8.74,4.66-13.44,6.21.16,2.34-.67,4.63-2.54,6.18.03.19-.28.13-.28.29,0,.06,0,.16.06.22,3.96-.73,7.67-2.35,11.32-4.22,4.91-2.95,9.73-6.4,13.09-11.22.89-1.3,1.68-2.58,1.97-4.18-.02-.35-.22-.47-.51-.44"/><path class="cls-1" d="M115.22,15.4c-.19-.92-.16-1.93-.63-2.73-.09-.19-.41-.19-.54-.03-.57,1.4-1.05,2.82-1.62,4.18-2.66,5.48-5.58,10.97-9.51,15.78-2.85,4-6.56,7.32-9.73,10.97-.03.13-.1.35,0,.47.16.19.44.13.6.13l1.55-1.24c6.69-5.7,13.09-11.7,18.07-19.08,1.58-2.41,2.15-5.45,1.8-8.47"/><path class="cls-1" d="M104.89,46.27c-3.86,4.16-8.12,7.86-12.65,11.13h0c-4.59,3.31-9.46,6.16-14.48,8.59.54,1.71.25,3.61-.7,5.17-.22.38-.63.67-.73,1.08.1.19.29.03.44.03,8.11-3.53,16.17-8.16,22.51-14.86h0c.95-1,1.85-2.05,2.72-3.14,1.68-2.37,3.42-4.82,3.64-7.74-.06-.38-.51-.38-.76-.25"/><path class="cls-1" d="M112.24,28.3c-9.1,11.97-21.42,21.63-33.95,29.1h0c-.18.1-.35.21-.53.31.06.35.25.7.41,1.05.57,1.65.25,3.58-.76,4.95-.06.12-.03.25.06.31,3.65-2.04,7.24-4.23,10.73-6.61h0c6.46-4.41,12.51-9.46,17.7-15.41,2.76-3.39,5.04-6.88,6.66-10.78.29-.89.66-1.77.63-2.76-.09-.48-.7-.51-.95-.16"/><path class="cls-1" d="M94.02,202.31c-.93.9-1.5,1.39-2.6,2.06-2.03,1.23-3.43,1.59-5.78,1.88-1.17.14-1.85.16-3.02.08-1.17-.09-1.84-.18-2.95-.53-1.72-.53-2.71-1.01-4.08-2.19-.92-.79-1.34-1.36-2.04-2.36-.53-.76-.8-1.21-1.21-2.04-.48-.97-.69-1.55-1-2.59-.32-1.06-.47-1.67-.61-2.76-.09-.75-.11-1.17-.12-1.92-.04-3.14.19-5.09,1.61-7.88.4-.79.65-1.23,1.18-1.95.4-.55.64-.84,1.12-1.33,1.05-1.08,1.75-1.61,3.09-2.3,2.98-1.55,5.26-1.67,8.55-1.01,3.09.62,4.81,1.68,7.12,3.82.45.41.71.8,1.09,1.1.23-.08.41-.21.61-.35,0-.33-.61-7.07-.74-7.28-.71-.2-1.34-.33-2.21-.52-3.37-.7-5.32-1.24-8.76-1.07-3.89.19-6.23.62-9.68,2.41-.36.18-.56.29-.91.5-.39.23-.61.37-.98.63-.68.48-1.04.78-1.65,1.35-.27.25-.41.4-.67.67-.69.72-1.08,1.14-1.68,1.94-1.5,2.01-2.07,3.4-2.81,5.79-.28.9-.41,1.41-.58,2.33-.39,2.18-.24,3.47-.12,5.69.02.29.02.45.04.73.17,1.93.56,3.01,1.32,4.8.49,1.16.82,1.81,1.51,2.86,1.2,1.81,2.11,2.72,3.83,4.05,1.62,1.26,2.68,1.82,4.58,2.6,4.14,1.7,6.97,1.8,11.41,1.24.99-.13,1.55-.22,2.53-.46.66-.16,1.02-.27,1.67-.47,1.33-.4,2.36-.8,3.37-1.17.03-.11.59-6.4.71-6.55-.15-.14-.3-.32-.51-.39-.23.15-.36.39-.6.62"/><path class="cls-1" d="M22.57,201.99l-.36-.3-.06.06c-.08.02-.06.11-.14.11-1.68,1.53-3.55,2.5-5.59,3.21-2.13.85-4.54.97-6.94.95v-25.86c0-.67.21-1.36.41-2.04.33-1.39,1.18-2.75,2.37-3.57.08-.06.12-.1.21-.13.03-.03.09-.08.09-.11-.15-.23-.25-.5-.43-.7H1.06c-.09.21-.32.41-.29.65,1.62,1.76,2.3,4.06,2.27,6.36v20.77c.04,1-.05,2.07-.25,3.09-.41,1.71-.96,3.3-2.16,4.65-.04.03-.1.14-.12.16-.19.22-.39.32-.51.54.05.24.17.41.2.63h19.44c.22,0,.22,0,.32-.24.68-1.89,1.3-3.79,1.98-5.66.21-.7.47-1.38.74-2.06.02-.11.12-.18.08-.29-.05-.1-.2-.09-.18-.21"/><path class="cls-1" d="M52.23,195.65c.1.11.23.18.24.29,0,0,.77-.29.77-.38,0-2.29-.02-7.39,0-8.7-.05-.12-.46-.44-.58-.49-.48.7-1.18,1.14-2.09,1.64-.93.51-1.54.66-2.57.89-1.13.25-1.8.24-2.97.28-.59.02-1.01-.03-1.5,0,0,0-.03-9.91.02-11.35.09.02.15-.09.24-.09.52.08,1.68.05,2.74.15,1.2.11,1.88.16,3.06.41.67.14,1.04.23,1.69.44.48.15.75.23,1.21.44.96.43,1.65.8,2.25,1.47-.05.18.12.06.2.12.15-.1.35-.24.54-.31.18-.11-.01-.27.06-.42-.19-1.54-.36-3.25-.54-4.81-.09-.53-.04-1.04-.11-1.57h-19.94c-.14.21-.3.41-.39.65.65.39,1.18,1.01,1.59,1.67.77,1.39,1.12,2.93,1.21,4.59.02,1.57-.03,21.86,0,21.97-.06,2.17-.52,4.18-1.62,5.9-.24.27-.44.57-.7.83-.11.23-.41.34-.51.57.11.19.14.47.27.68h11c.14-.25.2-.55.3-.79-.58-.5-1.05-.96-1.53-1.72-.52-.85-.92-1.86-.92-2.39v-12.27c1.85-.06,3.35.1,5.4.63.25.06.4.1.65.18.25.09.38.15.62.26.8.37,1.29.6,1.89,1.25"/><path class="cls-1" d="M53.8,205.28c-1.46,0-2.65,1.19-2.65,2.65s1.18,2.65,2.65,2.65,2.65-1.19,2.65-2.65-1.18-2.65-2.65-2.65"/><path class="cls-1" d="M27.14,205.28c-1.46,0-2.65,1.19-2.65,2.65s1.19,2.65,2.65,2.65,2.65-1.19,2.65-2.65-1.19-2.65-2.65-2.65"/><path class="cls-1" d="M101.58,205.28c-1.46,0-2.65,1.19-2.65,2.65s1.18,2.65,2.65,2.65,2.65-1.19,2.65-2.65-1.18-2.65-2.65-2.65"/><path class="cls-1" d="M78.52,132.7c-.6.6-.93,1.38-.93,2.19s.31,1.55.89,2.14c.59.59,1.34.91,2.16.91s1.57-.32,2.17-.91c.58-.56.89-1.31.89-2.15s-.32-1.58-.88-2.15c-.59-.6-1.35-.91-2.18-.91s-1.56.3-2.12.87M82.55,133.02c.49.49.75,1.15.75,1.89s-.27,1.36-.77,1.85c-.53.51-1.18.78-1.9.78-.68,0-1.35-.28-1.85-.79-.5-.51-.78-1.17-.78-1.86s.29-1.38.81-1.91c.48-.49,1.14-.75,1.85-.75s1.38.27,1.89.79"/><path class="cls-1" d="M80.08,135.09h.65l.71,1.48h.73l-.77-1.58c.5-.1.79-.44.79-.93,0-.63-.47-.95-1.44-.95h-1.31v3.46h.65v-1.48ZM80.08,133.53h.54c.61,0,.89.17.89.6s-.28.55-.88.55h-.55v-1.15Z"/></svg>