<?xml version="1.0" encoding="UTF-8"?>
<svg id="Layer_1" xmlns="http://www.w3.org/2000/svg" version="1.1" viewBox="0 0 310 288">
  <!-- Generator: Adobe Illustrator 29.1.0, SVG Export Plug-In . SVG Version: 2.1.0 Build 142)  -->
  <defs>
    <style>
      .st0 {
        fill: #ffee90;
      }

      .st0, .st1, .st2, .st3, .st4, .st5 {
        fill-rule: evenodd;
      }

      .st1 {
        fill: #fff;
      }

      .st2 {
        fill: #231f20;
      }

      .st3 {
        fill: #b07925;
      }

      .st4 {
        fill: #ec1c24;
      }

      .st5 {
        fill: #d7b382;
      }

      .st6 {
        fill: none;
        stroke: #b07925;
        stroke-miterlimit: 2.61;
        stroke-width: .86px;
      }
    </style>
  </defs>
  <polygon class="st2" points="139.58 102.61 137.31 102.61 137.31 75.85 139.58 75.85 139.58 102.61 139.58 102.61"/>
  <polygon class="st2" points="176.01 102.61 173.74 102.61 173.74 75.85 176.01 75.85 176.01 102.61 176.01 102.61"/>
  <path class="st2" d="M130.14,84.3s6.37,2.72,6.29,6.36c-.09,3.76-8.62,10.12-14.73-.18v4.12s4.77,6.44,10.33,5.64c5.46-.78,7.59-4.49,7.04-9.63-.54-5-2.55-6.13-5.24-7.74l-3.68,1.43h0Z"/>
  <path class="st2" d="M183.53,84.3s-6.37,2.72-6.29,6.36c.09,3.76,8.62,10.12,14.73-.18v4.12s-4.77,6.44-10.33,5.64c-5.46-.78-7.59-4.49-7.04-9.63.54-5,2.55-6.13,5.24-7.74l3.68,1.43h0Z"/>
  <path class="st2" d="M122.24,72.04s-4.67.45-6.2,5.37c2.6-.45,4.22-.63,4.22-.63,0,0-.54-1.97,1.98-4.74h0Z"/>
  <path class="st1" d="M116.87,77.32s.98-3.29,4.03-4.45c-1.04,1.65-1.22,3.11-1.22,4.08l-2.81.37h0Z"/>
  <path class="st4" d="M122.13,92.01s3.53,5.37,8.38,4.57c4.46-.73,7.46-4.39,6.24-7.5-1.17-2.98-5.2-4.81-5.2-4.81l2.32-.73s4.52,1.65,4.71,7.86c.16,5.36-2.93,8.47-7.64,8.29-4.71-.18-7.89-4.21-8.87-5.24l.06-2.44h0Z"/>
  <path class="st2" d="M191.43,72.04s4.67.45,6.2,5.37c-2.6-.45-4.22-.63-4.22-.63,0,0,.54-1.97-1.98-4.74h0Z"/>
  <path class="st1" d="M196.8,77.32s-.98-3.29-4.04-4.45c1.04,1.65,1.22,3.11,1.22,4.08l2.81.37h0Z"/>
  <path class="st4" d="M191.54,92.01s-3.53,5.37-8.38,4.57c-4.46-.73-7.46-4.39-6.24-7.5,1.17-2.98,5.2-4.81,5.2-4.81l-2.32-.73s-4.52,1.65-4.71,7.86c-.16,5.36,2.93,8.47,7.64,8.29,4.71-.18,7.89-4.21,8.87-5.24l-.06-2.44h0Z"/>
  <path class="st2" d="M175.63,68.75c4.37,10.45-.6,22.46-11.08,26.81-10.49,4.35-22.53-.59-26.89-11.05-4.37-10.45.6-22.46,11.08-26.81,10.49-4.35,22.53.59,26.89,11.05h0ZM155.66,74.71s-1.08-7.79-1.7-14.48c-3.21-.4-7.12,2.74-7.12,2.74l8.82,11.74h0ZM157.74,79.99s1.08,7.79,1.7,14.48c3.21.4,7.12-2.74,7.12-2.74l-8.82-11.74h0ZM154.18,78.08s-7.82,1.08-14.52,1.69c-.4,3.2,2.75,7.1,2.75,7.1l11.78-8.79h0ZM159.47,76.02s7.82-1.08,14.52-1.69c.4-3.2-2.75-7.1-2.75-7.1l-11.78,8.79h0ZM154.22,76.34s-6.29-4.75-11.47-9.04c-2.56,1.98-3.09,6.96-3.09,6.96l14.56,2.09h0ZM159.43,78.61s6.29,4.75,11.47,9.04c2.56-1.98,3.09-6.96,3.09-6.96l-14.56-2.09h0ZM155.56,79.77s-4.76,6.27-9.07,11.43c1.99,2.55,6.98,3.08,6.98,3.08l2.09-14.51h0ZM157.84,74.58s4.76-6.27,9.07-11.43c-1.99-2.55-6.98-3.08-6.98-3.08l-2.09,14.51h0Z"/>
  <path class="st2" d="M156.27,32.93c-1.53.02-1.16,2.32-.89,4.2.27,1.88,2.01,6.36-.9,8.06-2.26,1.32-3.78.52-6.2-.09-2.26-.57-2.22,1.3-1.98,2.06.29.92,3.05,2.69,6.2,3.67,3.14.99,2.33,3.4,1.08,4.66-1.26,1.25-3.5.98-4.58.98s-4.67-.9-6.2-.9-3.59-.27-4.94.9c3.5-.9,10.18.37,10.51.54,2.75,1.37,2.96,2.6,3.23,4.39.31,2.24-2.25,6-7,6.45-4.76.45-7.54-3.67-9.34-5.82-2.34,1.25-4.49,2.78-4.49,5.28s2.51,2.6,7.72,2.78c5.21.18,6.11,3.76,6.11,3.76l-9.07.9s-.99-1.16-2.6-2.51c-1.62-1.34-4.04-3.22-4.58-7.61-.54-4.39,3.41-5.73,6.29-7.25.99-4.83,4.67-5.1,7.36-5.19,2.69-.09,5.75,2.69,7.81,3.31,2.07.63,1.62-1.7,1.35-2.69-.27-.98-2.01-1.98-5.26-3.4-1.44-.63-2.1-2.59-1.2-4.12.94-1.59,2.16-1.52,4.22-1.7,2.07-.18,2.89-.08,3.79-.71,1.12-.78,1.45-1.45,1.24-5.83-.24-4.92,2.26-4.91,2.26-4.91l.07.81h0ZM146.49,64.07c2.03-.45,4.04-1.43,3.68-2.6-.36-1.16-2.07-1.61-6.11-1.7-4.04-.09-7.01,1.52-7.01,1.52,5.39,3.94,8.62,2.95,9.43,2.78h0Z"/>
  <path class="st4" d="M130.56,68.97s-3.08-4.86-.53-7.88c2.55-3.02,6.85-3.94,8.7-4.12,1.85-.17,7.21-.22,8.92.53,1.71.74,3.25,1.84,3.43,3.64-1.67-1.23-3.91-2.06-7.47-1.88-3.56.18-7.25.92-9.71,2.8-2.46,1.88-4.26,3.33-3.34,6.92h0Z"/>
  <path class="st1" d="M131.13,69.45s1.8,1.1,3.87,1.1,7.29-.39,8.66,2.85c-1.71.17-7.78.74-7.78.74,0,0-1.23-1.62-2.33-2.23-1.1-.61-1.63-1.31-2.42-2.45h0Z"/>
  <path class="st1" d="M135.88,61.78l.66-.35s4.09,3.9,8,3.46c3.91-.44,6.06-1.27,6.19-3.37.26.31.44.31.44.31,0,0-.47,4.99-6.85,5.39-4.97.31-8.44-5.43-8.44-5.43h0Z"/>
  <path class="st1" d="M135.39,57.1l1.67-.48s1.54-1.8,3.82-1.62c2.28.17,4.09.31,5.71.7,1.63.39,1.85.48,3.3.35-2.11-.88-4.13-2.1-4.96-2.63-.83-.53-3.03-.83-4.83-.66-1.8.17-4.04,1.31-4.7,4.34h0Z"/>
  <path class="st4" d="M149.5,50.4s2.15.7,3.08,1.05c1.05.4,1.71,1.14,1.58,2.06-.13.92-1.23,2.5-3.3,2.5,1.36-1.36,1.27-2.23.92-3.11-.35-.88-.97-1.62-2.29-2.5h0Z"/>
  <path class="st1" d="M148.27,49.65s-2.86-1.49-2.46-3.15c.4-1.66.62-1.88.62-1.88,0,0-1.63.22-1.63,1.62s.7,2.98,3.47,3.42h0Z"/>
  <path class="st4" d="M147.39,44.31s1.23-.44,2.99-.39c1.76.04,4.13-.61,4.13-3.07s-.31-5.61.13-6.26c0,0,.18,2.67.57,4.16.4,1.49.61,5.12-.79,5.87-1.41.74-2.59,1.01-4.35.39-1.76-.61-2.24-.83-2.68-.7h0Z"/>
  <path class="st2" d="M157.55,32.11s2.31,0,2.07,4.92c-.21,4.38.11,5.05,1.24,5.83.9.62,1.73.53,3.79.71,2.07.18,3.28.11,4.22,1.7.9,1.52.23,3.49-1.2,4.12-3.26,1.42-4.99,2.42-5.26,3.4-.27.99-.72,3.31,1.35,2.69,2.07-.63,5.12-3.4,7.81-3.31,2.69.09,6.38.36,7.36,5.19,2.87,1.52,6.83,2.86,6.29,7.25-.54,4.39-2.96,6.27-4.58,7.61-1.62,1.34-2.6,2.51-2.6,2.51l-9.07-.9s.9-3.58,6.11-3.76c5.21-.18,7.72-.27,7.72-2.78s-2.16-4.03-4.49-5.28c-1.8,2.15-4.58,6.27-9.34,5.82-4.76-.45-7.31-4.21-7-6.45.27-1.79.48-3.02,3.23-4.39.33-.16,7-1.43,10.51-.54-1.35-1.16-3.41-.9-4.94-.9s-5.12.9-6.2.9-3.32.27-4.58-.98-2.07-3.67,1.08-4.66c3.14-.98,5.91-2.75,6.2-3.67.24-.76.28-2.63-1.98-2.06-2.42.61-3.94,1.4-6.2.09-2.91-1.69-1.17-6.18-.9-8.06.27-1.88.36-4.21-.72-4.21l.09-.81h0ZM176.49,61.3s-2.96-1.61-7.01-1.52c-4.04.09-5.75.54-6.11,1.7-.36,1.16,1.65,2.15,3.68,2.6.81.18,4.04,1.16,9.43-2.78h0Z"/>
  <path class="st4" d="M182.99,68.97s3.08-4.86.53-7.88c-2.55-3.02-6.85-3.94-8.7-4.12-1.85-.17-7.21-.22-8.92.53-1.71.74-3.25,1.84-3.43,3.64,1.67-1.23,3.91-2.06,7.47-1.88,3.56.18,7.25.92,9.71,2.8,2.46,1.88,4.26,3.33,3.34,6.92h0Z"/>
  <path class="st1" d="M182.42,69.45s-1.8,1.1-3.87,1.1-7.29-.39-8.66,2.85c1.71.17,7.78.74,7.78.74,0,0,1.23-1.62,2.33-2.23,1.1-.61,1.63-1.31,2.42-2.45h0Z"/>
  <path class="st1" d="M177.68,61.78l-.66-.35s-4.09,3.9-8,3.46c-3.91-.44-6.06-1.27-6.19-3.37-.26.31-.44.31-.44.31,0,0,.47,4.99,6.85,5.39,4.97.31,8.44-5.43,8.44-5.43h0Z"/>
  <path class="st1" d="M178.16,57.1l-1.67-.48s-1.54-1.8-3.82-1.62c-2.28.17-4.09.31-5.71.7-1.63.39-1.85.48-3.3.35,2.11-.88,4.13-2.1,4.96-2.63.83-.53,3.03-.83,4.83-.66,1.8.17,4.04,1.31,4.7,4.34h0Z"/>
  <path class="st4" d="M164.05,50.4s-2.15.7-3.08,1.05c-1.05.4-1.71,1.14-1.58,2.06.13.92,1.23,2.5,3.29,2.5-1.36-1.36-1.27-2.23-.92-3.11.35-.88.97-1.62,2.29-2.5h0Z"/>
  <path class="st1" d="M165.29,49.65s2.86-1.49,2.46-3.15c-.4-1.66-.61-1.88-.61-1.88,0,0,1.63.22,1.63,1.62s-.7,2.98-3.47,3.42h0Z"/>
  <path class="st4" d="M166.16,44.31s-1.23-.44-2.99-.39-4.13-.61-4.13-3.07.31-5.61-.13-6.26c0,0-.18,2.67-.57,4.16-.4,1.49-.62,5.12.79,5.87,1.41.74,2.59,1.01,4.35.39,1.76-.61,2.24-.83,2.68-.7h0Z"/>
  <path class="st2" d="M157.21,72.13c17.6,0,45.36,3.35,52.44,6.32,3.01,1.26,5.07,1.9,5.07,4.74v4.04s.94-.46,3.8-.46c2.01,0,3.86.51,5.05,1.54.44.38.67.9.67,1.64v9.99c0,1.42-.79,1.42-1.9,2.05-1.11.63-1.86,1.04-1.86,1.04l-.04,5.75s-3.33-.16-6.02-2.05c-2.13-1.5-.9-5.71.81-7.07.99-.79.99-.99.99-.99,0,0-.64.18-1.29.41-2.11.77-6.44,3.18-9.55,3.23-3.81.05-11.49.03-13.7-5.81l-.16-10.85s-11.47-2.25-34.3-2.25h.33c-22.83,0-34.3,2.25-34.3,2.25l-.16,10.85c-2.2,5.83-9.89,5.86-13.7,5.81-3.11-.04-7.43-2.46-9.55-3.23-.64-.23-1.29-.41-1.29-.41,0,0,0,.21.99.99,1.71,1.36,2.94,5.57.81,7.07-2.7,1.9-6.03,2.05-6.03,2.05l-.04-5.75s-.75-.41-1.86-1.04c-1.11-.63-1.9-.63-1.9-2.05v-9.99c0-.75.23-1.26.67-1.64,1.18-1.03,3.03-1.54,5.05-1.54,2.85,0,3.8.46,3.8.46v-4.04c0-2.85,2.06-3.48,5.07-4.74,7.08-2.97,34.84-6.32,52.44-6.32h-.33Z"/>
  <path class="st2" d="M160.86,260.29c42.52,0,59.9-9.37,64.32-11.63,2.41-1.23,4.17-3.61,4.17-5.45s.13-8.11.13-8.11c0,0,4.23.31,7.01.08,2.77-.23,5.37-2.35,5.37-5.58s-.24-19.25-.24-24.09c0-1.66-4.55-2.87-4.55-2.87v-10.6s-10.76,3.29-10.76,8.12v8.46s-13.17-1.83-17.56-2.06c-4.39-.23-6.93,2.53-6.93,6.45v17.42s-12.18,4.02-40.96,4.02h-7.71c-28.78,0-40.96-4.02-40.96-4.02v-17.42c0-3.92-2.54-6.68-6.93-6.45-4.39.23-17.56,2.06-17.56,2.06v-8.46c0-4.84-10.76-8.12-10.76-8.12v10.6s-4.55,1.2-4.55,2.87c0,4.84-.24,20.86-.24,24.09s2.6,5.35,5.37,5.58c2.77.23,7.01-.08,7.01-.08,0,0,.13,6.27.13,8.11s1.76,4.22,4.16,5.45c4.42,2.26,17.64,11.63,64.32,11.63h7.71Z"/>
  <path class="st4" d="M77.81,193.3s9.15,3.38,8.39,6.64c0,0-5.06,1.66-8.39,2.37v-9.02h0Z"/>
  <path class="st5" d="M87.03,200.54v8.31s-9.16,1.19-11.66-.59c-1.79-1.27-3.09-2.49-.59-3.8,2.5-1.31,9.76-2.73,12.26-3.92h0Z"/>
  <path class="st4" d="M73.1,207.18s1.31,2.61,4.76,2.85c5.23.36,8.57-.24,13.81-.95,5.69-.77,10.71-1.66,14.16-1.54,3.45.12,5.12,1.9,5.12,4.63s-3.57,4.03-6.43,4.03-6.24-2.5-9.76-3.09c-3.57-.59-10.36-.61-10.24,3.07.12,3.68,0,18.17,0,18.17,0,0-5.59.47-7.5,0s-4.17-1.9-4.17-4.39.24-22.78.24-22.78h0Z"/>
  <path class="st5" d="M90.72,213.71c3.09,0,5.83.71,8.69,1.9,3.05,1.27,3.84,1.64,5.51,1.64s5.92-1.16,6.64-4.01v16.98s-8.64-1.07-18.62-6.07c-1.52-.76-8.27-3.73-7.68-7.95.39-2.82,5.48-2.49,5.48-2.49h0Z"/>
  <path class="st4" d="M160.86,259.39c41.1,0,56.83-8.07,62.3-10.56,5.48-2.49,5.59-5.81,5.59-5.81v-23.14s-9.34,15.42-67.9,15.42h-7.71c-58.56,0-67.9-15.42-67.9-15.42v23.14s.12,3.32,5.59,5.81c5.48,2.49,20.97,10.56,62.31,10.56h7.71Z"/>
  <path class="st4" d="M236.19,193.3s-9.15,3.38-8.39,6.64c0,0,5.06,1.66,8.39,2.37v-9.02h0Z"/>
  <path class="st5" d="M226.97,200.54v8.31s9.16,1.19,11.66-.59c1.79-1.27,3.09-2.49.59-3.8-2.5-1.31-9.76-2.73-12.26-3.92h0Z"/>
  <path class="st4" d="M240.9,207.18s-1.31,2.61-4.76,2.85c-5.23.36-8.57-.24-13.81-.95-5.69-.77-10.71-1.66-14.16-1.54-3.45.12-5.12,1.9-5.12,4.63s3.57,4.03,6.43,4.03,6.24-2.5,9.76-3.09c3.57-.59,10.35-.61,10.24,3.07-.12,3.68,0,18.17,0,18.17,0,0,5.59.47,7.5,0,1.9-.47,4.17-1.9,4.17-4.39s-.24-22.78-.24-22.78h0Z"/>
  <path class="st5" d="M223.28,213.71c-3.09,0-5.83.71-8.69,1.9-3.05,1.27-3.84,1.64-5.51,1.64s-5.92-1.16-6.64-4.01v16.98s8.64-1.07,18.62-6.07c1.52-.76,8.27-3.73,7.68-7.95-.39-2.82-5.48-2.49-5.48-2.49h0Z"/>
  <path class="st1" d="M91.5,228.77c.43.14.85.42,1.26.84.15.16.31.32.46.48.21.21.35.33.44.36.06.02.13.01.2-.02.09-.05.17-.1.26-.15.04-.02.07-.03.11-.01.1.03.14.18.14.44,0,.33,0,.65-.01.98,0,.15,0,.3.01.44.03.41.07.81.1,1.22.03.38.05.75.08,1.12.01.1.02.18.02.25,0,.35-.06.5-.17.47-.08-.02-.14-.19-.17-.51-.13-1.16-.47-2.23-1.01-3.22-.54-.99-1.11-1.58-1.72-1.77-.41-.14-.78-.01-1.08.37-.31.38-.46.9-.46,1.56,0,.61.14,1.18.41,1.72.17.35.72,1,1.64,1.94,1.09,1.13,1.82,2.12,2.17,2.98.42,1.03.63,2.18.63,3.45,0,1.4-.29,2.53-.87,3.39-.58.86-1.26,1.16-2.04.91-.32-.1-.82-.44-1.51-1.03-.32-.29-.56-.49-.71-.6-.21-.14-.33-.26-.37-.34-.03-.08-.06-.3-.09-.65-.02-.39-.09-.96-.21-1.72-.17-1.16-.26-1.89-.26-2.2,0-.39.07-.56.21-.51.06.02.11.13.13.33.23,1.45.62,2.74,1.18,3.86.56,1.12,1.14,1.78,1.74,1.97.47.15.89-.02,1.25-.53.37-.5.55-1.15.55-1.95,0-.63-.1-1.18-.29-1.64-.19-.47-.52-.96-.99-1.46-.35-.39-.7-.77-1.05-1.16-.99-1.1-1.66-2.05-2.01-2.86-.35-.81-.53-1.78-.53-2.93,0-1.33.24-2.36.73-3.09.49-.73,1.1-.97,1.83-.74h0Z"/>
  <path class="st1" d="M103.01,232.42s.09.03.16.08c.08.05.27.13.56.23.25.09.5.17.75.26.23.04.46.08.69.12.24.02.44.04.62.04.08,0,.16.01.23.03.13.03.19.16.19.37,0,.17-.06.25-.18.26-.09,0-.18.01-.27.02-.37.01-.55.63-.55,1.86,0,.35,0,.7,0,1.04,0,.49,0,.98-.01,1.47,0,2.31-.07,4.15-.2,5.53-.13,1.38-.34,2.42-.64,3.11-.7,1.68-1.89,2.3-3.55,1.84-1.18-.33-2.09-.97-2.74-1.92-.88-1.3-1.32-3.46-1.32-6.47.03-1.54.05-3.07.08-4.61,0-.73-.01-1.46-.02-2.18,0-.54-.03-.94-.09-1.18-.06-.24-.19-.47-.38-.69-.23-.25-.48-.45-.76-.61-.18-.11-.27-.26-.27-.47,0-.22.08-.31.24-.26.05.02.15.06.28.12.59.28,1.04.47,1.36.56.45.13.96.23,1.51.3.22.03.38.06.48.09.24.07.36.22.36.46,0,.13-.02.21-.06.25-.04.04-.13.06-.27.07-.29.01-.48.14-.58.38-.1.24-.16.74-.18,1.51-.04,1-.07,2-.11,2.99,0,.71,0,1.42.01,2.13,0,1.94.06,3.33.18,4.19.12.85.36,1.63.72,2.31.55,1.05,1.26,1.69,2.13,1.93.89.24,1.6-.03,2.15-.8.37-.52.63-1.35.78-2.5.15-1.15.23-2.83.23-5.05v-.97c-.01-.82-.02-1.65-.03-2.47-.03-.75-.16-1.36-.4-1.84-.24-.48-.57-.77-.98-.87-.18-.05-.27-.19-.27-.42,0-.18.04-.27.13-.25h0Z"/>
  <path class="st1" d="M110.8,237.17c1.23,2.65,2.46,5.29,3.7,7.91.08.17.16.34.24.5.32.67.53,1.02.64,1.04.1.02.15-.22.16-.7.04-1.77.06-3.46.06-5.07,0-1.89-.11-3.19-.34-3.9-.23-.71-.67-1.18-1.32-1.39-.16-.05-.23-.16-.23-.34,0-.22.07-.32.21-.29.17.04.45.14.83.32.25.11.45.18.61.21.33.07.85.08,1.56.05.09,0,.16,0,.21.01.15.03.23.16.23.39,0,.21-.07.32-.22.33-.6.08-.9.94-.9,2.59v.59c-.03,2.51-.07,5.02-.1,7.53,0,.34-.02.69-.03,1.03,0,.45,0,.89,0,1.34,0,.31,0,.61,0,.92,0,.5.02,1.01.03,1.52,0,.23-.05.32-.15.3-.08-.03-.17-.13-.26-.32-2.13-4.5-4.26-9.03-6.38-13.59-.11-.24-.19-.36-.23-.37-.11-.03-.17.14-.17.5,0,.12,0,.23,0,.35v4.68c0,2.5.07,4.19.22,5.07.16.94.62,1.55,1.38,1.85.14.06.21.17.21.36,0,.25-.07.35-.22.32-.06-.01-.15-.05-.27-.11-.39-.22-.83-.38-1.31-.49-.47-.11-.9-.15-1.27-.13-.16,0-.28,0-.36-.02-.13-.03-.19-.15-.19-.36,0-.17.07-.28.2-.31.34-.08.59-.37.75-.85.16-.49.23-1.22.23-2.2.02-.94.03-1.89.05-2.83v-5.18c0-2.45-.53-3.86-1.59-4.25-.14-.05-.22-.18-.22-.37,0-.24.08-.34.24-.3.16.06.32.12.48.18.1.02.2.04.29.06.36.09.76.14,1.17.17.15.01.28.03.39.05.14.03.26.11.34.24.08.13.26.5.53,1.11.16.36.32.72.48,1.08.19.43.3.68.34.77h0Z"/>
  <path class="st1" d="M119.3,239.3c0-.77-.13-1.39-.38-1.85-.25-.46-.61-.74-1.07-.83-.15-.03-.22-.15-.22-.36,0-.15.03-.24.09-.27.06-.03.2-.03.4,0,.36.07.72.15,1.07.22.25.05.46.08.66.09.3.02.71.04,1.22.05.7,0,1.25.04,1.66.11,1.6.26,2.89,1.15,3.86,2.69.97,1.53,1.45,3.45,1.45,5.77,0,2.98-.65,5.27-1.95,6.85-.95,1.15-2.03,1.63-3.22,1.44-.2-.03-.6-.13-1.2-.3-.34-.09-.69-.17-1.05-.23-.84-.15-1.4-.2-1.67-.16-.22.03-.36.04-.44.03-.11-.02-.16-.15-.16-.39,0-.17.06-.26.18-.28.29-.04.49-.21.6-.5.11-.29.16-.82.16-1.59v-10.49h0ZM120.93,238.95v10.54c.03.37.06.74.08,1.11.15.95.73,1.52,1.74,1.69,1.09.18,1.95-.33,2.59-1.52.64-1.19.96-2.88.96-5.06s-.38-4.21-1.15-5.77c-.77-1.56-1.76-2.43-2.97-2.64-.5-.08-.84-.03-1.02.16-.15.15-.22.65-.22,1.49h0Z"/>
  <path class="st1" d="M131.91,240.82v2.59c0,.74.03,1.22.1,1.42.06.21.22.32.46.35.07,0,.14,0,.21.01.1,0,.21.02.31.02.2.02.4.05.6.07.47.05.83-.34,1.08-1.19.05-.19.11-.38.16-.57.04-.14.11-.21.2-.21.1,0,.15.12.15.34,0,.06,0,.24-.02.53-.01.21-.02.38-.02.53,0,.26.03.86.09,1.82.04.62.06,1.16.06,1.62,0,.2,0,.41,0,.61,0,.11,0,.19-.02.23-.02.05-.06.07-.13.07-.13,0-.22-.16-.25-.48-.06-.68-.2-1.21-.42-1.59-.12-.2-.27-.34-.45-.42-.18-.07-.51-.14-.99-.19-.16-.02-.32-.04-.48-.05-.23-.03-.38.01-.46.12-.08.11-.14.34-.17.68-.03.4-.04,1.03-.04,1.9v1.08c0,1.13.05,1.95.16,2.46.08.37.17.63.28.77.11.14.28.22.5.25,1.91.22,3.17-.65,3.76-2.58.03-.09.06-.14.08-.15.05-.01.09.02.13.09.04.07.06.16.06.26,0,.79-.13,1.54-.38,2.26-.21.61-.47,1.03-.78,1.27-.31.24-.73.33-1.24.28-.3-.03-.64-.1-1.01-.2-.27-.07-.55-.15-.82-.22-.3-.08-.71-.15-1.23-.22-.35-.04-.87-.07-1.57-.09-.19,0-.33,0-.42-.02-.11-.02-.17-.12-.18-.31,0-.15.05-.26.16-.33.27-.14.45-.3.55-.48.1-.18.17-.52.23-1.02.05-.42.08-.99.08-1.72v-9.5c0-.89-.09-1.51-.26-1.85-.17-.34-.53-.61-1.07-.81-.13-.05-.19-.19-.19-.4,0-.2.08-.29.23-.27.03,0,.1.02.21.05.08.02.2.04.35.06.24.05.48.1.71.14.89.13,1.79.26,2.68.38,1.54.18,2.5.23,2.86.18.04,0,.07,0,.1,0,.14.01.21.15.21.42,0,.19.02.52.05,1,.04.71.07,1.22.07,1.52,0,.61-.1.92-.29.92-.09,0-.14-.18-.14-.54,0-.79-.17-1.39-.51-1.78-.34-.39-.89-.63-1.65-.71-.29-.03-.57-.06-.86-.1-.16.01-.32.03-.48.04-.24.1-.36.49-.36,1.16,0,.16,0,.33,0,.49h0Z"/>
  <path class="st1" d="M140.49,250.64c0,1.52.08,2.55.25,3.11.17.55.49.89.98,1,.2.05.3.2.3.44s-.08.36-.24.35c-.05,0-.15-.03-.29-.07-.41-.1-.81-.16-1.19-.19-.32-.03-.6-.03-.85-.02-.2.01-.4.03-.6.04-.16,0-.32.02-.48.03-.13.01-.23.01-.28,0-.17-.02-.26-.13-.26-.35,0-.18.05-.29.14-.33.33-.14.55-.35.68-.62.12-.27.19-.7.19-1.29v-1.14c0-.16,0-.31,0-.47v-8.72c0-.96-.07-1.62-.21-1.96-.23-.56-.61-.91-1.14-1.08-.19-.07-.29-.22-.29-.45s.07-.34.2-.33c.05,0,.14.03.26.06.37.11.77.17,1.2.21.48.04,1.06.05,1.74.03.8-.02,1.36-.03,1.66,0,.9.06,1.65.53,2.24,1.39.59.87.89,1.93.89,3.19,0,.79-.13,1.51-.39,2.15-.26.64-.62,1.11-1.08,1.42-.09.06-.14.14-.14.23,0,.08.03.18.07.29.04.12.11.31.19.58.21.65.42,1.29.63,1.94.24.75.49,1.5.73,2.24.25.76.48,1.29.67,1.59.2.3.43.46.69.47.11,0,.21,0,.3-.03.06-.02.11-.03.16-.03.08,0,.13.1.13.28,0,.23-.2.49-.59.78-.4.29-.75.42-1.05.4-.48-.03-.93-.46-1.33-1.3-.41-.84-.93-2.41-1.58-4.73-.25-.91-.46-1.49-.63-1.74-.17-.25-.44-.39-.81-.42-.15-.01-.29-.02-.44-.03-.11.02-.21.05-.32.07-.07.06-.11.25-.11.57v2.43h0ZM140.49,241.28v4.16c0,.51.04.84.12.98.08.14.26.22.56.25.84.06,1.37.07,1.57.03.2-.04.39-.19.57-.45.35-.51.52-1.23.52-2.16,0-1.21-.23-2.22-.7-3.05-.47-.82-1.06-1.26-1.78-1.31-.32-.02-.54.07-.67.29-.12.22-.18.63-.18,1.24h0Z"/>
  <path class="st1" d="M150.57,252.15c0,1.5.11,2.35.32,2.54.12.11.35.17.69.17,1.59.04,2.73-.75,3.39-2.34.22-.49.36-.73.41-.73.09,0,.14.17.14.49,0,1.02-.2,1.93-.59,2.73-.35.7-.82,1.05-1.42,1.04-.12,0-.35-.03-.68-.07-.09-.01-.37-.04-.85-.1-.26-.03-.52-.05-.78-.08-.26-.03-.56-.05-.89-.06-.55-.02-1.14.02-1.78.12-.19.03-.33.04-.39.04-.14,0-.21-.12-.21-.33,0-.15.06-.25.18-.3.3-.13.51-.4.62-.81.12-.41.17-1.08.17-2.02v-10.06c0-1.28-.32-2.02-.95-2.22-.14-.05-.29-.09-.43-.14-.18-.06-.27-.19-.27-.4,0-.26.07-.38.21-.38.05,0,.12.02.21.05.07.01.16.04.28.07.1.02.21.04.31.06.29.07.51.11.65.12.23,0,.59-.03,1.09-.11.37-.05.75-.07,1.14-.06.29,0,.43.13.43.36,0,.2-.1.31-.31.32-.48.04-.72.59-.72,1.65v10.44h0Z"/>
  <path class="st1" d="M160.93,240.78c1.08,4.16,2.17,8.32,3.25,12.47.16.63.35,1.09.57,1.4.21.3.5.5.84.59.08.02.13.14.13.34,0,.22-.05.33-.16.33-.06,0-.15-.02-.27-.05-.37-.1-.95-.14-1.76-.12-.81.02-1.37.1-1.66.24-.07.03-.13.05-.18.05-.13,0-.2-.12-.2-.35,0-.12.05-.21.16-.27.23-.12.41-.32.56-.61.15-.29.22-.6.22-.92,0-.45-.21-1.42-.62-2.93-.13-.46-.27-.72-.42-.79-.15-.06-.7-.09-1.63-.07-.32,0-.64,0-.96.01-.21.07-.42.13-.64.2-.18.14-.37.67-.6,1.6-.07.31-.15.62-.22.93-.07.27-.1.54-.1.81,0,1.02.42,1.61,1.27,1.76.18.04.27.16.27.35,0,.21-.1.32-.26.32-.09,0-.21-.02-.37-.07-.32-.11-.61-.16-.86-.16-.23,0-.59.04-1.1.11-.38.06-.61.08-.7.08-.14,0-.2-.1-.2-.3,0-.17.07-.29.2-.37.26-.13.47-.38.62-.75.16-.36.39-1.13.69-2.3.65-2.52,1.3-5.05,1.94-7.57.16-.6.27-1.01.33-1.24.22-.77.44-1.53.66-2.3.11-.38.23-.76.34-1.13v.04c.15-.64.26-.96.31-.96.08,0,.21.33.4,1.01.06.21.11.42.17.63h0ZM161.2,248.33c-.31-1.22-.62-2.43-.94-3.65-.22-.88-.38-1.31-.47-1.31-.06,0-.16.29-.31.85-.04.17-.09.34-.13.51-.27,1.07-.55,2.14-.82,3.21-.03.1-.05.2-.08.3-.03.12-.05.23-.05.31,0,.27.17.41.51.4.7,0,1.4-.02,2.1-.03.18,0,.27-.09.27-.26,0-.04-.01-.11-.04-.2-.01-.04-.02-.09-.04-.13h0Z"/>
  <path class="st1" d="M169.76,241.89c1.25,2.3,2.51,4.58,3.76,6.86.08.15.16.29.24.44.32.58.54.87.64.86.1,0,.15-.26.16-.75.04-1.78.06-3.47.06-5.08,0-1.89-.11-3.16-.34-3.81-.23-.65-.68-.99-1.34-1.02-.16,0-.24-.1-.24-.28,0-.22.07-.34.21-.35.17-.01.45.02.84.09.25.04.46.05.62.04.33-.03.86-.16,1.58-.4.1-.03.17-.04.21-.05.15-.01.23.1.23.33,0,.21-.08.34-.23.39-.61.25-.91,1.2-.91,2.85v.59c-.04,2.52-.07,5.04-.11,7.56,0,.35-.02.69-.03,1.04,0,.45,0,.89,0,1.34,0,.31,0,.61,0,.92,0,.5.02,1.01.03,1.51,0,.23-.05.34-.15.34-.09,0-.17-.08-.26-.24-2.16-3.89-4.32-7.81-6.48-11.77-.11-.2-.19-.3-.23-.3-.11,0-.17.19-.17.55,0,.12,0,.23,0,.35v4.68c0,2.5.07,4.17.22,5,.16.89.63,1.38,1.41,1.45.14.02.22.11.22.29,0,.25-.07.37-.22.38-.06,0-.15,0-.28-.03-.4-.1-.85-.14-1.34-.12-.48.02-.91.1-1.29.23-.17.05-.29.08-.37.09-.13,0-.19-.1-.19-.3,0-.17.07-.3.21-.37.35-.18.6-.54.76-1.07.16-.53.24-1.28.24-2.26.02-.95.03-1.9.05-2.84v-5.18c0-2.45-.54-3.71-1.62-3.8-.15,0-.22-.11-.22-.31,0-.24.08-.36.24-.37.16.01.33.03.49.04.1,0,.2-.02.3-.03.37-.02.77-.07,1.2-.17.16-.03.29-.05.39-.06.15,0,.26.04.35.14.09.1.26.42.54.96.16.31.33.63.49.94.19.37.31.6.35.68h0Z"/>
  <path class="st1" d="M178.37,241.6c0-.77-.13-1.35-.38-1.75-.26-.39-.61-.57-1.08-.52-.15.01-.22-.08-.22-.3,0-.15.03-.24.09-.3.06-.05.2-.09.41-.11.36-.03.72-.05,1.09-.08.25-.03.47-.06.66-.09.3-.06.71-.16,1.23-.3.7-.19,1.26-.31,1.67-.36,1.61-.19,2.9.34,3.87,1.6.97,1.26,1.45,3.04,1.45,5.36,0,2.98-.65,5.45-1.95,7.4-.96,1.42-2.03,2.21-3.23,2.35-.2.02-.6.04-1.2.04-.34,0-.69.03-1.05.07-.84.09-1.41.19-1.69.31-.22.09-.37.14-.44.15-.11.01-.16-.11-.16-.35,0-.17.06-.28.18-.33.29-.12.49-.35.6-.67.11-.32.16-.87.16-1.63v-10.49h0ZM180.01,240.79v10.54c.03.36.06.72.08,1.08.16.91.74,1.31,1.75,1.19,1.09-.13,1.96-.88,2.6-2.25.64-1.37.96-3.15.96-5.33s-.38-4.1-1.15-5.44c-.77-1.34-1.76-1.94-2.99-1.79-.5.06-.84.21-1.03.45-.15.19-.23.71-.23,1.55h0Z"/>
  <path class="st1" d="M196.68,237.05c1.07,3.98,2.13,7.95,3.2,11.91.16.6.34,1.03.56,1.3.21.27.49.42.83.45.08,0,.12.12.12.32,0,.22-.05.34-.16.36-.06,0-.15,0-.27,0-.36-.04-.94.02-1.73.18-.8.16-1.35.33-1.64.52-.07.05-.13.08-.18.09-.13.03-.2-.08-.2-.32,0-.12.05-.22.15-.3.22-.15.41-.39.56-.71.15-.32.22-.63.22-.95,0-.45-.2-1.39-.61-2.82-.13-.44-.26-.68-.41-.71-.15-.04-.69.03-1.61.2-.32.06-.63.12-.95.17-.21.1-.42.2-.63.31-.17.17-.37.74-.59,1.7-.07.32-.14.65-.22.97-.06.28-.1.55-.1.83,0,1.02.42,1.53,1.25,1.55.18,0,.27.11.26.31,0,.21-.1.34-.26.37-.09.02-.21.01-.37-.01-.32-.05-.6-.06-.85-.02-.22.04-.59.14-1.09.29-.37.12-.61.19-.7.2-.13.02-.2-.07-.2-.27,0-.17.07-.3.2-.41.26-.18.46-.46.62-.85.15-.39.38-1.2.68-2.42.64-2.63,1.28-5.27,1.92-7.9.16-.63.26-1.06.32-1.29.22-.8.44-1.61.65-2.41.11-.4.22-.79.34-1.19v.04c.15-.66.25-1,.31-1.01.08-.01.21.3.39.94.06.2.11.4.17.6h0ZM196.95,244.55c-.31-1.16-.62-2.33-.92-3.49-.22-.84-.37-1.25-.47-1.23-.06.01-.16.31-.31.91-.04.18-.09.35-.13.53-.27,1.12-.54,2.23-.81,3.35-.03.11-.05.21-.08.31-.03.13-.05.23-.05.32,0,.27.17.38.5.32.69-.13,1.38-.25,2.07-.39.18-.03.27-.13.27-.3,0-.04-.01-.11-.04-.2-.01-.04-.02-.08-.04-.12h0Z"/>
  <path class="st1" d="M203.32,246.94c.12-.03.28.11.47.42.14.22.27.44.41.67.09.14.18.29.27.43.04.09.06.21.06.33,0,.19-.1.46-.31.83-.11.18-.24.43-.4.77-.22.47-.39.72-.51.74-.09.02-.22-.1-.38-.35-.21-.35-.38-.61-.5-.76-.23-.3-.34-.55-.34-.74s.1-.45.3-.8c.1-.18.25-.47.45-.88.2-.41.36-.63.47-.66h0Z"/>
  <path class="st1" d="M208.57,239.14c0,.45.03.74.1.88.07.14.2.18.4.13.09-.03.18-.05.27-.08.26-.07.51-.14.76-.21.34-.09.61-.29.78-.59.18-.3.35-.85.53-1.65.04-.19.09-.3.15-.32.13-.04.2.05.2.26,0,.06,0,.16-.01.32,0,.11,0,.23,0,.37,0,.46.01,1.01.04,1.62.03.75.06,1.49.1,2.24,0,.24.01.41.01.51,0,.17-.06.28-.19.33-.09.03-.14-.06-.17-.28-.09-.82-.25-1.34-.46-1.57-.22-.23-.59-.28-1.14-.14-.69.18-1.09.36-1.2.54-.11.18-.16.77-.16,1.77,0,.32,0,.64,0,.96v1.42c0,1.2.12,2.04.36,2.53.18.36.53.5,1.06.44.15-.01.22.08.22.28,0,.23-.05.35-.15.38-.09.02-.23.04-.41.05-.17.01-.51.09-1.02.22-.26.07-.52.13-.78.2-.35.09-.65.19-.91.32-.34.18-.57.28-.69.31-.15.04-.23-.05-.23-.27,0-.16.07-.29.2-.4.28-.23.48-.55.57-.97.1-.42.15-1.11.15-2.07v-9.9c0-1.01-.1-1.64-.31-1.9-.24-.29-.59-.41-1.04-.34-.12.01-.19-.07-.19-.26,0-.24.08-.39.24-.43.05-.01.17-.03.37-.05.28-.03.58-.08.89-.16.4-.11.81-.22,1.21-.34.62-.16,1.23-.32,1.85-.48.63-.16,1.27-.38,1.93-.65.24-.1.42-.16.54-.2.11-.03.17.16.19.59.02.51.03.8.04.88.02.3.04.61.06.91.01.18.02.34.02.47,0,.67-.09,1.03-.27,1.08-.1.03-.15-.07-.15-.3v-.41c0-.16-.01-.3-.04-.42-.19-1.02-.8-1.39-1.83-1.12-.3.07-.6.15-.9.22-.09.03-.19.06-.28.08-.26.07-.45.2-.55.4-.1.2-.16.51-.16.95v3.85h0Z"/>
  <path class="st1" d="M214.23,244.18c.12-.03.27.1.46.4.14.21.27.43.41.64.09.14.18.28.27.42.04.09.06.2.06.33,0,.19-.1.47-.3.85-.11.18-.24.45-.39.79-.22.48-.39.74-.5.77-.09.03-.22-.08-.37-.33-.21-.34-.38-.59-.49-.73-.23-.29-.34-.53-.34-.73,0-.18.1-.46.3-.82.1-.18.25-.48.44-.91.2-.42.35-.65.46-.68h0Z"/>
  <path class="st1" d="M221.39,229.11c.86-.27,1.6-.2,2.24.24.15.1.3.21.45.31.09.07.17.09.25.06.09-.03.16-.12.21-.26.05-.14.1-.28.14-.42.02-.07.06-.12.12-.14.14-.05.21.19.21.71,0,.29,0,.59,0,.88v1.1c.02.3.03.6.05.9.02.18.04.35.06.52.03.26.04.49.04.7,0,.3-.06.48-.19.52-.07.03-.12-.05-.15-.24-.04-.29-.16-.72-.38-1.27-.22-.56-.42-.98-.62-1.29-.8-1.24-1.68-1.7-2.66-1.39-.87.28-1.57,1.12-2.11,2.53-.54,1.41-.81,3.11-.81,5.09,0,2.59.45,4.53,1.34,5.8.67.95,1.4,1.29,2.18,1.04.46-.15.96-.5,1.47-1.06.52-.56.93-1.18,1.22-1.86.15-.33.3-.67.45-1,.06-.15.12-.24.18-.26.08-.03.12.04.12.23,0,.33-.18.92-.54,1.76-.95,2.2-2.11,3.53-3.51,3.98-1.35.43-2.44,0-3.29-1.25-.84-1.26-1.27-3.1-1.27-5.52,0-1.33.16-2.67.48-4.03.32-1.36.74-2.52,1.27-3.48.87-1.57,1.88-2.53,3.04-2.9h0Z"/>
  <path class="st5" d="M101.02,94.11c-.08-1.58,1.6-3.02,4.07-4,4.79-1.9,11.69-3.54,17.14-4.16v8.94s-3.9-1.44-8.24-.47c-2.89.65-12.82,2.53-12.96-.3h0Z"/>
  <path class="st4" d="M100.09,87.8s.05,4.74.05,6.01,1.47,2.57,4,2.66c1.56.06,6.43-.47,9.04-1.11,3.02-.74,8.56-.79,8.56,1.42,0,2.77-5.15,4.77-10.23,4.77s-8.8-2.24-10.7-2.87c-1.9-.63-8.4-2.05-9.51.95v-10.59s1.63-1.65,4.72-1.6c1.9.03,4.07.36,4.07.36h0Z"/>
  <path class="st4" d="M94.95,103.27s2.22,1.74,4.12,3.16c-2.54,1.11-4.12,1.42-4.12,1.42v-4.58h0Z"/>
  <path class="st5" d="M91.75,100.73c-1.33-.69,2.44-2.89,4.74-2.21,2.06.62,4.69,3.17,4.38,5.7-.32,2.53-1.18,1.8-1.18,1.8,0,0-3.33-2.92-7.93-5.29h0Z"/>
  <path class="st5" d="M213.73,94.11c.08-1.58-1.6-3.02-4.07-4-4.79-1.9-11.69-3.54-17.14-4.16v8.94s3.9-1.44,8.24-.47c2.89.65,12.82,2.53,12.96-.3h0Z"/>
  <path class="st4" d="M214.66,87.8s-.05,4.74-.05,6.01-1.47,2.57-4.01,2.66c-1.56.06-6.43-.47-9.04-1.11-3.02-.74-8.56-.79-8.56,1.42,0,2.77,5.15,4.77,10.23,4.77s8.8-2.24,10.7-2.87c1.9-.63,8.4-2.05,9.51.95v-10.59s-1.63-1.65-4.72-1.6c-1.9.03-4.07.36-4.07.36h0Z"/>
  <path class="st4" d="M219.8,103.27s-2.22,1.74-4.12,3.16c2.54,1.11,4.12,1.42,4.12,1.42v-4.58h0Z"/>
  <path class="st5" d="M223,100.73c1.33-.69-2.44-2.89-4.74-2.21-2.06.62-4.69,3.17-4.38,5.7.32,2.53,1.18,1.8,1.18,1.8,0,0,3.33-2.92,7.93-5.29h0Z"/>
  <path class="st4" d="M157.21,82.4c36.78,0,52.71,5.7,56.56,9.17v-9.01s.05-2.75-9.52-4.76c-8.43-1.77-26.91-4.73-47.05-4.73h.33c-20.14,0-38.62,2.96-47.05,4.73-9.56,2.01-9.52,4.76-9.52,4.76v9.01c3.85-3.46,19.78-9.17,56.56-9.17h-.33Z"/>
  <path class="st1" d="M107.32,79.64c.43-.09.81-.04,1.14.15.08.05.15.09.23.14.05.03.09.04.13.03.05,0,.08-.04.1-.1.02-.06.05-.11.07-.17.01-.03.03-.05.06-.05.07-.01.1.08.1.29,0,.12,0,.23,0,.35v.44c0,.12.02.24.03.36.01.07.02.14.03.21.01.1.02.2.02.28,0,.12-.03.19-.09.2-.04,0-.06-.03-.07-.1-.02-.12-.08-.29-.19-.52-.11-.23-.22-.41-.32-.53-.41-.52-.86-.72-1.35-.62-.44.09-.8.42-1.07.98-.27.56-.41,1.23-.41,2.03,0,1.04.22,1.82.67,2.34.34.39.71.54,1.1.46.24-.05.48-.18.75-.39.26-.21.47-.44.62-.7.08-.13.15-.26.23-.39.03-.06.07-.09.1-.1.04-.01.07.02.07.09,0,.13-.09.36-.28.69-.48.85-1.08,1.34-1.78,1.49-.68.14-1.24-.04-1.66-.55-.43-.51-.64-1.25-.64-2.21,0-.53.08-1.07.24-1.61.16-.54.37-1,.64-1.38.44-.62.95-.99,1.54-1.11h0Z"/>
  <path class="st1" d="M112.29,78.64c.73-.14,1.31.05,1.76.55.45.5.67,1.23.67,2.17,0,1.03-.23,1.94-.69,2.74-.45.78-1.07,1.24-1.86,1.39-.75.14-1.36-.04-1.81-.56-.45-.52-.68-1.29-.68-2.3,0-.44.06-.88.17-1.34.11-.45.27-.85.46-1.18.23-.39.51-.71.86-.97.35-.26.72-.43,1.11-.5h0ZM112.04,79.05c-.47.09-.83.4-1.1.93-.26.53-.39,1.22-.39,2.08,0,1.01.16,1.79.49,2.36.33.57.76.8,1.29.7.48-.09.86-.42,1.14-1,.29-.57.43-1.3.43-2.17,0-.5-.07-.98-.2-1.44-.13-.46-.31-.8-.53-1.05-.32-.36-.7-.5-1.14-.41h0Z"/>
  <path class="st1" d="M117.05,79c.61.85,1.23,1.7,1.84,2.55.04.05.08.11.12.16.16.22.26.32.32.31.05,0,.08-.11.08-.31.02-.71.03-1.39.03-2.03,0-.75-.06-1.25-.17-1.5-.11-.25-.33-.36-.65-.34-.08,0-.12-.03-.12-.09,0-.08.03-.13.1-.14.08-.01.22-.02.41-.01.12,0,.22,0,.3-.02.16-.03.42-.1.77-.22.05-.01.08-.02.1-.03.07-.01.11.03.11.12,0,.08-.04.14-.11.16-.3.12-.46.52-.46,1.17,0,.08,0,.16,0,.24-.02,1.01-.03,2.01-.05,3.02,0,.14,0,.28-.01.42,0,.18,0,.36,0,.53,0,.12,0,.24,0,.37,0,.2,0,.4.01.6,0,.09-.02.14-.07.14-.04,0-.08-.03-.13-.09-1.06-1.46-2.12-2.9-3.17-4.35-.06-.07-.09-.11-.11-.11-.06,0-.08.09-.08.23,0,.05,0,.09,0,.14v1.86c0,1,.04,1.66.11,1.98.08.35.31.51.69.49.07,0,.11.03.11.1,0,.1-.04.15-.11.16-.03,0-.07,0-.14,0-.2-.01-.42,0-.66.04-.24.04-.45.1-.63.18-.08.03-.14.05-.18.06-.06.01-.1-.02-.1-.1,0-.07.03-.12.1-.16.17-.1.29-.26.37-.48.08-.22.12-.53.12-.92,0-.38.02-.76.02-1.14,0-.69,0-1.38,0-2.08,0-.98-.26-1.45-.79-1.41-.07,0-.11-.03-.11-.1,0-.09.04-.14.12-.16.08,0,.16-.02.24-.03.05-.01.1-.02.15-.03.18-.03.38-.08.59-.15.08-.02.14-.04.19-.05.07-.01.13,0,.17.04.04.04.13.15.26.35.08.12.16.23.24.35.09.14.15.22.17.25h0Z"/>
  <path class="st1" d="M122.01,77.01c.22-.03.44,0,.65.08.08.03.16.07.24.1.11.04.18.06.22.05.03,0,.07-.02.1-.05.04-.04.09-.07.13-.11.02-.01.04-.02.06-.03.05,0,.07.04.07.15,0,.13,0,.26,0,.39,0,.06,0,.12,0,.17.01.15.03.31.04.46.01.14.02.29.03.43,0,.04,0,.07,0,.1,0,.14-.03.21-.09.22-.04,0-.07-.05-.09-.17-.07-.44-.24-.8-.51-1.08-.27-.29-.56-.41-.87-.36-.21.03-.39.16-.55.37-.16.22-.24.46-.24.72,0,.25.07.45.21.61.09.1.37.25.83.44.55.23.92.48,1.1.76.21.33.32.75.32,1.25,0,.56-.15,1.06-.44,1.52-.29.46-.64.71-1.03.77-.16.02-.42-.01-.77-.11-.16-.05-.28-.08-.36-.09-.11-.01-.17-.03-.19-.06-.02-.02-.03-.1-.04-.24-.01-.15-.05-.36-.1-.64-.09-.42-.13-.7-.13-.82,0-.15.04-.24.11-.25.03,0,.06.03.07.1.12.54.31.97.6,1.3.28.33.58.48.88.43.24-.04.45-.19.63-.47.19-.27.28-.57.28-.89,0-.25-.05-.46-.15-.6-.1-.15-.26-.28-.5-.39-.18-.08-.36-.17-.53-.25-.5-.23-.84-.47-1.02-.72-.18-.25-.27-.6-.27-1.06,0-.53.13-.99.38-1.39.25-.39.56-.62.94-.68h0Z"/>
  <path class="st1" d="M125.6,77.74v1.04c0,.3.02.48.05.56.03.08.11.11.23.09.04,0,.07-.01.11-.02.05,0,.1-.02.16-.03.1-.01.2-.03.3-.04.23-.03.41-.23.54-.59.03-.08.05-.16.08-.25.02-.06.05-.09.1-.1.05,0,.07.03.08.12,0,.03,0,.1,0,.21,0,.08,0,.16,0,.21,0,.1,0,.34.03.72.01.25.02.46.02.64,0,.08,0,.16,0,.25,0,.04,0,.08-.01.09,0,.02-.03.03-.05.04-.06.01-.09-.04-.1-.17-.03-.27-.1-.47-.21-.59-.06-.07-.14-.11-.22-.12-.09-.01-.25,0-.5.03-.08,0-.16.02-.24.03-.11.01-.19.05-.23.1-.04.05-.07.15-.08.29-.01.16-.02.42-.02.76v.43c0,.45.03.77.08.97.04.14.09.23.14.27.05.04.14.06.25.04.95-.12,1.57-.6,1.86-1.43.02-.04.03-.06.04-.07.02,0,.05,0,.07.02.02.03.03.06.03.1,0,.32-.06.63-.19.94-.1.26-.23.46-.39.59-.15.13-.36.21-.61.24-.15.02-.32.03-.5.03-.14,0-.27,0-.41,0-.15,0-.35.02-.61.05-.17.02-.43.07-.78.15-.1.02-.16.04-.21.04-.06,0-.09-.02-.09-.09,0-.06.02-.1.08-.14.13-.09.22-.17.27-.26.05-.08.09-.23.11-.43.03-.17.04-.41.04-.7v-3.8c0-.36-.04-.59-.13-.71-.08-.12-.26-.18-.53-.2-.06,0-.09-.05-.09-.13,0-.08.04-.12.12-.13.02,0,.05,0,.11,0,.04,0,.1,0,.17-.02.12-.01.24-.02.35-.03.44-.05.89-.11,1.33-.16.77-.1,1.24-.17,1.42-.22.02,0,.04,0,.05-.01.07,0,.1.04.1.15,0,.07,0,.2.02.39.02.28.03.48.03.6,0,.24-.05.37-.14.39-.04,0-.07-.06-.07-.21,0-.32-.09-.54-.26-.66-.17-.12-.45-.16-.83-.11-.14.02-.29.04-.43.06-.08.02-.16.05-.24.07-.12.07-.18.24-.18.51,0,.07,0,.13,0,.2h0Z"/>
  <path class="st1" d="M130.87,75.87c.44-.05.82.04,1.15.26.08.05.16.11.23.16.05.03.09.05.13.04.05,0,.08-.03.11-.09.02-.05.05-.11.07-.16.01-.03.03-.04.06-.05.07,0,.11.09.11.3,0,.12,0,.23,0,.35v.44c0,.12.02.24.03.36,0,.07.02.14.03.21.01.1.02.2.02.28,0,.12-.03.19-.1.19-.04,0-.06-.03-.07-.11-.02-.12-.08-.3-.2-.54-.11-.24-.22-.43-.32-.56-.41-.56-.86-.81-1.36-.75-.44.05-.8.34-1.08.87-.28.53-.42,1.19-.42,1.99,0,1.04.23,1.84.68,2.41.34.42.71.61,1.11.57.24-.03.49-.13.75-.31.27-.18.47-.4.63-.64.08-.12.15-.24.23-.36.03-.05.07-.08.1-.09.05,0,.07.03.07.1,0,.13-.09.35-.28.66-.49.8-1.08,1.24-1.8,1.31-.69.08-1.25-.16-1.68-.71-.43-.55-.65-1.31-.65-2.28,0-.53.08-1.06.24-1.58.16-.53.38-.96.65-1.31.44-.57.96-.89,1.55-.95h0Z"/>
  <path class="st1" d="M135.74,76.68v3.62c0,.54.06.92.17,1.14.11.22.32.32.61.32.08,0,.13.06.13.16,0,.08-.04.12-.11.12-.02,0-.05,0-.09,0-.09,0-.18,0-.26,0-.15,0-.29,0-.44,0-.03,0-.08,0-.14,0-.14.01-.26.03-.36.05-.26.05-.52.09-.78.14-.08.02-.14.03-.17.04-.07,0-.11-.03-.11-.12,0-.07.01-.12.03-.14.02-.02.07-.04.14-.05.18-.03.32-.14.42-.31.1-.17.15-.41.15-.69,0-.08,0-.15,0-.23v-4.28c0-.25-.1-.37-.3-.35-.47.04-.79.12-.96.23-.12.08-.21.17-.25.26-.04.09-.1.32-.17.68,0,.05-.02.09-.03.14-.03.13-.06.2-.12.21-.08,0-.11-.04-.11-.14,0-.09.01-.22.04-.38.01-.14.02-.28.04-.42l.04-.43c0-.1.02-.2.03-.3,0-.13.06-.19.15-.2.02,0,.06,0,.12,0,.09,0,.22,0,.39-.02.24-.02.48-.04.71-.06.28-.02.57-.04.85-.06.55-.05,1.13-.12,1.74-.21.12-.02.2-.03.24-.03.13-.01.2.06.2.2,0,.11.01.23.02.34,0,.05.02.18.04.38.02.17.03.3.03.4s-.03.16-.09.17c-.05,0-.09-.05-.11-.17-.05-.29-.14-.5-.28-.62-.14-.12-.34-.17-.61-.14-.36.03-.58.09-.67.17-.09.08-.13.27-.13.57h0Z"/>
  <path class="st1" d="M140.13,75.7c.54,1.63,1.07,3.27,1.61,4.91.08.25.17.43.28.55.11.12.25.19.42.22.04,0,.06.05.06.14,0,.09-.03.14-.08.14-.03,0-.08,0-.13-.02-.18-.04-.47-.05-.88-.02-.41.03-.68.07-.83.13-.04.02-.07.03-.09.03-.07,0-.1-.04-.1-.13,0-.05.03-.08.08-.11.11-.05.2-.14.28-.26.07-.12.11-.25.11-.37,0-.18-.1-.57-.3-1.17-.06-.18-.13-.28-.21-.31-.08-.02-.34-.02-.81.02-.16.01-.32.02-.48.04-.1.03-.21.07-.31.1-.09.06-.18.28-.29.66-.04.13-.07.25-.11.38-.03.11-.05.22-.05.33,0,.4.21.62.62.66.09,0,.13.05.13.13,0,.09-.05.13-.13.14-.04,0-.1,0-.18-.02-.16-.03-.29-.04-.42-.03-.11,0-.29.04-.54.09-.18.04-.3.06-.34.06-.07,0-.1-.03-.1-.11,0-.07.03-.12.1-.16.13-.06.23-.17.3-.32.08-.15.19-.47.34-.94.32-1.03.64-2.06.96-3.09.08-.25.13-.41.16-.51.11-.31.22-.63.33-.94.06-.15.11-.31.17-.46,0,0,0,0,0,.01.07-.25.13-.38.15-.38.04,0,.1.13.19.39.03.08.06.17.08.25h0ZM140.26,78.69c-.15-.48-.31-.95-.46-1.43-.11-.34-.19-.51-.23-.51-.03,0-.08.12-.15.35-.02.07-.04.14-.07.21-.14.44-.27.87-.41,1.31-.01.04-.03.08-.04.12-.02.05-.03.09-.03.13,0,.11.08.16.25.14.35-.03.69-.05,1.04-.07.09,0,.13-.04.13-.11,0-.02,0-.04-.02-.08,0-.02-.01-.03-.02-.05h0Z"/>
  <path class="st1" d="M144.85,76.04v3.62c0,.54.06.92.17,1.14.11.22.32.34.61.35.08,0,.13.06.13.16,0,.08-.04.11-.11.12-.02,0-.05,0-.09,0-.09,0-.18,0-.26,0-.15,0-.29-.01-.44-.02-.04,0-.08,0-.14,0-.14,0-.26.02-.37.03-.26.03-.52.07-.78.11-.08.02-.14.03-.17.03-.07,0-.11-.04-.11-.12,0-.07.01-.12.04-.14.02-.02.07-.04.14-.05.18-.03.32-.13.42-.3.1-.17.15-.4.15-.69,0-.08,0-.15,0-.23v-4.28c0-.25-.1-.37-.3-.36-.47.03-.79.09-.96.19-.12.08-.21.16-.25.25-.04.09-.1.31-.17.67,0,.05-.02.09-.03.14-.03.13-.07.2-.12.21-.08,0-.11-.04-.11-.14,0-.09.01-.22.04-.38.01-.14.02-.28.04-.42.02-.14.03-.29.04-.43,0-.1.02-.2.03-.29,0-.13.06-.19.15-.2.02,0,.06,0,.12,0,.09,0,.22,0,.39,0,.24-.01.48-.02.72-.03.28-.01.57-.02.85-.03.55-.03,1.13-.08,1.75-.15.12-.01.2-.02.24-.02.13,0,.2.06.2.21,0,.11.01.23.02.34,0,.05.02.18.04.39.02.17.03.3.03.4,0,.1-.03.16-.09.16-.05,0-.09-.06-.11-.18-.05-.29-.14-.5-.28-.63-.14-.12-.34-.18-.61-.17-.36.02-.58.07-.67.15-.09.08-.13.27-.13.57h0Z"/>
  <path class="st1" d="M148.41,79.8c0,.16.02.32.03.48.03.25.1.43.21.56.11.13.25.19.43.18.12,0,.17.04.17.14s-.08.15-.23.15c-.07,0-.16,0-.28-.02-.31-.04-.55-.05-.74-.04-.23,0-.42.03-.56.07-.12.03-.2.05-.25.06-.05,0-.08-.03-.1-.1,0-.01,0-.03,0-.04.03-.04.07-.08.1-.12.17-.09.28-.2.34-.32.05-.12.08-.32.08-.6,0-.14,0-.28,0-.43v-3.83c0-.29-.04-.5-.11-.62-.08-.12-.21-.2-.41-.23-.12-.02-.2-.04-.23-.07-.03-.02-.05-.06-.05-.12,0-.09.03-.14.08-.14.04,0,.11.01.19.03.08.03.23.03.43.02.13,0,.29-.02.49-.05.09-.01.17-.02.26-.04.24-.03.43-.05.56-.06.08,0,.12.03.12.12,0,.06,0,.1-.02.12-.01.02-.04.04-.09.05-.17.04-.28.11-.32.2-.05.09-.07.27-.07.55v4.08h0Z"/>
  <path class="st1" d="M152.15,74.5c.73-.01,1.32.27,1.78.84.45.58.68,1.34.68,2.29,0,1.03-.23,1.9-.7,2.62-.45.7-1.08,1.06-1.87,1.08-.76.02-1.37-.27-1.83-.87-.46-.59-.68-1.4-.68-2.42,0-.44.06-.87.17-1.31.12-.43.27-.8.47-1.1.23-.35.52-.63.87-.83.35-.2.72-.31,1.12-.32h0ZM151.9,74.86c-.47,0-.84.26-1.11.74-.27.49-.4,1.15-.4,2.01,0,1.01.17,1.82.5,2.44.33.62.77.93,1.3.92.48-.01.87-.28,1.15-.8.29-.53.43-1.23.43-2.1,0-.5-.07-1-.2-1.47-.13-.48-.31-.86-.53-1.14-.32-.41-.71-.61-1.15-.61h0Z"/>
  <path class="st1" d="M158.33,75.68v1.04c0,.3.02.49.05.57.03.08.11.12.23.12.04,0,.07,0,.11,0,.05,0,.1,0,.16,0,.1,0,.2,0,.3,0,.23,0,.41-.17.54-.52.03-.08.05-.16.08-.24.02-.06.05-.09.1-.09.05,0,.08.04.08.13,0,.03,0,.1,0,.21,0,.08,0,.15,0,.21,0,.1,0,.34.03.72.01.25.02.46.02.65,0,.08,0,.16,0,.25,0,.05,0,.08-.01.09,0,.02-.03.03-.05.03-.06,0-.09-.06-.11-.18-.03-.27-.1-.48-.21-.62-.06-.08-.14-.13-.23-.15-.09-.02-.25-.04-.5-.04-.08,0-.16,0-.24,0-.11,0-.19.02-.23.07-.04.05-.07.14-.08.28-.02.16-.02.41-.02.76v.43c0,.45.03.78.08.98.04.14.09.24.14.29.05.05.14.08.25.08.95,0,1.58-.38,1.87-1.17.02-.04.03-.06.04-.06.03,0,.05,0,.07.03.02.03.03.06.03.1,0,.32-.06.62-.19.91-.1.25-.23.43-.39.53-.16.11-.36.16-.62.15-.15,0-.32-.02-.5-.04-.14-.02-.27-.04-.41-.06-.15-.02-.35-.03-.61-.03-.17,0-.43.01-.78.04-.1,0-.17.02-.21.01-.06,0-.09-.04-.09-.11,0-.06.02-.1.08-.13.13-.07.22-.14.27-.22.05-.08.09-.22.11-.42.03-.17.04-.4.04-.69v-3.8c0-.36-.04-.6-.13-.73-.09-.13-.26-.22-.53-.27-.06-.01-.1-.06-.1-.15,0-.08.04-.12.12-.11.02,0,.05,0,.11,0,.04,0,.1,0,.17,0,.12,0,.24.01.36.02.45,0,.89.01,1.34.02.77,0,1.24,0,1.42-.03.02,0,.04,0,.05,0,.07,0,.1.05.1.16,0,.07,0,.2.02.39.02.28.03.48.03.6,0,.24-.05.37-.14.37-.04,0-.07-.07-.07-.21,0-.32-.09-.55-.26-.7-.17-.15-.45-.22-.83-.23-.14,0-.29,0-.43,0-.08.01-.16.03-.24.04-.12.05-.18.21-.18.48,0,.07,0,.13,0,.2h0Z"/>
  <path class="st1" d="M164.24,74.66s.07,0,.13.01c.22.03.43.05.62.06.1,0,.21,0,.32,0,.14,0,.29-.02.43-.03.09,0,.16,0,.22,0,.07,0,.1.05.1.13s-.04.14-.12.15c-.21.04-.36.11-.47.22-.3.31-.64.77-1.01,1.38-.28.45-.43.69-.46.73-.11.15-.16.26-.16.31,0,.06.07.21.2.45.06.11.22.41.46.9.39.77.72,1.34.99,1.72.17.24.38.37.64.41.08.01.12.07.12.17,0,.09-.04.13-.13.13-.04,0-.09,0-.15-.02-.15-.02-.29-.04-.44-.07-.21-.03-.4-.05-.55-.05-.11,0-.21,0-.31,0-.13,0-.26.01-.39.02-.13,0-.23,0-.28,0-.08,0-.12-.04-.12-.12,0-.09.04-.14.13-.15.19-.01.29-.13.29-.35,0-.11-.06-.3-.18-.55-.12-.25-.33-.64-.63-1.18-.06-.11-.12-.21-.18-.32-.03-.06-.06-.09-.07-.09-.02,0-.05.03-.08.08-.06.09-.13.2-.22.34-.53.82-.8,1.35-.8,1.59,0,.26.18.42.55.46.08,0,.12.05.12.14,0,.08-.02.12-.07.12-.03,0-.07,0-.13-.02-.29-.04-.57-.07-.86-.08-.08,0-.19,0-.32,0-.1,0-.21,0-.31,0-.05,0-.11,0-.16,0-.03,0-.06-.02-.1-.03-.02-.01-.03-.04-.03-.08,0-.07.03-.11.09-.13.18-.05.36-.17.54-.38s.42-.55.73-1.06c.27-.44.46-.74.58-.9.17-.25.26-.41.26-.48s-.09-.26-.26-.58c-.11-.21-.25-.46-.4-.76-.44-.84-.72-1.36-.86-1.54-.14-.18-.31-.31-.53-.37-.09-.02-.13-.08-.13-.17,0-.1.04-.14.11-.14.04,0,.11,0,.2.02.38.05.67.07.85.07.18,0,.33,0,.46-.02.11-.01.22-.03.33-.04.1-.01.17-.01.22-.01.07,0,.11.05.11.13s-.04.14-.13.15c-.08.01-.15.05-.21.12-.06.07-.08.14-.08.22.01.19.1.45.26.8.08.15.16.31.25.46.09.17.17.34.26.51.07.15.13.22.17.22.02,0,.05-.03.09-.09.05-.08.11-.17.16-.25.12-.2.24-.39.37-.58.19-.3.31-.5.36-.6.05-.1.07-.21.07-.32,0-.21-.1-.34-.29-.38-.05-.01-.11-.03-.16-.04-.09-.02-.13-.07-.12-.16,0-.09.05-.13.12-.13h0Z"/>
  <path class="st1" d="M168.53,74.73c.44.02.82.17,1.15.44.08.06.16.13.23.19.05.04.09.06.13.06.05,0,.08-.02.11-.07.02-.05.05-.1.07-.15.01-.03.03-.04.06-.04.07,0,.11.11.11.32,0,.12,0,.23,0,.35v.44c0,.12.02.25.03.37.01.07.02.15.03.22.01.11.02.2.02.29,0,.12-.03.18-.1.18-.04,0-.06-.04-.07-.12-.02-.12-.08-.31-.2-.57-.11-.26-.22-.46-.32-.61-.41-.62-.87-.94-1.37-.97-.44-.02-.81.21-1.08.7-.28.49-.42,1.13-.42,1.92,0,1.04.23,1.87.68,2.51.34.48.71.72,1.12.74.24.01.49-.05.75-.19.27-.14.48-.32.63-.54.08-.11.15-.22.23-.33.03-.05.07-.07.1-.08.05,0,.07.04.07.11,0,.13-.09.34-.28.61-.49.72-1.09,1.06-1.8,1.03-.69-.03-1.25-.36-1.68-.98-.43-.62-.65-1.41-.65-2.38,0-.53.08-1.04.24-1.55.16-.5.38-.9.65-1.21.44-.5.96-.74,1.55-.71h0Z"/>
  <path class="st1" d="M172.34,76.18v1.04c0,.3.02.49.05.57.03.08.11.13.23.14.04,0,.07,0,.11,0,.05,0,.1,0,.16,0,.1,0,.2.01.3.02.23.02.41-.15.54-.49.03-.08.05-.15.08-.23.02-.06.06-.08.1-.08.05,0,.08.05.08.14,0,.03,0,.1,0,.21,0,.08,0,.15,0,.21,0,.1,0,.34.03.73.01.25.02.46.02.65,0,.08,0,.16,0,.25,0,.04,0,.08-.01.09,0,.02-.03.03-.05.03-.06,0-.09-.06-.11-.19-.03-.27-.1-.48-.21-.63-.06-.08-.14-.14-.23-.16-.09-.03-.25-.05-.5-.07-.08,0-.16-.01-.24-.02-.11,0-.19.01-.23.05-.04.04-.07.14-.08.28-.01.16-.02.41-.02.76v.43c0,.45.03.78.08.98.04.15.09.25.14.3.05.06.14.09.25.09.95.06,1.57-.29,1.87-1.06.02-.04.03-.06.04-.06.02,0,.05,0,.07.04.02.03.03.06.03.11,0,.32-.06.62-.19.9-.1.24-.23.41-.39.51-.16.1-.36.14-.62.12-.15-.01-.32-.04-.5-.07-.14-.03-.27-.05-.41-.08-.15-.03-.35-.05-.61-.07-.17-.01-.43-.01-.78,0-.1,0-.17,0-.21,0-.06,0-.09-.04-.09-.11,0-.06.02-.1.08-.13.13-.06.22-.13.27-.21.05-.08.09-.21.11-.41.03-.17.04-.4.04-.69v-3.8c0-.36-.04-.6-.13-.74-.09-.13-.26-.23-.53-.3-.06-.02-.09-.07-.09-.15,0-.08.04-.11.12-.11.02,0,.05,0,.11.02.04,0,.1,0,.17.01.12.01.24.03.35.04.45.03.89.07,1.34.1.77.05,1.24.07,1.42.06.02,0,.04,0,.05,0,.07,0,.1.06.1.17,0,.07,0,.21.02.4.02.28.03.48.03.6,0,.24-.05.37-.14.36-.04,0-.07-.07-.07-.22,0-.32-.09-.56-.26-.71-.17-.16-.45-.25-.83-.27-.14,0-.29-.02-.43-.03-.08,0-.16.02-.24.02-.12.04-.18.2-.18.47,0,.07,0,.13,0,.2h0Z"/>
  <path class="st1" d="M176.59,80.47c0,.6.05.94.16,1.02.06.05.17.08.34.09.79.07,1.36-.2,1.69-.81.1-.19.17-.28.2-.28.04,0,.06.07.06.2,0,.41-.1.76-.3,1.07-.17.27-.4.39-.7.36-.06,0-.17-.02-.33-.05-.04,0-.18-.03-.42-.07-.13-.02-.26-.04-.38-.06-.13-.02-.28-.04-.44-.05-.27-.02-.56-.02-.88,0-.1,0-.16,0-.19,0-.07,0-.1-.05-.1-.13,0-.06.03-.1.09-.11.15-.05.25-.15.31-.31.06-.16.09-.43.09-.8v-4.02c0-.51-.16-.82-.47-.91-.07-.02-.14-.04-.21-.06-.09-.03-.13-.08-.13-.16,0-.1.04-.15.11-.14.02,0,.06,0,.1.02.03,0,.08.02.14.03.05,0,.1.02.15.03.14.03.25.05.32.06.11,0,.29,0,.54-.01.18-.01.37,0,.56,0,.14.01.21.06.21.16,0,.08-.05.12-.15.12-.24,0-.36.22-.36.64v4.17h0Z"/>
  <path class="st1" d="M180.66,80.84c0,.6.05.94.16,1.02.06.05.17.08.34.1.79.08,1.36-.18,1.69-.78.11-.18.17-.28.2-.27.04,0,.07.07.07.21,0,.41-.1.76-.3,1.06-.17.26-.4.38-.7.35-.06,0-.17-.03-.33-.06-.04,0-.18-.03-.42-.08-.13-.02-.26-.04-.38-.06-.13-.02-.28-.04-.44-.06-.27-.03-.56-.03-.88-.01-.1,0-.16,0-.19,0-.07,0-.1-.05-.1-.14,0-.06.03-.1.09-.11.15-.04.25-.14.31-.3.06-.16.09-.43.09-.8v-4.02c0-.51-.16-.82-.47-.92-.07-.02-.14-.04-.21-.07-.09-.03-.13-.08-.13-.16,0-.1.04-.14.11-.14.02,0,.06.01.1.03.03,0,.08.02.14.03.05,0,.1.02.15.03.14.03.25.06.32.06.11.01.29,0,.54,0,.18,0,.37,0,.56.02.14.01.21.07.21.16,0,.08-.05.12-.15.12-.24,0-.36.21-.36.63v4.17h0Z"/>
  <path class="st1" d="M184.71,77.3v1.04c0,.3.02.49.05.57.03.08.11.13.23.15.04,0,.07,0,.11,0,.05,0,.1,0,.16.01.1.01.2.02.3.04.23.03.41-.13.54-.46.03-.08.05-.15.08-.23.02-.06.06-.08.1-.08.05,0,.08.05.08.14,0,.03,0,.1,0,.21,0,.08,0,.15,0,.21,0,.1,0,.34.03.73.01.25.02.47.02.65,0,.08,0,.16,0,.25,0,.05,0,.07,0,.09,0,.02-.03.03-.05.03-.06,0-.09-.07-.11-.19-.03-.28-.1-.49-.21-.64-.06-.08-.14-.14-.22-.18-.09-.03-.25-.06-.5-.09-.08,0-.16-.02-.24-.03-.11-.01-.19,0-.23.04-.04.04-.07.13-.08.27-.01.16-.02.41-.02.76v.43c0,.45.03.78.08.98.04.15.09.25.14.31.05.06.14.09.25.11.95.11,1.57-.21,1.86-.96.02-.04.03-.06.04-.06.02,0,.05,0,.07.04.02.03.03.07.03.11,0,.32-.06.61-.19.89-.1.24-.23.4-.39.49-.15.09-.36.12-.61.09-.15-.02-.32-.05-.5-.1-.14-.03-.27-.07-.41-.1-.15-.04-.35-.07-.61-.1-.17-.02-.43-.03-.78-.04-.1,0-.17,0-.21,0-.06,0-.09-.05-.09-.12,0-.06.02-.1.08-.12.13-.06.22-.12.27-.19.05-.07.08-.21.11-.41.03-.17.04-.39.04-.69,0-1.27,0-2.53,0-3.8,0-.36-.04-.61-.13-.74-.08-.14-.26-.25-.53-.33-.06-.02-.09-.07-.09-.16,0-.08.04-.11.12-.1.02,0,.05,0,.1.02.04,0,.1.02.17.02.12.02.24.04.36.06.44.06.89.11,1.33.17.77.09,1.24.14,1.42.13.02,0,.04,0,.05,0,.07,0,.1.07.1.17,0,.07,0,.21.02.4.02.28.03.48.03.6,0,.24-.05.36-.14.36-.04,0-.07-.08-.07-.22,0-.32-.08-.56-.26-.73-.17-.16-.45-.27-.83-.32-.14-.02-.29-.04-.43-.05-.08,0-.16,0-.24.01-.12.04-.18.19-.18.46,0,.07,0,.13,0,.2h0Z"/>
  <path class="st1" d="M189.36,77.88c.61,1.04,1.23,2.07,1.85,3.11.04.07.08.13.12.2.16.27.26.4.32.41.05,0,.07-.09.08-.28.02-.7.03-1.38.03-2.02,0-.75-.05-1.27-.17-1.55-.11-.28-.33-.46-.65-.54-.08-.02-.12-.06-.12-.13,0-.08.03-.12.1-.11.08.01.22.05.41.11.12.04.22.06.3.08.16.02.42.03.77.02.05,0,.08,0,.1,0,.08.01.11.06.11.15,0,.08-.04.12-.11.13-.3.03-.46.38-.46,1.03,0,.08,0,.16,0,.24-.02,1-.03,2-.05,3,0,.14,0,.27-.01.41,0,.18,0,.36,0,.53,0,.12,0,.24,0,.37,0,.2,0,.4.01.6,0,.09-.02.13-.07.12-.04,0-.08-.05-.13-.13-1.06-1.78-2.12-3.55-3.18-5.32-.06-.09-.1-.14-.12-.14-.06,0-.08.06-.08.21,0,.05,0,.09,0,.14,0,.62,0,1.24,0,1.86,0,1,.04,1.67.11,2.01.08.37.31.6.69.7.07.02.11.06.11.14,0,.1-.04.14-.11.13-.03,0-.07-.02-.14-.04-.2-.07-.42-.13-.66-.16-.24-.03-.45-.04-.64-.02-.08,0-.14,0-.18,0-.06,0-.1-.05-.1-.13,0-.07.03-.11.1-.13.17-.04.3-.17.37-.37.08-.2.12-.49.12-.89,0-.38.02-.76.02-1.14v-2.08c0-.98-.26-1.54-.79-1.65-.07-.02-.11-.06-.11-.14,0-.09.04-.13.12-.12.08.02.16.03.24.05.05,0,.1,0,.15.01.18.02.38.04.59.03.08,0,.14,0,.2.01.07,0,.13.04.17.09.04.05.13.19.26.43.08.14.16.28.24.42.1.17.15.27.17.3h0Z"/>
  <path class="st1" d="M195.46,78.87v3.62c0,.54.06.93.17,1.18.11.25.32.4.6.48.08.02.13.09.13.19,0,.08-.04.11-.11.09-.02,0-.05,0-.09-.02-.09-.02-.17-.04-.26-.06-.15-.04-.29-.07-.44-.11-.04,0-.08-.02-.14-.03-.13-.02-.26-.04-.36-.04-.26-.02-.51-.04-.77-.06-.08,0-.14,0-.17,0-.07-.01-.11-.06-.1-.14,0-.07.01-.12.03-.13.02-.02.07-.03.14-.02.18.01.32-.06.42-.21.1-.15.15-.37.15-.65,0-.08,0-.15,0-.23v-4.28c0-.25-.1-.4-.3-.43-.47-.07-.79-.08-.96,0-.12.05-.21.12-.25.2-.04.08-.1.29-.17.64,0,.04-.02.09-.03.13-.03.13-.06.19-.12.18-.08-.01-.11-.07-.11-.17,0-.09.01-.21.04-.37.01-.14.02-.27.04-.41.01-.14.03-.28.04-.42,0-.1.02-.19.03-.29,0-.12.06-.18.15-.16.02,0,.06.01.12.03.09.02.22.05.39.07.24.04.47.08.71.12.28.05.57.1.85.15.55.09,1.12.16,1.74.23.12.01.2.02.23.03.13.02.19.11.2.25,0,.12.01.23.02.35,0,.05.01.19.04.39.02.17.03.31.03.41,0,.11-.03.15-.09.14-.05,0-.09-.08-.11-.2-.05-.3-.14-.53-.28-.69-.14-.15-.34-.25-.6-.3-.36-.06-.58-.06-.66,0-.09.06-.13.24-.13.54h0Z"/>
  <path class="st1" d="M199,83.38c0,.16.02.32.03.48.03.25.1.45.2.6.11.15.25.24.42.27.11.02.17.08.17.18,0,.1-.08.13-.23.1-.07-.01-.16-.04-.28-.08-.3-.1-.55-.17-.74-.2-.23-.04-.42-.06-.55-.05-.12,0-.2.01-.25,0-.05,0-.08-.05-.1-.12,0-.01,0-.03,0-.04.03-.03.07-.07.1-.1.17-.05.28-.14.33-.25.05-.11.08-.3.08-.58,0-.14,0-.28,0-.43v-3.83c0-.29-.04-.51-.11-.65-.08-.14-.21-.24-.41-.32-.12-.05-.2-.08-.23-.12-.03-.03-.05-.07-.05-.13,0-.09.03-.13.08-.12.04.01.1.04.19.07.08.04.23.08.42.11.13.02.29.04.49.05.09,0,.17.01.26.02.24.02.42.04.55.06.08.01.12.06.12.14,0,.06,0,.1-.02.12-.01.02-.04.03-.09.03-.17,0-.27.05-.32.13-.05.08-.07.26-.07.53v4.08h0Z"/>
  <path class="st1" d="M202.53,79.5c.53,1.77,1.06,3.55,1.59,5.33.08.27.17.48.28.62.11.15.25.26.41.33.04.02.06.07.06.15,0,.09-.03.13-.08.11-.03,0-.07-.03-.13-.05-.18-.09-.47-.17-.87-.25-.4-.08-.67-.11-.82-.09-.03,0-.06,0-.09,0-.06-.01-.1-.06-.1-.15,0-.04.03-.07.08-.09.11-.02.2-.09.27-.19.07-.1.11-.22.11-.35,0-.18-.1-.59-.3-1.24-.06-.2-.13-.32-.21-.36-.07-.04-.34-.11-.8-.19-.16-.03-.32-.06-.47-.09-.1,0-.21.01-.31.02-.09.04-.18.23-.29.58-.04.12-.07.23-.11.35-.03.1-.05.2-.05.31,0,.4.2.68.61.82.09.03.13.09.13.17,0,.08-.05.12-.13.1-.04,0-.1-.03-.18-.06-.16-.07-.29-.12-.41-.14-.11-.02-.29-.04-.53-.05-.18,0-.3-.02-.34-.03-.06-.01-.1-.06-.1-.14,0-.07.03-.11.1-.13.12-.03.22-.11.3-.25.07-.13.19-.42.34-.86.32-.95.64-1.89.95-2.84.08-.22.13-.38.16-.46.11-.28.22-.57.33-.85.06-.14.11-.28.17-.42h0c.08-.22.13-.33.15-.33.04,0,.1.15.19.44.03.09.06.18.08.27h0ZM202.66,82.53c-.15-.52-.3-1.03-.46-1.55-.11-.37-.19-.56-.23-.57-.03,0-.08.1-.15.31-.02.06-.04.13-.07.19-.13.4-.27.8-.41,1.2-.01.04-.03.07-.04.11-.02.05-.03.09-.02.12,0,.11.08.18.25.21.34.06.69.13,1.03.2.09.02.13,0,.13-.07,0-.02,0-.04-.02-.08,0-.02-.01-.04-.02-.06h0Z"/>
  <path class="st1" d="M206.43,80.86v1.04c0,.3.02.49.05.58.03.09.11.14.23.17.04,0,.07.01.1.02.05,0,.1.02.15.03.1.02.2.04.3.06.23.05.41-.09.53-.41.03-.07.05-.15.08-.22.02-.05.06-.08.1-.07.05,0,.07.06.07.15,0,.03,0,.1,0,.21,0,.08,0,.15,0,.21,0,.1,0,.35.03.73.01.25.02.47.02.65,0,.08,0,.16,0,.25,0,.05,0,.07-.01.09,0,.02-.03.03-.05.02-.06,0-.09-.07-.1-.2-.03-.28-.1-.5-.21-.66-.06-.09-.14-.16-.22-.2-.09-.04-.25-.09-.49-.14-.08-.02-.16-.03-.24-.05-.11-.02-.19-.02-.23.02-.04.04-.07.13-.08.26-.01.16-.02.41-.02.75v.43c0,.45.03.78.08.99.04.15.08.26.14.32.05.06.14.11.25.13.94.2,1.56-.06,1.85-.79.02-.04.03-.05.04-.05.02,0,.05.01.07.05.02.03.03.07.03.11,0,.32-.06.61-.18.88-.1.23-.23.38-.38.45-.15.07-.36.08-.61.03-.15-.03-.31-.08-.49-.14-.14-.05-.27-.09-.4-.14-.15-.05-.35-.1-.6-.16-.17-.04-.43-.07-.77-.12-.1-.01-.16-.02-.21-.03-.06-.01-.09-.05-.09-.12,0-.06.02-.1.08-.11.13-.04.22-.1.27-.17.05-.07.09-.2.11-.4.03-.16.04-.39.04-.68v-3.8c0-.36-.04-.61-.13-.75-.08-.15-.26-.27-.52-.38-.06-.03-.09-.08-.09-.16,0-.08.04-.11.12-.09.02,0,.05.01.1.03.04.01.1.02.17.04.12.03.23.06.35.09.44.1.88.19,1.32.29.76.16,1.23.25,1.41.26.02,0,.03,0,.05,0,.07.02.1.08.1.18,0,.07,0,.21.02.4.02.28.03.49.03.61,0,.24-.05.36-.13.35-.04,0-.07-.08-.07-.23,0-.32-.08-.57-.25-.75-.17-.18-.44-.31-.82-.39-.14-.03-.28-.06-.43-.09-.08,0-.16,0-.24-.01-.12.03-.18.17-.18.45,0,.06,0,.13,0,.2h0Z"/>
  <path class="st2" d="M156.14,56.73v-25.12s-2.12-.79-1.86-2.91c.27-2.11,1.33-3.83,1.59-5.82.27-1.98.13-3.17.66-3.17s.64,2.02.8,3.34c.23,1.98,1.39,3.08,1.52,5.46.13,2.38-1.26,3.02-1.26,3.02v25.2h-1.46Z"/>
  <path class="st4" d="M98.78,100.6h118.48s-7.1,7.6-7.1,21.19.69,65.42.69,72.33-2.54,20.04-16.18,23.96c-13.63,3.92-13.76,4-20.97,4s-15.77,10.75-16,11.9c0,0-9.71-11.29-15.48-11.06-5.78.23-22.65-2.76-27.73-8.06s-9.94-6.45-9.94-23.96v-78.55c0-4.84-4.85-9.21-5.78-11.75h0Z"/>
  <polygon class="st5" points="116.98 125.39 143.88 113.9 157.97 119.55 157.97 125.39 116.98 125.39 116.98 125.39"/>
  <polygon class="st5" points="114.23 126.85 157.79 126.85 157.79 128.68 114.05 128.68 114.23 126.85 114.23 126.85"/>
  <path class="st5" d="M157.42,181.22c15.37-1.09,35.69,0,52.52,10.03l.18,1.28s-19.4-12.77-52.52-10.22l-.18-1.1h0Z"/>
  <path class="st5" d="M159.99,181.76s1.83-.36,1.83,4.56v42.14l1.65-1.82s.18-39.22.18-41.41,0-3.47,1.1-3.83l-4.76.36h0Z"/>
  <path class="st5" d="M175.54,181.95s-1.83-.36-1.83,4.56v35.57l-1.65.55s-.18-35.03-.18-37.22,0-3.47-1.1-3.83l4.76.36h0Z"/>
  <path class="st5" d="M185.79,183.04s-1.83-.37-1.83,4.56v33.39l-1.65.73s-.18-33.02-.18-35.21,0-3.47-1.1-3.83l4.76.37h0Z"/>
  <path class="st5" d="M196.04,185.41s-1.83-.36-1.83,4.56v28.28l-1.65,1.28s-.18-28.46-.18-30.65,0-3.47-1.1-3.83l4.76.36h0Z"/>
  <path class="st5" d="M206.47,189.97s-1.83-2.01-1.83,2.92v18.24l-1.65,1.82s-.18-18.97-.18-21.16,0-3.47-1.1-3.83l4.76,2.01h0Z"/>
  <path class="st3" d="M157.79,175.74c21.96-.73,35.32.18,52.34,8.76v1.28s-20.13-11.68-52.16-8.57l-.18-1.46h0Z"/>
  <path class="st3" d="M157.79,178.3s29.46-4.01,52.34,8.57v2.92s-16.47-12.04-52.52-9.67l.18-1.82h0Z"/>
  <path class="st1" d="M105.27,165.71h11.35v50.72s-12.26-6.93-11.9-19.89c.37-12.95.55-30.83.55-30.83h0Z"/>
  <path class="st1" d="M126.4,165.53h10.89v56.74s-7.41.18-10.89-2.01v-54.73h0Z"/>
  <path class="st1" d="M147.08,165.71h10.52v66.95s-5.22-6.38-10.52-8.39v-58.56h0Z"/>
  <polygon class="st1" points="167.86 157.96 157.79 157.96 157.79 100.6 167.86 100.6 167.86 157.96 167.86 157.96"/>
  <polygon class="st1" points="188.35 157.96 178.29 157.96 178.29 100.07 188.35 100.07 188.35 157.96 188.35 157.96"/>
  <path class="st1" d="M198.79,100.95v57.2h11.9s-.73-37.68-.55-42.24c.18-4.56,3.48-11.86,7.14-15.14l-18.48.18h0Z"/>
  <path class="st0" d="M116.44,136.12c-5.16-2.58-8.62-7.87-8.62-14.01,0-8.67,7.05-15.69,15.74-15.69,6.19,0,11.55,3.56,14.12,8.74l-25.65,10.78v4.01h4.39v6.16h.01Z"/>
  <path class="st0" d="M130.89,135.79v-5.66h-4.76v7.46c1.69-.28,3.3-.82,4.77-1.6v-.2h-.01Z"/>
  <polygon class="st5" points="147.09 130.14 154.13 130.14 154.13 156.67 210.75 156.67 210.75 166.26 104.48 166.26 104.48 156.67 117.71 156.67 117.71 130.14 124.67 130.14 124.67 156.67 132.35 156.67 132.35 156.67 132.35 130.14 139.31 130.14 139.31 156.67 147.09 156.67 147.09 130.14 147.09 130.14"/>
  <path class="st2" d="M96.66,100.6l1.01-1.4h120.46l.8,1.4s-7.64,4.41-7.64,16.44v79.79c0,7.62-8.04,18.64-15.48,21.85-7.44,3.21-13.68,3.41-20.71,4.21-7.04.8-14.68,7.02-15.89,11.03h-3.02s-5.63-9.82-14.08-10.62c-8.45-.8-17.9-.2-26.14-6.21-8.25-6.01-12.27-11.63-12.27-21.65v-78.58c0-6.21-1.81-12.03-7.04-16.24h0ZM105.11,115.43v78.58c0,12.43,6.23,18.64,13.67,23.05,7.44,4.41,14.31,2.65,25.14,4.81,9.05,1.8,13.07,10.83,13.07,10.83h1.01s3.42-5.61,10.46-9.62c7.04-4.01,15.69-1.4,25.14-5.21,9.45-3.81,16.29-15.04,16.29-21.25v-80.99c0-10.02,6.23-14.83,6.23-14.83h-116.44s5.43,4.61,5.43,14.63h0Z"/>
  <path class="st6" d="M71.65,108.26s.6-1.64,2.7-2.69v3.66s2.47.07,4.5.15c2.02.07,3,1.94,3.97,4.11,2.1-.22,6.07.22,6.07.22,0,0,0,3.14-.45,4.56-.45,1.42-.45,2.47-1.72,2.47s-3.6-.37-5.02.6c-1.42.97-2.25,2.32-2.02,3.51.22,1.2.45,1.2,2.02,1.42,1.57.22,3.45.22,4.27-.75.82-.97,1.57-1.79,2.1-1.05.52.75,1.05,2.99.9,4.41-.15,1.42-1.12,2.62-2.62,2.02-1.5-.6-3.97-1.94-4.95-.15-.97,1.79-.6,4.63.68,5.61,1.27.97,2.92.97,5.47-1.05,2.55-2.02,7.35-4.86,9.6-5.75-.08-4.11-.08-12.03,5.92-13.15.23,1.35.23,2.99.23,2.99,0,0-3.15.15-4.05,2.54.15.45.37.6.37.6,0,0,1.35-2.47,4.2-2.47.15.9.23,2.54.23,2.54,0,0-3.45-.67-4.87,3.06.15.3.37.67.37.67,0,0,1.95-3.74,4.8-2.62.45,1.64.15,4.41.15,4.41,0,0-1.12,1.57-1.8,2.77-.67,1.2-.9,1.2-1.12,2.02-.22.82-1.5,1.57-2.4,2.09-.9.52-3.9,3.51-4.87,4.78,1.2.6,1.42.37,1.95.22-1.2,1.27-1.65,1.57-3.07,1.57-.07,1.57-.67,1.94-.07,2.77-1.57-.07-3.52.3-3.52.3,0,0-1.57,1.57-1.57,1.87s.22.67.22.67c0,0,11.1,3.29,14.47,5.23,1.35-4.71,3.75-7.62,6.45-8.22.9,3.66,1.5,7.77,1.5,10.16s-.6,4.26-2.25,3.59c-1.65-.67-2.47-1.79-3.45-1.42-.97.37-3.15,1.27-3.3,1.49-.15.22-1.5-.67-1.5-.67l-3.97-.15s-.82.75-.3,1.57c-1.12-.37-1.72-1.57-1.72-1.57l-.75.15s-.52,1.42-.52,2.32c-1.2-.37-2.25-1.27-3-1.87-.75-.6-3.07-.52-3.07-.52l.3.6,2.4,1.79s-2.92,9.42-10.87,13.75c1.2.22,1.5.22,2.92-.15,1.42-.37,4.72-2.84,8.25-3.14,3.52-.3,7.65-.3,9.37,2.99,1.72,3.29,3.67,10.99-9.3,22.05.82,2.17,2.02,4.41,3.22,5.31,3.07,0,8.32-1.64,9.6,6.88-.97.07-2.25,0-2.25,0,0,0-.22-3.89-2.92-5.83-.38.07-.75.3-.75.3,0,0,1.87.67,2.32,5.53-.9.15-1.72.07-1.72.07,0,0,.22-3.74-3.22-5.38-.45.37-.6.6-.6.6,0,0,2.32.75,2.62,5.01-3.37.6-6.3.6-6.3.6,0,0-3.67-11.14-8.85-10.91-.23-.67.37-1.12.37-1.12l.07-2.77-1.87.75s2.47-2.91,1.87-6.43c-1.72,1.34-6.3,4.93-11.77,4.63-2.25,6.05-3.67,10.69-8.7,13.83-5.02,3.14-11.25,7.1-13.2,9.42-.3,2.17-.3,3.81.22,4.71.52.9,1.27,1.35,2.47,1.35s7.05.9,7.42,6.35c-.6.15-2.4-.15-2.4-.15,0,0-.15-3.59-3.52-4.78-.22.3-.37.67-.37.67,0,0,2.62.97,2.7,4.19h-2.4s-.45-2.99-2.7-4.04c-.37.45-.45.67-.45.67,0,0,2.77,1.64,2.25,4.56-2.25.07-8.1-.15-8.1-.15,0,0-2.02-8.24-4.87-9.87-1.05-.6-.3-.97-.07-1.34.22-.37.3-1.05-.45-1.49-.75-.45-.67-.75.15-1.57.82-.82.9-2.99.3-3.51-.6-.52-.97-.97.52-1.35,1.5-.37,4.12-2.69,5.32-4.48,1.2-1.79,2.32-5.46,2.85-7.62.52-2.17.9-5.6,2.77-9.94-2.77-.52-4.8-1.42-4.8-1.42,0,0-.22,1.34.23,2.77-1.27-1.49-2.55-2.54-1.95-4.19l-.97,1.79s-2.1-2.39-1.57-7.7c.52-5.31,1.5-11.66,2.47-13.98.97-2.32,8.25-17.26,5.32-20.4-2.92-3.14-7.57,1.12-9,4.78-1.42,3.66-3.9,10.69-4.5,18.83,1.72.37,5.4,7.4-2.4,14.65-.07-1.64-.07-3.74-.07-3.74,0,0-2.32,6.2-9.45,5.75,3.22-2.69,4.57-5.31,5.17-7.47-2.47.82-3.37.37-3.97.37,2.85-2.54,3.6-4.93,3.97-6.28.37-1.35,1.27-3.66,3.6-3.59.52-6.8,2.25-19.58,7.35-23.54-3.52,1.57-3.37,1.12-3.37,1.12,0,0,2.62-4.86,7.57-5.16-1.2-.15-1.72-.52-1.72-.52,0,0,5.32-2.62,7.95-.22,2.62,2.39,5.77,5.61,1.65,15.92-4.12,10.31-6.07,15.99-5.85,19.43.22,3.44,2.7,7.18,7.5,4.93,4.8-2.24,10.5-7.03,10.65-12.63.15-5.61-3-10.84-3.45-14.42-.45-3.59-1.95-8.89-1.72-11.73-1.42,3.36-2.1,4.93-2.4,7.47-.45-7.92-.15-14.35,1.5-17.49-1.95,2.17-2.7,3.89-2.7,3.89,0,0,.22-10.99,5.92-17.49-2.32.67-3.45.37-4.35,1.57,2.32-4.56,6-7.1,8.62-8.15-4.12.45-4.95.52-4.95.52,0,0,4.95-5.23,11.92-3.29h0Z"/>
  <path class="st2" d="M71.65,108.26s.6-1.64,2.7-2.69v3.66s2.47.07,4.5.15c2.02.07,3,1.94,3.97,4.11,2.1-.22,6.07.22,6.07.22,0,0,0,3.14-.45,4.56-.45,1.42-.45,2.47-1.72,2.47s-3.6-.37-5.02.6c-1.42.97-2.25,2.32-2.02,3.51.22,1.2.45,1.2,2.02,1.42,1.57.22,3.45.22,4.27-.75.82-.97,1.57-1.79,2.1-1.05.52.75,1.05,2.99.9,4.41-.15,1.42-1.12,2.62-2.62,2.02-1.5-.6-3.97-1.94-4.95-.15-.97,1.79-.6,4.63.68,5.61,1.27.97,2.92.97,5.47-1.05,2.55-2.02,7.35-4.86,9.6-5.75-.08-4.11-.08-12.03,5.92-13.15.23,1.35.23,2.99.23,2.99,0,0-3.15.15-4.05,2.54.15.45.38.6.38.6,0,0,1.35-2.47,4.2-2.47.15.9.23,2.54.23,2.54,0,0-3.45-.67-4.87,3.06.15.3.37.67.37.67,0,0,1.95-3.74,4.8-2.62.45,1.64.15,4.41.15,4.41,0,0-1.12,1.57-1.8,2.77-.67,1.2-.9,1.2-1.12,2.02-.22.82-1.5,1.57-2.4,2.09-.9.52-3.9,3.51-4.87,4.78,1.2.6,1.42.37,1.95.22-1.2,1.27-1.65,1.57-3.07,1.57-.07,1.57-.67,1.94-.07,2.77-1.57-.07-3.52.3-3.52.3,0,0-1.57,1.57-1.57,1.87s.22.67.22.67c0,0,11.1,3.29,14.47,5.23,1.35-4.71,3.75-7.62,6.45-8.22.9,3.66,1.5,7.77,1.5,10.16s-.6,4.26-2.25,3.59c-1.65-.67-2.47-1.79-3.45-1.42-.97.37-3.15,1.27-3.3,1.49-.15.22-1.5-.67-1.5-.67l-3.97-.15s-.82.75-.3,1.57c-1.12-.37-1.72-1.57-1.72-1.57l-.75.15s-.52,1.42-.52,2.32c-1.2-.37-2.25-1.27-3-1.87-.75-.6-3.07-.52-3.07-.52l.3.6,2.4,1.79s-2.92,9.42-10.87,13.75c1.2.22,1.5.22,2.92-.15,1.42-.37,4.72-2.84,8.25-3.14,3.52-.3,7.65-.3,9.37,2.99,1.72,3.29,3.67,10.99-9.3,22.05.82,2.17,2.02,4.41,3.22,5.31,3.07,0,8.32-1.64,9.6,6.88-.97.07-2.25,0-2.25,0,0,0-.22-3.89-2.92-5.83-.38.07-.75.3-.75.3,0,0,1.87.67,2.32,5.53-.9.15-1.72.07-1.72.07,0,0,.22-3.74-3.22-5.38-.45.37-.6.6-.6.6,0,0,2.32.75,2.62,5.01-3.37.6-6.3.6-6.3.6,0,0-3.67-11.14-8.85-10.91-.23-.67.37-1.12.37-1.12l.07-2.77-1.87.75s2.47-2.91,1.87-6.43c-1.72,1.34-6.3,4.93-11.77,4.63-2.25,6.05-3.67,10.69-8.7,13.83-5.02,3.14-11.25,7.1-13.2,9.42-.3,2.17-.3,3.81.22,4.71.52.9,1.27,1.35,2.47,1.35s7.05.9,7.42,6.35c-.6.15-2.4-.15-2.4-.15,0,0-.15-3.59-3.52-4.78-.22.3-.38.67-.38.67,0,0,2.62.97,2.7,4.19h-2.4s-.45-2.99-2.7-4.04c-.37.45-.45.67-.45.67,0,0,2.77,1.64,2.25,4.56-2.25.07-8.1-.15-8.1-.15,0,0-2.02-8.24-4.87-9.87-1.05-.6-.3-.97-.07-1.34.22-.37.3-1.05-.45-1.49-.75-.45-.67-.75.15-1.57.82-.82.9-2.99.3-3.51-.6-.52-.97-.97.52-1.35,1.5-.37,4.12-2.69,5.32-4.48,1.2-1.79,2.32-5.46,2.85-7.62.52-2.17.9-5.6,2.77-9.94-2.77-.52-4.8-1.42-4.8-1.42,0,0-.22,1.35.23,2.77-1.27-1.49-2.55-2.54-1.95-4.19l-.97,1.79s-2.1-2.39-1.57-7.7c.52-5.31,1.5-11.66,2.47-13.98.97-2.32,8.25-17.26,5.32-20.4-2.92-3.14-7.57,1.12-9,4.78-1.42,3.66-3.9,10.69-4.5,18.83,1.72.37,5.4,7.4-2.4,14.65-.07-1.64-.07-3.74-.07-3.74,0,0-2.32,6.2-9.45,5.75,3.22-2.69,4.57-5.31,5.17-7.47-2.47.82-3.37.37-3.97.37,2.85-2.54,3.6-4.93,3.97-6.28.37-1.35,1.27-3.66,3.6-3.59.52-6.8,2.25-19.58,7.35-23.54-3.52,1.57-3.37,1.12-3.37,1.12,0,0,2.62-4.86,7.57-5.16-1.2-.15-1.72-.52-1.72-.52,0,0,5.32-2.62,7.95-.22,2.62,2.39,5.77,5.61,1.65,15.92-4.12,10.31-6.07,15.99-5.85,19.43.22,3.44,2.7,7.18,7.5,4.93,4.8-2.24,10.5-7.03,10.65-12.63.15-5.61-3-10.84-3.45-14.42-.45-3.59-1.95-8.89-1.72-11.73-1.42,3.36-2.1,4.93-2.4,7.47-.45-7.92-.15-14.35,1.5-17.49-1.95,2.17-2.7,3.89-2.7,3.89,0,0,.22-10.99,5.92-17.49-2.32.67-3.45.37-4.35,1.57,2.32-4.56,6-7.1,8.62-8.15-4.12.45-4.95.52-4.95.52,0,0,4.95-5.23,11.92-3.29h0Z"/>
  <path class="st6" d="M242.35,108.26s-.6-1.64-2.7-2.69v3.66s-2.47.07-4.5.15c-2.02.07-3,1.94-3.97,4.11-2.1-.22-6.07.22-6.07.22,0,0,0,3.14.45,4.56.45,1.42.45,2.47,1.72,2.47s3.6-.37,5.02.6c1.42.97,2.25,2.32,2.02,3.51-.23,1.2-.45,1.2-2.02,1.42-1.57.22-3.45.22-4.27-.75-.82-.97-1.57-1.79-2.1-1.05-.52.75-1.05,2.99-.9,4.41.15,1.42,1.12,2.62,2.62,2.02,1.5-.6,3.97-1.94,4.95-.15.97,1.79.6,4.63-.68,5.61-1.27.97-2.92.97-5.47-1.05-2.55-2.02-7.35-4.86-9.6-5.75.08-4.11.08-12.03-5.92-13.15-.22,1.35-.22,2.99-.22,2.99,0,0,3.15.15,4.05,2.54-.15.45-.37.6-.37.6,0,0-1.35-2.47-4.2-2.47-.15.9-.22,2.54-.22,2.54,0,0,3.45-.67,4.87,3.06-.15.3-.37.67-.37.67,0,0-1.95-3.74-4.8-2.62-.45,1.64-.15,4.41-.15,4.41,0,0,1.12,1.57,1.8,2.77.68,1.2.9,1.2,1.12,2.02.22.82,1.5,1.57,2.4,2.09.9.52,3.9,3.51,4.87,4.78-1.2.6-1.42.37-1.95.22,1.2,1.27,1.65,1.57,3.07,1.57.07,1.57.67,1.94.07,2.77,1.57-.07,3.52.3,3.52.3,0,0,1.57,1.57,1.57,1.87s-.22.67-.22.67c0,0-11.1,3.29-14.47,5.23-1.35-4.71-3.75-7.62-6.45-8.22-.9,3.66-1.5,7.77-1.5,10.16s.6,4.26,2.25,3.59c1.65-.67,2.47-1.79,3.45-1.42.97.37,3.15,1.27,3.3,1.49.15.22,1.5-.67,1.5-.67l3.97-.15s.82.75.3,1.57c1.12-.37,1.72-1.57,1.72-1.57l.75.15s.52,1.42.52,2.32c1.2-.37,2.25-1.27,3-1.87.75-.6,3.07-.52,3.07-.52l-.3.6-2.4,1.79s2.92,9.42,10.87,13.75c-1.2.22-1.5.22-2.92-.15-1.42-.37-4.72-2.84-8.25-3.14-3.52-.3-7.65-.3-9.37,2.99-1.72,3.29-3.67,10.99,9.3,22.05-.83,2.17-2.02,4.41-3.22,5.31-3.07,0-8.32-1.64-9.6,6.88.97.07,2.25,0,2.25,0,0,0,.22-3.89,2.92-5.83.37.07.75.3.75.3,0,0-1.87.67-2.32,5.53.9.15,1.72.07,1.72.07,0,0-.23-3.74,3.22-5.38.45.37.6.6.6.6,0,0-2.32.75-2.62,5.01,3.37.6,6.3.6,6.3.6,0,0,3.67-11.14,8.85-10.91.22-.67-.38-1.12-.38-1.12l-.07-2.77,1.87.75s-2.47-2.91-1.87-6.43c1.72,1.34,6.3,4.93,11.77,4.63,2.25,6.05,3.67,10.69,8.7,13.83,5.02,3.14,11.25,7.1,13.2,9.42.3,2.17.3,3.81-.22,4.71-.52.9-1.27,1.35-2.47,1.35s-7.05.9-7.42,6.35c.6.15,2.4-.15,2.4-.15,0,0,.15-3.59,3.52-4.78.23.3.38.67.38.67,0,0-2.62.97-2.7,4.19h2.4s.45-2.99,2.7-4.04c.37.45.45.67.45.67,0,0-2.77,1.64-2.25,4.56,2.25.07,8.1-.15,8.1-.15,0,0,2.02-8.24,4.87-9.87,1.05-.6.3-.97.07-1.34-.22-.37-.3-1.05.45-1.49.75-.45.67-.75-.15-1.57-.82-.82-.9-2.99-.3-3.51.6-.52.97-.97-.52-1.35-1.5-.37-4.12-2.69-5.32-4.48-1.2-1.79-2.32-5.46-2.85-7.62-.52-2.17-.9-5.6-2.77-9.94,2.77-.52,4.8-1.42,4.8-1.42,0,0,.22,1.34-.23,2.77,1.27-1.49,2.55-2.54,1.95-4.19l.98,1.79s2.1-2.39,1.57-7.7c-.53-5.31-1.5-11.66-2.47-13.98-.97-2.32-8.25-17.26-5.32-20.4,2.92-3.14,7.57,1.12,9,4.78,1.42,3.66,3.9,10.69,4.5,18.83-1.72.37-5.4,7.4,2.4,14.65.07-1.64.07-3.74.07-3.74,0,0,2.32,6.2,9.45,5.75-3.22-2.69-4.57-5.31-5.17-7.47,2.47.82,3.37.37,3.97.37-2.85-2.54-3.6-4.93-3.97-6.28-.37-1.35-1.27-3.66-3.6-3.59-.52-6.8-2.25-19.58-7.35-23.54,3.52,1.57,3.37,1.12,3.37,1.12,0,0-2.62-4.86-7.57-5.16,1.2-.15,1.72-.52,1.72-.52,0,0-5.32-2.62-7.95-.22-2.62,2.39-5.77,5.61-1.65,15.92,4.12,10.31,6.07,15.99,5.85,19.43-.22,3.44-2.7,7.18-7.5,4.93-4.8-2.24-10.5-7.03-10.65-12.63-.15-5.61,3-10.84,3.45-14.42.45-3.59,1.95-8.89,1.72-11.73,1.42,3.36,2.1,4.93,2.4,7.47.45-7.92.15-14.35-1.5-17.49,1.95,2.17,2.7,3.89,2.7,3.89,0,0-.22-10.99-5.92-17.49,2.32.67,3.45.37,4.35,1.57-2.32-4.56-6-7.1-8.62-8.15,4.12.45,4.95.52,4.95.52,0,0-4.95-5.23-11.92-3.29h0Z"/>
  <path class="st2" d="M242.35,108.26s-.6-1.64-2.7-2.69v3.66s-2.47.07-4.5.15c-2.02.07-3,1.94-3.97,4.11-2.1-.22-6.07.22-6.07.22,0,0,0,3.14.45,4.56.45,1.42.45,2.47,1.72,2.47s3.6-.37,5.02.6c1.42.97,2.25,2.32,2.02,3.51-.23,1.2-.45,1.2-2.02,1.42-1.57.22-3.45.22-4.27-.75-.82-.97-1.57-1.79-2.1-1.05-.52.75-1.05,2.99-.9,4.41s1.12,2.62,2.62,2.02c1.5-.6,3.97-1.94,4.95-.15.97,1.79.6,4.63-.68,5.61-1.27.97-2.92.97-5.47-1.05-2.55-2.02-7.35-4.86-9.6-5.75.08-4.11.08-12.03-5.92-13.15-.22,1.35-.22,2.99-.22,2.99,0,0,3.15.15,4.05,2.54-.15.45-.38.6-.38.6,0,0-1.35-2.47-4.2-2.47-.15.9-.22,2.54-.22,2.54,0,0,3.45-.67,4.87,3.06-.15.3-.37.67-.37.67,0,0-1.95-3.74-4.8-2.62-.45,1.64-.15,4.41-.15,4.41,0,0,1.12,1.57,1.8,2.77.68,1.2.9,1.2,1.12,2.02.22.82,1.5,1.57,2.4,2.09.9.52,3.9,3.51,4.87,4.78-1.2.6-1.42.37-1.95.22,1.2,1.27,1.65,1.57,3.07,1.57.07,1.57.67,1.94.07,2.77,1.57-.07,3.52.3,3.52.3,0,0,1.57,1.57,1.57,1.87s-.22.67-.22.67c0,0-11.1,3.29-14.47,5.23-1.35-4.71-3.75-7.62-6.45-8.22-.9,3.66-1.5,7.77-1.5,10.16s.6,4.26,2.25,3.59c1.65-.67,2.47-1.79,3.45-1.42.97.37,3.15,1.27,3.3,1.49.15.22,1.5-.67,1.5-.67l3.97-.15s.82.75.3,1.57c1.12-.37,1.72-1.57,1.72-1.57l.75.15s.52,1.42.52,2.32c1.2-.37,2.25-1.27,3-1.87.75-.6,3.07-.52,3.07-.52l-.3.6-2.4,1.79s2.92,9.42,10.87,13.75c-1.2.22-1.5.22-2.92-.15-1.42-.37-4.72-2.84-8.25-3.14-3.52-.3-7.65-.3-9.37,2.99-1.72,3.29-3.67,10.99,9.3,22.05-.83,2.17-2.02,4.41-3.22,5.31-3.07,0-8.32-1.64-9.6,6.88.97.07,2.25,0,2.25,0,0,0,.22-3.89,2.92-5.83.37.07.75.3.75.3,0,0-1.87.67-2.32,5.53.9.15,1.72.07,1.72.07,0,0-.23-3.74,3.22-5.38.45.37.6.6.6.6,0,0-2.32.75-2.62,5.01,3.37.6,6.3.6,6.3.6,0,0,3.67-11.14,8.85-10.91.22-.67-.38-1.12-.38-1.12l-.07-2.77,1.87.75s-2.47-2.91-1.87-6.43c1.72,1.34,6.3,4.93,11.77,4.63,2.25,6.05,3.67,10.69,8.7,13.83,5.02,3.14,11.25,7.1,13.2,9.42.3,2.17.3,3.81-.22,4.71-.52.9-1.27,1.35-2.47,1.35s-7.05.9-7.42,6.35c.6.15,2.4-.15,2.4-.15,0,0,.15-3.59,3.52-4.78.23.3.38.67.38.67,0,0-2.62.97-2.7,4.19h2.4s.45-2.99,2.7-4.04c.37.45.45.67.45.67,0,0-2.77,1.64-2.25,4.56,2.25.07,8.1-.15,8.1-.15,0,0,2.02-8.24,4.87-9.87,1.05-.6.3-.97.07-1.34s-.3-1.05.45-1.49c.75-.45.67-.75-.15-1.57-.82-.82-.9-2.99-.3-3.51.6-.52.97-.97-.52-1.35-1.5-.37-4.12-2.69-5.32-4.48-1.2-1.79-2.32-5.46-2.85-7.62-.52-2.17-.9-5.6-2.77-9.94,2.77-.52,4.8-1.42,4.8-1.42,0,0,.22,1.35-.23,2.77,1.27-1.49,2.55-2.54,1.95-4.19l.98,1.79s2.1-2.39,1.57-7.7c-.53-5.31-1.5-11.66-2.47-13.98-.97-2.32-8.25-17.26-5.32-20.4,2.92-3.14,7.57,1.12,9,4.78,1.42,3.66,3.9,10.69,4.5,18.83-1.72.37-5.4,7.4,2.4,14.65.07-1.64.07-3.74.07-3.74,0,0,2.32,6.2,9.45,5.75-3.22-2.69-4.57-5.31-5.17-7.47,2.47.82,3.37.37,3.97.37-2.85-2.54-3.6-4.93-3.97-6.28-.37-1.35-1.27-3.66-3.6-3.59-.52-6.8-2.25-19.58-7.35-23.54,3.52,1.57,3.37,1.12,3.37,1.12,0,0-2.62-4.86-7.57-5.16,1.2-.15,1.72-.52,1.72-.52,0,0-5.32-2.62-7.95-.22-2.62,2.39-5.77,5.61-1.65,15.92,4.12,10.31,6.07,15.99,5.85,19.43-.22,3.44-2.7,7.18-7.5,4.93-4.8-2.24-10.5-7.03-10.65-12.63-.15-5.61,3-10.84,3.45-14.42.45-3.59,1.95-8.89,1.72-11.73,1.42,3.36,2.1,4.93,2.4,7.47.45-7.92.15-14.35-1.5-17.49,1.95,2.17,2.7,3.89,2.7,3.89,0,0-.22-10.99-5.92-17.49,2.32.67,3.45.37,4.35,1.57-2.32-4.56-6-7.1-8.62-8.15,4.12.45,4.95.52,4.95.52,0,0-4.95-5.23-11.92-3.29h0Z"/>
</svg>