<svg xmlns="http://www.w3.org/2000/svg" viewBox="0 0 161.35 393.33"><title>tottenham-hotspur-logo</title><path d="M193.38,367.77a4.44,4.44,0,0,0-4.13,1.65c-2.62,2.83-3.84,6.67-3.65,11.39a8.55,8.55,0,0,0,.56,2.86,4.71,4.71,0,0,0,3.14,3c1.27.23,2.7-.51,4-2.1,2.93-3.47,4.19-9.83,2.76-13.9-.6-1.69-1.56-2.74-2.72-3M290,409.95a11.36,11.36,0,0,0-1-8.08,8.31,8.31,0,0,0-5.26-4l-2.38-.5c-2.17-.44-5.44-1.1-10.34-2.33-6.55-1.64-12.18,1.37-15.29,8.06,3.2.93,6.34,1.79,9.41,2.56a31.51,31.51,0,0,0,.6-4.07,1.88,1.88,0,0,1,3.75.22,35.15,35.15,0,0,1-.7,4.74l1.81.42,1.81.4c.54-2.64.88-4.88.89-4.93A1.88,1.88,0,0,1,277,403c0,.18-.37,2.43-.92,5.12,1.26.24,2.45.46,3.58.65a35.28,35.28,0,0,0,.52-4.12,1.88,1.88,0,0,1,3.75.18,38.32,38.32,0,0,1-.55,4.5c2.6.35,4.78.55,6.59.63m-34.78,4.59a10.8,10.8,0,0,0,5.92,5.65A86.21,86.21,0,0,0,275.58,423c6,.66,10.62-2.66,13.27-9.36-2-.12-4.13-.34-6.33-.65a19.52,19.52,0,0,1-1.62,3.89,1.88,1.88,0,0,1-3.26-1.86,14.45,14.45,0,0,0,1.13-2.62q-1.75-.3-3.5-.65a28.69,28.69,0,0,1-1.33,4.14,1.88,1.88,0,0,1-3.44-1.5,24,24,0,0,0,1.1-3.4l-1.81-.4-1.92-.45c-.33,1.09-.74,2.22-1.22,3.37a1.88,1.88,0,0,1-3.46-1.46c.4-.94.74-1.88,1-2.79-3.16-.8-6.41-1.69-9.71-2.66a12.09,12.09,0,0,0,.72,7.92M301,386.19a61.59,61.59,0,0,0-4-19.46c-2.84-7.45-12.34-12.73-24.85-15.56-23.13-5.23-53.53,3.41-72.86,19.68a18.67,18.67,0,0,1-.48,9.74c13.93,7.49,34.2,15.6,53.31,21.42,4.5-10.33,13.11-12.3,19.83-10.62,4.81,1.2,7.91,1.83,10.17,2.29l2.48.52a12.07,12.07,0,0,1,7.68,5.82,14.84,14.84,0,0,1,1.54,9.94c2.35-.14,3.49-.53,3.75-.84a61.54,61.54,0,0,0,3.4-22.92m-25.79,40.56a89.59,89.59,0,0,1-15.26-3,14.5,14.5,0,0,1-8.1-7.62,15.3,15.3,0,0,1-1.41-5.86,17,17,0,0,1,.5-4.72c-19.15-5.84-39.43-14-53.55-21.49a14.93,14.93,0,0,1-1.7,2.51,9.49,9.49,0,0,1-3.48,2.69,77.56,77.56,0,0,0,11.9,33.29c8.62,13.3,20.35,22.43,33,25.29,4.49,1,10.37,2.28,15.62,1.11a61.8,61.8,0,0,0,43.14-35.53,22.19,22.19,0,0,1-3,.3c-4.45,13-13.8,13.46-17.66,13m-90.51-54.91a16,16,0,0,1,2.39-3.91,10.23,10.23,0,0,1,2.44-2.15c2.29-10.7,7.09-20.23,14.1-27.43a61.94,61.94,0,0,0-22.7,30.36,19.29,19.29,0,0,0,3.77,3.13m-1.19,3.65a35.51,35.51,0,0,1-3.74-3,61.58,61.58,0,0,0-2.1,18.7q.08,2,.28,3.88a39.62,39.62,0,0,1,5.4-11.9,18.38,18.38,0,0,1,.16-7.71m4.94,14.12a6.06,6.06,0,0,1-3.45-2.45c-4.6,7.09-6.53,13.43-4.85,19.13a61.79,61.79,0,0,0,53.39,43.87c-24.12-7.33-42-32.46-45.09-60.55" transform="translate(-175.33 -59.33)" style="fill:#001c58"/><path d="M212.55,59.33c-24.18,0-29.91,12.4-29.91,12.4s27.9-2,27.9,25.54c0,12.4-6.75,20.8-13.89,29.7-8.3,10.33-17.7,22-17.7,41.68,0,32.51,20.89,47.77,39.32,61.23,16.05,11.72,31.22,22.8,31.22,43.65s-9.2,37.22-13.39,41.41c-7,7-13.38,8.32-18.48,9.35s-10.17,2.07-11.21,9.59a63.79,63.79,0,0,0-31.08,54.8q0,1.31.05,2.64a64,64,0,1,0,85.69-62.75l.1,0-.34-.13-.58-.2c-3.1-1.07-6.62-2.29-6.62-10.27,0-7.73,3.51-8.38,10.5-9.66,4.15-.76,9.24-1.69,14.22-4.74,8.87-5.42,10.54-11.95,8.92-13.56-2.2-2.2-4.62,2.42-13.55,5.11a33,33,0,0,1-8.65,1.53,23.2,23.2,0,0,1-4.17-.33,149.27,149.27,0,0,1,10-16.05l1.15-1.56-1.37-1.37c-1.81-1.82-2.86-5.59-2.86-10.64,0-6.24,1.59-14.44,5.27-23.34,4.36-10.52,21.66-44.84,61.33-44.84h2.25v-2.25a180.63,180.63,0,0,0-3.85-38.78l-.5-2.24s-3.85,1.1-7.06,1.81c-.38.09-3.38.82-3.52.19s2.19-1.72,3-2.12c3-1.5,6.77-3.08,6.77-3.08l-.51-1.8c-2.83-9.88-5.68-14.6-5.8-14.8l-.92-1.5-1.68.53c-33,10.41-40.11,32.33-44.33,45.43-2.05,6.36-3.32,10-5.62,10-6.82,0-12.46-5.64-14.31-7.49-20.6-20.6-19-35.45-16.63-57.94a247,247,0,0,0,1.8-27.19c0-25.88-9.83-37.93-31-37.93" transform="translate(-175.33 -59.33)" style="fill:#fff"/><path d="M193.38,367.77a4.44,4.44,0,0,0-4.13,1.65c-2.61,2.83-3.84,6.67-3.65,11.4h0a8.5,8.5,0,0,0,.56,2.86,4.72,4.72,0,0,0,3.14,3c1.27.23,2.7-.51,4-2.1,2.93-3.47,4.19-9.84,2.76-13.9-.6-1.69-1.56-2.74-2.72-3M290,409.95a11.37,11.37,0,0,0-1-8.08,8.29,8.29,0,0,0-5.27-4l-2.38-.5c-2.16-.44-5.43-1.1-10.33-2.32-6.55-1.64-12.18,1.36-15.29,8.06,3.19.93,6.34,1.79,9.4,2.56a31.73,31.73,0,0,0,.6-4.07,1.88,1.88,0,0,1,3.75.22,35.64,35.64,0,0,1-.7,4.74l1.81.42,1.81.4c.54-2.64.88-4.88.89-4.93A1.88,1.88,0,0,1,277,403c0,.18-.37,2.43-.93,5.12,1.26.24,2.45.46,3.58.65a35.43,35.43,0,0,0,.52-4.12,1.88,1.88,0,0,1,3.75.18,37.55,37.55,0,0,1-.55,4.5c2.6.35,4.78.54,6.59.63m-34.77,4.59a10.79,10.79,0,0,0,5.92,5.65A86.74,86.74,0,0,0,275.58,423c6,.66,10.61-2.66,13.27-9.36-2-.11-4.13-.34-6.33-.65a19.38,19.38,0,0,1-1.62,3.89,1.88,1.88,0,0,1-3.26-1.86,14.53,14.53,0,0,0,1.13-2.62c-1.16-.2-2.33-.42-3.5-.64a28.64,28.64,0,0,1-1.33,4.14,1.88,1.88,0,1,1-3.44-1.5,24.3,24.3,0,0,0,1.1-3.4l-1.81-.4-1.92-.45a35.27,35.27,0,0,1-1.22,3.36,1.87,1.87,0,1,1-3.45-1.46c.4-.95.73-1.89,1-2.8-3.16-.8-6.41-1.69-9.71-2.65a12.06,12.06,0,0,0,.72,7.92M297,366.73c-2.84-7.45-12.34-12.73-24.86-15.56-23.13-5.23-53.52,3.41-72.86,19.68a18.65,18.65,0,0,1-.48,9.74c13.93,7.49,34.2,15.6,53.32,21.42,4.5-10.33,13.11-12.3,19.83-10.62,4.81,1.2,7.91,1.83,10.17,2.29l2.49.53a12.07,12.07,0,0,1,7.68,5.82A14.82,14.82,0,0,1,293.8,410c2.35-.14,3.49-.53,3.75-.85a62,62,0,0,0-.57-42.38m-21.82,60a89.41,89.41,0,0,1-15.26-3,14.5,14.5,0,0,1-8.1-7.62,15.33,15.33,0,0,1-1.41-5.86,16.91,16.91,0,0,1,.5-4.72c-19.15-5.84-39.43-14-53.55-21.49a15.37,15.37,0,0,1-1.7,2.51,9.59,9.59,0,0,1-3.49,2.69,77.56,77.56,0,0,0,11.91,33.29c8.62,13.31,20.35,22.43,33,25.29,4.49,1,10.37,2.28,15.62,1.11a61.8,61.8,0,0,0,43.14-35.53,22.46,22.46,0,0,1-3,.29c-4.45,13-13.8,13.46-17.66,13m-90.51-54.91a16,16,0,0,1,2.38-3.91,10.35,10.35,0,0,1,2.44-2.15c2.3-10.7,7.1-20.23,14.1-27.43a62,62,0,0,0-22.7,30.36,19.37,19.37,0,0,0,3.77,3.13m-1.19,3.64a35.62,35.62,0,0,1-3.74-3,61.65,61.65,0,0,0-2.1,18.71c.05,1.3.15,2.6.28,3.88a39.54,39.54,0,0,1,5.4-11.9,18.46,18.46,0,0,1,.16-7.71m4.94,14.12a6,6,0,0,1-3.44-2.45c-4.6,7.09-6.54,13.43-4.85,19.13a61.78,61.78,0,0,0,53.39,43.87c-24.12-7.33-42-32.46-45.09-60.55m29.7-292.33a40.15,40.15,0,0,0-1-9.35s5.55-.29,5.55-7c0-5.57-3.71-9.36-4.71-9.36-.81,0-1,.85-2.74.85-4.24,0-4.55-5.42-4.55-5.42q.94,0,1.94,0c12.14,0,23.38,3.68,23.38,30.36a241,241,0,0,1-1.76,26.39c-.82,7.65-1.57,14.76-1.35,21.71,0,0-21.14-2.49-21.14-18.4,0-10.33,6.44-12.84,6.44-29.71m33.63,176.25c0,20.88-8.91,37.86-14.05,43-15.94,15.94-29.1,4.33-29.24,20.33-7.23,6.55-12.44,16.52-15,27.9l.47.07a6,6,0,0,1,3.77,2.48c20.25-16.51,51.43-25.18,75.27-19.79,7.58,1.72,14,4.51,18.87,8.79a62,62,0,0,0-31.73-25.72c-3.14-1.13-8.72-2.42-8.72-12.6,0-19,20.8-4.23,34.5-24.94.67-1-.3-1.91-1.1-1.11-4.15,4.14-14.32,7-19.71,7s-7.42-1.23-7.42-1.23A148.27,148.27,0,0,1,269.08,279c-12.72-12.72,8.69-82.66,65.34-82.66a177.43,177.43,0,0,0-3.8-38.29c-1.35.33-12,2.84-12.51.6-.43-2,7.86-6.3,10.72-7.71-2.78-9.7-5.56-14.25-5.56-14.25-48.56,15.3-38.8,55.5-50.63,55.5-7.7,0-13.75-6-15.91-8.15-29-29-15.49-48.19-15.49-86.73,0-26-10.08-35.68-28.7-35.68s-25.27,8.06-25.27,8.06,25.51.83,25.51,27.62c0,28-31.59,35.79-31.59,71.38,0,59.24,70.54,58.13,70.54,104.87" transform="translate(-175.33 -59.33)" style="fill:#001c58"/></svg>